<?xml version="1.0" encoding="UTF-8" standalone="no"?>
<!DOCTYPE svg PUBLIC "-//W3C//DTD SVG 1.1//EN" "http://www.w3.org/Graphics/SVG/1.1/DTD/svg11.dtd">
<svg width="100%" height="100%" viewBox="0 0 150 20" version="1.1" xmlns="http://www.w3.org/2000/svg" xmlns:xlink="http://www.w3.org/1999/xlink" xml:space="preserve" xmlns:serif="http://www.serif.com/" style="fill-rule:evenodd;clip-rule:evenodd;stroke-linejoin:round;stroke-miterlimit:2;">
    <g transform="matrix(0.178331,0,0,0.185734,70.5417,5.35664)">
        <g transform="matrix(4.16667,0,0,4.16667,-1502.14,-654.023)">
            <path d="M467.141,162.089C467.649,161.793 467.48,161.111 466.988,160.924C465.034,160.179 462.92,159.852 460.832,159.977C459.827,160.037 458.824,160.195 457.853,160.455C457.691,160.498 457.266,160.603 456.866,160.761C456.241,160.318 455.598,159.918 454.972,159.573C452.57,158.251 449.91,157.493 447.197,157.163C446.739,157.108 446.281,157.077 445.823,157.046C446.028,156.914 446.245,156.801 446.443,156.658C448.477,155.19 450.137,153.239 451.207,150.966C451.428,150.497 451.063,149.921 450.516,150.067C448.312,150.652 446.276,151.702 444.501,153.132C443.623,153.838 442.8,154.638 442.112,155.531C441.783,155.96 441.47,156.396 441.218,156.875C441.176,156.955 441.13,157.04 441.085,157.124C438.207,157.4 435.358,158.045 432.579,158.896C432.633,158.852 432.693,158.818 432.746,158.774C434.418,157.401 435.757,155.531 436.161,153.379C436.267,152.819 435.754,152.454 435.251,152.679C432.783,153.781 430.501,155.246 428.464,157.025C427.444,157.913 426.492,158.881 425.618,159.913C425.208,160.397 424.819,160.894 424.459,161.415C424.329,161.602 424.198,161.8 424.083,162.005C420.389,163.499 416.711,165.048 412.903,166.211C413.525,165.657 414.113,165.069 414.625,164.403C416.141,162.431 417.059,160.068 417.248,157.587C417.281,157.152 416.685,156.774 416.319,157.054C414.341,158.573 412.556,160.319 411.02,162.285C410.267,163.248 409.556,164.25 408.933,165.304C408.635,165.808 408.348,166.33 408.121,166.87C408.044,167.058 407.958,167.258 407.877,167.463C405.421,167.914 402.928,168.122 400.428,167.96C397.838,167.792 395.297,167.263 392.778,166.653C394.066,166.397 395.317,165.955 396.488,165.361C398.862,164.154 401.292,162.102 402.384,159.613C402.581,159.163 402.258,158.676 401.747,158.785C399.054,159.36 396.454,160.315 394.073,161.71C392.917,162.388 391.82,163.168 390.787,164.021C390.26,164.455 389.744,164.909 389.261,165.393C389.165,165.487 389.059,165.59 388.953,165.697C385.344,164.793 381.441,163.906 377.662,163.973C378.718,162.935 379.576,161.695 380.163,160.337C380.897,158.636 381.241,156.802 381.132,154.95C381.099,154.387 380.496,154.177 380.08,154.514C378.479,155.816 377.129,157.426 376.12,159.228C375.266,160.754 374.517,162.536 374.363,164.312C372.974,164.582 371.617,165.019 370.322,165.694C369.851,165.94 370.175,166.733 370.688,166.561C373.294,165.686 375.979,165.324 378.713,165.405C378.777,165.695 378.933,165.976 379.068,166.234C379.313,166.696 379.599,167.142 379.898,167.571C380.498,168.431 381.182,169.233 381.941,169.954C382.702,170.678 383.543,171.326 384.435,171.881C384.862,172.147 385.304,172.391 385.756,172.611C386.224,172.839 386.829,172.977 387.25,173.274C387.648,173.555 388.168,173.174 388.179,172.741C388.197,171.928 387.678,170.985 387.284,170.296C386.878,169.585 386.39,168.917 385.85,168.303C384.978,167.312 383.924,166.462 382.768,165.812C384.752,166.138 386.714,166.597 388.662,167.099C391.532,167.838 394.4,168.62 397.331,169.088C397.368,169.376 397.687,169.626 397.891,169.811C398.357,170.231 398.836,170.638 399.328,171.028C400.318,171.813 401.355,172.539 402.448,173.175C404.64,174.45 406.969,175.252 409.419,175.865C410.028,176.018 410.57,175.353 410.242,174.794C409.33,173.241 407.697,171.918 406.211,170.944C405.312,170.355 404.341,169.865 403.337,169.465C404.635,169.42 405.932,169.313 407.229,169.111C410.495,168.604 413.646,167.65 416.751,166.52C417.351,167.345 418.69,167.645 419.607,167.936C420.771,168.305 421.968,168.568 423.179,168.727C425.689,169.055 428.218,168.901 430.688,168.364C431.188,168.256 431.3,167.609 430.978,167.269C430.142,166.385 428.745,165.844 427.63,165.412C426.404,164.938 425.128,164.622 423.827,164.445C423.35,164.38 422.871,164.34 422.393,164.315C425.833,162.911 429.266,161.487 432.78,160.401C432.842,160.444 432.905,160.487 432.997,160.496C433.614,160.556 434.235,160.483 434.855,160.548C435.519,160.619 436.177,160.773 436.816,160.961C438.115,161.343 439.34,161.921 440.545,162.53C441.635,163.082 442.716,163.654 443.838,164.139C444.96,164.623 446.117,164.963 447.287,165.307C447.897,165.486 448.279,164.823 448.048,164.318C447.064,162.171 445.154,160.426 443.006,159.487C442.211,159.141 441.333,158.879 440.437,158.734C441.023,158.667 441.615,158.621 442.209,158.587C442.355,158.604 442.508,158.594 442.66,158.566C442.865,158.557 443.07,158.542 443.276,158.537C445.6,158.486 447.956,158.749 450.188,159.418C450.22,159.548 450.256,159.672 450.284,159.768C450.447,160.313 450.624,160.852 450.819,161.386C451.206,162.443 451.651,163.479 452.15,164.486C452.995,166.193 454.006,167.959 456.005,168.391C456.419,168.481 456.837,168.203 456.837,167.757C456.838,165.941 455.986,164.007 455.015,162.508C454.67,161.977 454.273,161.479 453.854,161.002C454.706,161.483 455.532,162.009 456.271,162.646C457.17,163.418 457.902,164.329 458.684,165.201C458.93,165.894 459.288,166.55 459.649,167.185C460.118,168.009 460.637,168.805 461.217,169.555C462.378,171.056 463.714,172.406 465.206,173.577C465.583,173.872 466.306,173.734 466.263,173.14C466.109,171.021 465.272,169.064 463.956,167.406C463.304,166.585 462.527,165.882 461.651,165.305C461.241,165.035 460.782,164.747 460.302,164.567C460.126,164.195 459.929,163.833 459.69,163.491C460.396,163.6 461.109,163.666 461.821,163.642C463.709,163.579 465.515,163.035 467.141,162.089Z" style="fill:rgb(47,46,53);fill-rule:nonzero;"/>
        </g>
        <g transform="matrix(4.16667,0,0,4.16667,-1502.14,-654.023)">
            <path d="M265.886,162.089C265.377,161.793 265.546,161.111 266.038,160.924C267.992,160.179 270.106,159.852 272.194,159.977C273.199,160.037 274.202,160.195 275.174,160.455C275.335,160.498 275.761,160.603 276.16,160.761C276.785,160.318 277.429,159.918 278.055,159.573C280.456,158.251 283.116,157.493 285.829,157.163C286.287,157.108 286.745,157.077 287.203,157.046C286.998,156.914 286.781,156.801 286.584,156.658C284.55,155.19 282.89,153.239 281.819,150.966C281.599,150.497 281.963,149.921 282.511,150.067C284.716,150.652 286.75,151.702 288.525,153.132C289.403,153.838 290.227,154.638 290.914,155.531C291.243,155.96 291.557,156.396 291.809,156.875C291.851,156.955 291.896,157.04 291.941,157.124C294.819,157.4 297.668,158.045 300.447,158.896C300.394,158.852 300.333,158.818 300.28,158.774C298.608,157.401 297.27,155.531 296.865,153.379C296.76,152.819 297.272,152.454 297.775,152.679C300.243,153.781 302.525,155.246 304.563,157.025C305.582,157.913 306.534,158.881 307.408,159.913C307.818,160.397 308.207,160.894 308.567,161.415C308.697,161.602 308.828,161.8 308.943,162.005C312.638,163.499 316.315,165.048 320.123,166.211C319.501,165.657 318.913,165.069 318.401,164.403C316.886,162.431 315.968,160.068 315.778,157.587C315.745,157.152 316.342,156.774 316.707,157.054C318.686,158.573 320.471,160.319 322.007,162.285C322.76,163.248 323.471,164.25 324.094,165.304C324.392,165.808 324.679,166.33 324.905,166.87C324.983,167.058 325.069,167.258 325.149,167.463C327.605,167.914 330.099,168.122 332.599,167.96C335.188,167.792 337.729,167.263 340.248,166.653C338.96,166.397 337.709,165.955 336.538,165.361C334.164,164.154 331.734,162.102 330.643,159.613C330.445,159.163 330.769,158.676 331.279,158.785C333.973,159.36 336.572,160.315 338.953,161.71C340.109,162.388 341.206,163.168 342.239,164.021C342.767,164.455 343.282,164.909 343.766,165.393C343.861,165.487 343.968,165.59 344.073,165.697C347.683,164.793 351.585,163.906 355.364,163.973C354.309,162.935 353.45,161.695 352.863,160.337C352.129,158.636 351.785,156.802 351.895,154.95C351.928,154.387 352.53,154.177 352.946,154.514C354.549,155.816 355.897,157.426 356.906,159.228C357.761,160.754 358.51,162.536 358.663,164.312C360.053,164.582 361.409,165.019 362.704,165.694C363.176,165.94 362.852,166.733 362.339,166.561C359.732,165.686 357.047,165.324 354.313,165.405C354.249,165.695 354.094,165.976 353.958,166.234C353.714,166.696 353.428,167.142 353.128,167.571C352.528,168.431 351.845,169.233 351.085,169.954C350.324,170.678 349.483,171.326 348.592,171.881C348.164,172.147 347.723,172.391 347.271,172.611C346.803,172.839 346.197,172.977 345.776,173.274C345.378,173.555 344.858,173.174 344.849,172.741C344.83,171.928 345.349,170.985 345.742,170.296C346.148,169.585 346.637,168.917 347.177,168.303C348.049,167.312 349.103,166.462 350.259,165.812C348.274,166.138 346.313,166.597 344.364,167.099C341.494,167.838 338.626,168.62 335.695,169.088C335.658,169.376 335.34,169.626 335.136,169.811C334.67,170.231 334.19,170.638 333.698,171.028C332.708,171.813 331.671,172.539 330.578,173.175C328.387,174.45 326.058,175.252 323.607,175.865C322.998,176.018 322.456,175.353 322.784,174.794C323.697,173.241 325.329,171.918 326.816,170.944C327.715,170.355 328.686,169.865 329.689,169.465C328.392,169.42 327.095,169.313 325.797,169.111C322.531,168.604 319.38,167.65 316.275,166.52C315.676,167.345 314.336,167.645 313.419,167.936C312.255,168.305 311.059,168.568 309.848,168.727C307.337,169.055 304.809,168.901 302.338,168.364C301.839,168.256 301.727,167.609 302.049,167.269C302.885,166.385 304.281,165.844 305.396,165.412C306.622,164.938 307.898,164.622 309.199,164.445C309.678,164.38 310.155,164.34 310.634,164.315C307.193,162.911 303.761,161.487 300.246,160.401C300.185,160.444 300.121,160.487 300.029,160.496C299.412,160.556 298.791,160.483 298.171,160.548C297.508,160.619 296.85,160.773 296.21,160.961C294.911,161.343 293.687,161.921 292.481,162.53C291.392,163.082 290.311,163.654 289.188,164.139C288.066,164.623 286.909,164.963 285.739,165.307C285.129,165.486 284.747,164.823 284.979,164.318C285.962,162.171 287.872,160.426 290.021,159.487C290.815,159.141 291.693,158.879 292.59,158.734C292.003,158.667 291.411,158.621 290.817,158.587C290.671,158.604 290.519,158.594 290.366,158.566C290.161,158.557 289.957,158.542 289.75,158.537C287.427,158.486 285.07,158.749 282.838,159.418C282.807,159.548 282.771,159.672 282.742,159.768C282.579,160.313 282.402,160.852 282.207,161.386C281.82,162.443 281.376,163.479 280.876,164.486C280.031,166.193 279.021,167.959 277.021,168.391C276.607,168.481 276.189,168.203 276.189,167.757C276.188,165.941 277.04,164.007 278.012,162.508C278.356,161.977 278.753,161.479 279.173,161.002C278.321,161.483 277.494,162.009 276.755,162.646C275.856,163.418 275.124,164.329 274.343,165.201C274.097,165.894 273.739,166.55 273.377,167.185C272.908,168.009 272.39,168.805 271.81,169.555C270.648,171.056 269.313,172.406 267.82,173.577C267.444,173.872 266.721,173.734 266.764,173.14C266.917,171.021 267.754,169.064 269.07,167.406C269.723,166.585 270.499,165.882 271.375,165.305C271.785,165.035 272.244,164.747 272.725,164.567C272.9,164.195 273.098,163.833 273.336,163.491C272.631,163.6 271.917,163.666 271.205,163.642C269.317,163.579 267.512,163.035 265.886,162.089Z" style="fill:rgb(47,46,53);fill-rule:nonzero;"/>
        </g>
        <g transform="matrix(4.16667,0,0,4.16667,-1502.14,-654.023)">
            <path d="M368.444,165.646C368.19,165.297 367.879,165.059 367.474,164.907C367.246,164.823 367.009,164.809 366.771,164.818C366.483,164.791 366.188,164.808 365.933,164.908C365.458,165.094 365.065,165.388 364.791,165.823C364.678,166.002 364.587,166.214 364.548,166.423C364.491,166.726 364.495,166.956 364.543,167.257C364.607,167.67 364.837,168.037 365.103,168.35C365.371,168.667 365.734,168.879 366.117,169.027C366.492,169.172 366.938,169.188 367.321,169.061C368.031,168.825 368.544,168.244 368.726,167.523C368.882,166.903 368.832,166.178 368.444,165.646Z" style="fill:rgb(47,46,53);fill-rule:nonzero;"/>
        </g>
    </g>
</svg>
