<?xml version="1.0" encoding="UTF-8"?>
<!DOCTYPE svg  PUBLIC '-//W3C//DTD SVG 1.1//EN'  'http://www.w3.org/Graphics/SVG/1.1/DTD/svg11.dtd'>
<svg clip-rule="evenodd" fill-rule="evenodd" stroke-linejoin="round" stroke-miterlimit="2" version="1.1" viewBox="0 0 232 358" xml:space="preserve" xmlns="http://www.w3.org/2000/svg" xmlnsSerif="http://www.serif.com/">
    <g transform="translate(-428.19 -121.2)">
        <g transform="matrix(3.5663 0 0 3.5663 201.54 -1348.1)">
            <g transform="matrix(.77191 0 0 .77191 21.847 97.298)">
                <g transform="matrix(.28776 0 0 .28776 53.381 416.64)" serifId="Laurel_Wreath_(6): Layer 2">
                    <clipPath id="a">
                        <path d="m0 0h297v305.59h-297v-305.59z"/>
                    </clipPath>
                    <g clip-path="url(#a)">
                                <path d="m145.42 12.284c-0.606 1.212-1.213 4-1.576 6.061-0.606 4.97-2.667 5.212-2.667 0.363 0-4.121-2.303-4.97-3.273-1.212-0.727 2.91-3.152 2.546-3.758-0.363-0.485-2.182 6.304-6.91 9.94-6.91 1.576 0 1.94 0.485 1.334 2.061z" fill="#e8e5e4" fill-rule="nonzero"/>
                                <path d="m159.24 14.344c0.606 1.455 1.333 4.122 1.818 5.94l0.849 3.395-4.97-3.152c-6.061-3.758-6.667-1.212-0.728 2.788 3.758 2.546 6.183 6.546 4.728 8.001-0.364 0.363-2.182-0.485-4-1.94-1.819-1.333-5.213-2.546-7.395-2.667-4-0.242-4.121-0.363-3.758-4.849 0.728-8.728 2.061-10.425 7.637-10.182 3.758 0.121 5.213 0.727 5.819 2.666z" fill="#e8e5e4" fill-rule="nonzero"/>
                                <path d="m132.45 22.345c7.273 4.485 4.606 5.819-5.455 2.909-1.697-0.484-2.788-0.242-2.788 0.485 0 0.728 0.969 1.576 2.182 1.819 6.061 1.697 8.607 1.939 9.334 0.97 0.97-1.698 8.485 1.697 8.485 3.757 0 1.091-2.424 1.698-8.849 1.94-7.394 0.242-9.334 0-12.001-2.182-1.697-1.333-4.728-2.424-6.546-2.424-4.121 0-4.849-3.273-1.333-6.304 4.485-4 11.273-4.364 16.971-0.97z" fill="#e8e5e4" fill-rule="nonzero"/>
                                <path d="m155 30.71c1.212 1.939-0.606 4.97-3.03 4.97-1.334 0-2.667-0.849-3.152-1.94-1.091-2.909 4.606-5.697 6.182-3.03z" fill="#e8e5e4" fill-rule="nonzero"/><path d="m168.58 16.042c-0.364 0.606 3.152 5.091 7.758 9.94 4.607 4.849 8.122 9.213 7.759 9.819-0.364 0.606 0.727 1.091 2.424 1.091s3.152-0.485 3.152-1.091c0-0.97-19.153-20.729-20.123-20.729-0.121 0-0.606 0.485-0.97 0.97z" fill-rule="nonzero"/>
                                <path d="m95.72 27.679c-2.666 2.667-5.939 5.576-7.273 6.304-1.333 0.848-2.061 1.697-1.697 2.182 1.091 1.091 11.759-5.092 13.819-8.122 1.94-2.789 2.425-5.819 0.97-5.577-0.606 0.122-3.152 2.425-5.819 5.213z" fill-rule="nonzero"/>
                                <path d="m71.112 30.831c-3.758 4.97-3.515 14.546 0.485 14.546 2.061 0 1.713-5.1 0.016-7.039-0.728-0.97 2.045-5.81 2.893-7.992 1.576-4.243-0.121-4-3.394 0.485z" fill-rule="nonzero"/>
                                <path d="m165.42 46.832c0 1.576 2.91 2.425 6.91 1.94 3.031-0.364 2.909-0.485-1.818-1.697-2.788-0.728-5.092-0.849-5.092-0.243z" fill-rule="nonzero"/>
                                <path d="m50.262 55.196c-0.727 1.334-1.212 3.395-0.97 4.486 0.364 1.576 0.97 1.091 2.546-1.819 2.424-4.485 2.546-5.212 0.848-5.212-0.606 0-1.697 1.091-2.424 2.545z" fill-rule="nonzero"/>
                                <path d="m43.716 64.652c-0.485 0.848-0.606 1.818-0.242 2.182 1.091 1.091 2.303-0.485 1.697-2.182-0.485-1.334-0.728-1.334-1.455 0z" fill-rule="nonzero"/>
                                <path d="m78.386 57.5c-2.667 1.939-6.304 3.879-8.001 4.364-4 0.969-4 2.424 0 3.394 3.637 0.97 8.97-1.94 8.97-4.849 0-0.97 1.94-2.667 4.243-3.637 4.728-1.939 5.334-2.909 2.061-2.909-1.333 0-4.485 1.576-7.273 3.637z" fill-rule="nonzero"/>
                                <path d="m197.55 58.712c-0.363 0.606-0.121 1.212 0.728 1.212 0.848 0 3.515 1.334 5.94 3.031 2.424 1.697 6.909 3.394 10.061 3.758 4.97 0.727 5.697 0.606 4.97-1.213-0.485-1.212-2.182-1.939-4.849-1.939-2.303 0-5.697-1.091-7.516-2.303-4.242-3.031-8.364-4.122-9.334-2.546z" fill-rule="nonzero"/>
                                <path d="m221.79 76.895c-0.364 0.606-0.121 1.212 0.485 1.212 0.727 0 1.333-0.606 1.333-1.212 0-0.727-0.242-1.212-0.485-1.212-0.363 0-0.97 0.485-1.333 1.212z" fill-rule="nonzero"/>
                                <path d="m234.52 99.2c0 0.364 1.091 2.425 2.546 4.849 2.909 5.091 8.122 8.728 9.819 7.031 0.727-0.727 0-1.94-2.303-3.273-1.94-1.091-4.364-3.637-5.455-5.576-1.697-2.91-4.607-4.849-4.607-3.031z" fill-rule="nonzero"/>
                                <path d="m27.957 119.44c-0.364 2.061-0.606 6.91-0.606 10.668l0.121 6.788 1.94-9.455c1.333-6.546 1.454-9.819 0.606-10.668-0.849-0.848-1.455 0-2.061 2.667z" fill-rule="nonzero"/>
                                <path d="m30.624 134.84c-0.606 4.242 0 6.303 1.94 6.303 0.848 0 1.212-1.697 0.969-4.849-0.606-5.576-2.182-6.424-2.909-1.454z" fill-rule="nonzero"/>
                                <path d="m252.82 131.2c-0.121 6.061 5.697 24.487 7.879 24.487 3.394 0 4.607-3.637 3.031-8.849-0.849-2.788-1.819-6.546-2.182-8.486-0.364-1.818-1.091-3.273-1.697-3.273-1.576 0-1.334 3.879 0.727 9.698 2.424 6.91 2.303 8.122-0.606 5.455-2.788-2.546-4.97-8.607-6.061-17.577-0.849-6.425-0.849-6.546-1.091-1.455z" fill-rule="nonzero"/>
                                <path d="m41.292 150.72c-0.485 0.848-0.607 1.818-0.243 2.182 1.091 1.091 2.303-0.485 1.697-2.182-0.485-1.334-0.727-1.334-1.454 0z" fill-rule="nonzero"/>
                                <path d="m38.503 158.72c-1.091 3.031 0.485 3.516 2.061 0.728 0.849-1.819 0.849-2.546 0-2.546-0.727 0-1.576 0.849-2.061 1.818z" fill-rule="nonzero"/>
                                <path d="m275.86 161.75c-1.576 3.394-1.818 4.849-0.848 4.849 0.848 0 2.424-1.94 3.515-4.243 2.424-4.97 2.424-5.455 0.849-5.455-0.607 0-2.182 2.182-3.516 4.849z" fill-rule="nonzero"/>
                                <path d="m244.22 176.54c0 1.576 0.606 3.637 1.212 4.607 0.849 1.333 1.212 0.606 1.212-2.788 0-2.425-0.484-4.486-1.212-4.486-0.606 0-1.212 1.213-1.212 2.667z" fill-rule="nonzero"/>
                                <path d="m251.98 183.81c1.091 9.819 3.152 16.001 4.607 14.546 0.848-0.848 0.606-3.03-0.728-7.031-1.091-3.151-1.939-7.637-1.939-9.819s-0.606-4-1.334-4c-0.969 0-1.212 1.94-0.606 6.304z" fill-rule="nonzero"/>
                                <path d="m246.28 191.57c-0.728 4.606 0.848 8.364 2.909 7.031 1.212-0.728 0.243-8.971-1.333-10.547-0.485-0.606-1.213 1.091-1.576 3.516z" fill-rule="nonzero"/>
                                <path d="m16.32 181.15c0 1.212 7.031 6.061 8.849 6.061 2.061 0 0.606-1.94-3.394-4.607-4.728-3.03-5.455-3.151-5.455-1.454z" fill-rule="nonzero"/>
                                <path d="m272.95 186.36c-6.91 7.274-8.001 9.456-3.637 7.031 3.031-1.576 12.486-11.758 12.486-13.456 0-2.182-1.697-0.969-8.849 6.425z" fill-rule="nonzero"/>
                                <path d="m234.16 200.78c-0.243 3.515-0.97 7.637-1.455 9.091-0.485 1.697-0.364 2.788 0.363 2.788 1.698 0 3.88-6.788 3.88-12.243 0-7.031-2.182-6.788-2.788 0.364z" fill-rule="nonzero"/>
                                <path d="m216.82 218.24c-0.364 1.212-1.213 3.515-1.819 5.091-1.333 3.516-1.454 6.667 0 5.819 1.334-0.849 4.243-11.516 3.395-12.486-0.485-0.364-1.091 0.364-1.576 1.576z" fill-rule="nonzero"/>
                                <path d="m30.866 216.91c0 1.455 6.546 4.243 10.062 4.243 2.546 0 0.242-2.424-4-4.121-5.94-2.425-6.062-2.425-6.062-0.122z" fill-rule="nonzero"/>
                                <path d="m231.37 228.67c-1.697 3.515-4 7.394-5.091 8.485-1.091 1.334-1.212 2.182-0.485 2.182 1.576 0 6.425-6.303 9.213-12.001 2.303-4.848 2.303-4.97 0.727-4.97-0.606 0-2.667 2.91-4.364 6.304z" fill-rule="nonzero"/>
                                <path d="m230.76 239.09c-3.03 3.152-6.909 6.546-8.485 7.637-1.576 1.212-2.546 2.424-2.061 2.909 0.849 0.849 14.183-9.455 15.88-12.364 2.546-4.364-0.364-3.395-5.334 1.818z" fill-rule="nonzero"/>
                                <path d="m219.37 243.58c-1.939 1.697-3.03 3.031-2.303 3.031s2.546-1.334 4.122-3.031c3.636-3.879 2.909-3.758-1.819 0z" fill-rule="nonzero"/>
                                <path d="m200.34 227.94c-0.606 0.485-0.969 1.94-0.969 3.395 0 1.697 0.363 2.061 1.333 1.091 0.727-0.728 1.091-2.303 0.849-3.394-0.122-1.092-0.728-1.576-1.213-1.092z" fill-rule="nonzero"/>
                                <path d="m194.52 233.27c0 0.606 0.606 1.213 1.212 1.213 0.727 0 1.212-0.607 1.212-1.213 0-0.727-0.485-1.212-1.212-1.212-0.606 0-1.212 0.485-1.212 1.212z" fill-rule="nonzero"/>
                                <path d="m203 258.73c0 0.606 0.606 1.212 1.334 1.212 0.848 0 3.03 1.576 4.97 3.637 1.818 1.94 4.364 3.637 5.576 3.637 1.455 0 0.606-1.455-3.03-4.849-4.849-4.607-8.85-6.304-8.85-3.637z" fill-rule="nonzero"/>
                    </g>
                </g>
                <g transform="matrix(.30268 0 0 .30268 -1221.2 -106.89)">
                    <path d="m4318.4 1901.6v-84.85l-6.26-15.37c0.76-4.18 1.7-8.16 2.84-11.96 0.76-3.03 1.52-5.98 2.28-8.82 0.76-2.85 1.14-5.03 1.14-6.55 0-7.59-0.57-13.57-1.71-17.93-1.14-4.37-2.66-7.88-4.55-10.54-1.9-1.89-3.99-3.13-6.27-3.7-2.27-0.57-4.65-0.95-7.11-1.14-2.47-0.18-5.03-0.47-7.69-0.85s-5.12-1.14-7.4-2.28c-2.28-1.51-4.18-3.98-5.69-7.4-1.52-3.41-2.28-8.73-2.28-15.94 0-1.52 0.19-3.04 0.57-4.55 0.38-1.14 0.85-2.28 1.42-3.42s1.61-1.71 3.13-1.71h31.32c1.51 0 3.32 0.19 5.41 0.57 2.08 0.38 4.08 0.95 5.97 1.71 1.9 0.76 3.99 1.52 6.26 2.28 2.28 0 5.13-0.19 8.54-0.57 3.42-0.38 6.65-0.95 9.68-1.71 3.8-0.76 7.78-1.52 11.96-2.28h6.26c1.52 0 3.42-0.76 5.7-2.28l2.27-2.27c1.14 0 3.04 0.28 5.7 0.85 2.65 0.57 5.5 1.14 8.54 1.71 3.03 0.57 5.97 1.04 8.82 1.42s5.03 0.57 6.55 0.57c0.76 0 2.09 0.76 3.98 2.28 1.9 1.52 3.7 3.42 5.41 5.69 1.71 2.28 3.23 4.84 4.56 7.69s1.99 5.6 1.99 8.25c0 1.52-2.28 2.85-6.83 3.99-4.56 1.14-9.68 2.28-15.37 3.42-5.7 1.13-10.82 2.46-15.38 3.98-4.55 1.52-6.83 3.42-6.83 5.69v39.86c0.76 3.03 1.71 5.88 2.85 8.54 0.76 2.28 1.52 4.55 2.28 6.83s1.14 3.99 1.14 5.12l-6.27 26.76c0 1.14 0.29 3.23 0.86 6.26 0.57 3.04 1.33 6.27 2.27 9.68 0.95 3.42 1.71 6.65 2.28 9.68 0.57 3.04 0.86 5.13 0.86 6.27l5.12 28.46c0 2.93-0.12 5.78-0.35 8.56h-67.97z" fill-rule="nonzero"/>
                </g>
            </g>
            <g transform="matrix(.24 0 0 .24 -1011.9 -66.912)" fill-rule="nonzero">
                <path d="m4508 2363.4c0.16 0 0.44 0.04 0.83 0.12 0.39 0.09 0.81 0.17 1.25 0.25 0.45 0.09 0.88 0.15 1.29 0.21 0.42 0.06 0.74 0.08 0.96 0.08 0.11 0 0.31 0.11 0.58 0.34 0.28 0.22 0.55 0.5 0.8 0.83s0.47 0.71 0.66 1.13c0.2 0.41 0.29 0.81 0.29 1.2 0 0.23-0.33 0.42-1 0.59-0.66 0.16-1.41 0.33-2.25 0.5-0.83 0.16-1.58 0.36-2.25 0.58-0.66 0.22-1 0.5-1 0.83v5.84c0.12 0.44 0.25 0.86 0.42 1.25 0.11 0.33 0.22 0.66 0.33 1 0.12 0.33 0.17 0.58 0.17 0.75l-0.92 3.91c0 0.17 0.05 0.48 0.13 0.92s0.19 0.92 0.33 1.42 0.25 0.97 0.34 1.41c0.08 0.45 0.12 0.75 0.12 0.92l0.75 4.17c0 1.16-0.12 2.25-0.37 3.25s-0.38 1.69-0.38 2.08v2.33c0 0.34-0.15 0.63-0.46 0.88-0.3 0.25-0.46 0.96-0.46 2.12 0 0.23 0.09 0.49 0.25 0.8 0.17 0.3 0.38 0.58 0.63 0.83s0.51 0.46 0.79 0.62c0.28 0.17 0.5 0.25 0.67 0.25l1.83 0.5c1.56 0.73 2.33 1.89 2.33 3.5 0 0.67-0.45 1.21-1.37 1.63s-1.85 0.62-2.79 0.62h-4.59l-3.08-0.91c-0.33 0-0.8 0.08-1.42 0.25-0.61 0.16-1.25 0.36-1.91 0.58-0.67 0.22-1.28 0.42-1.84 0.58-0.55 0.17-0.91 0.25-1.08 0.25-0.33 0-0.79-0.18-1.37-0.54-0.59-0.36-0.88-0.73-0.88-1.12 0-0.61 0.32-1.16 0.96-1.63s1.33-0.94 2.08-1.41c0.75-0.48 1.39-0.99 1.92-1.55 0.53-0.55 0.71-1.25 0.54-2.08-0.44-0.83-0.55-1.46-0.33-1.87 0.22-0.42 0.33-0.82 0.33-1.21v-19.92l-0.92-2.25c0.12-0.61 0.25-1.19 0.42-1.75 0.11-0.44 0.22-0.87 0.33-1.29 0.12-0.42 0.17-0.74 0.17-0.96 0-1.11-0.08-1.99-0.25-2.62-0.17-0.64-0.39-1.16-0.67-1.55-0.27-0.27-0.58-0.45-0.91-0.54-0.34-0.08-0.68-0.14-1.04-0.16-0.36-0.03-0.74-0.07-1.13-0.13s-0.75-0.17-1.08-0.33c-0.34-0.23-0.61-0.59-0.84-1.09-0.22-0.5-0.33-1.27-0.33-2.33 0-0.22 0.03-0.44 0.08-0.67 0.06-0.16 0.13-0.33 0.21-0.5 0.09-0.16 0.24-0.25 0.46-0.25h4.58c0.23 0 0.49 0.03 0.8 0.09 0.3 0.05 0.59 0.14 0.87 0.25s0.58 0.22 0.92 0.33c0.33 0 0.75-0.03 1.25-0.08 0.5-0.06 0.97-0.14 1.41-0.25 0.56-0.11 1.14-0.23 1.75-0.34h0.92c0.22 0 0.5-0.11 0.83-0.33l0.34-0.33z"/>
                <path d="m4531.8 2371.8c0.61 0 1.08 0.19 1.42 0.58 0.33 0.39 0.64 0.81 0.91 1.25 0.17 0.39 0.23 0.92 0.17 1.59-0.05 0.66-0.15 1.33-0.29 2-0.14 0.66-0.28 1.3-0.42 1.91s-0.21 1.03-0.21 1.25l0.25 1.34 0.92 1.66c0.22 0 0.65-0.32 1.29-0.95 0.64-0.64 1.39-1.44 2.25-2.38s1.77-1.96 2.71-3.04c0.95-1.08 1.86-2.1 2.75-3.04 0.89-0.95 1.7-1.74 2.42-2.38s1.25-0.96 1.58-0.96c0.45 0 0.82 0.28 1.13 0.84 0.3 0.55 0.59 1.14 0.87 1.75 0.28 0.72 0.53 1.55 0.75 2.5 0.06 0.77 0 1.86-0.17 3.25-0.16 1.39-0.43 2.9-0.79 4.54s-0.75 3.3-1.16 5c-0.42 1.69-0.81 3.25-1.17 4.67-0.36 1.41-0.67 2.59-0.92 3.54-0.25 0.94-0.37 1.44-0.37 1.5 0 0.22-0.03 0.48-0.09 0.79-0.05 0.3-0.08 0.58-0.08 0.83s0.07 0.46 0.21 0.63c0.14 0.16 0.43 0.25 0.87 0.25 0.34-0.23 0.67-0.45 1-0.67 0.28-0.22 0.59-0.44 0.92-0.67 0.33-0.22 0.7-0.47 1.08-0.75 0.95-0.61 1.82-1.18 2.63-1.7 0.81-0.53 1.32-0.8 1.54-0.8 0.33 0 0.7 0.18 1.08 0.55 0.39 0.36 0.59 0.7 0.59 1.04 0 0.11-0.18 0.41-0.54 0.91s-0.8 1.03-1.3 1.59c-0.5 0.55-1 1.05-1.5 1.5-0.5 0.44-0.86 0.66-1.08 0.66 0 0.45-0.15 0.86-0.46 1.25-0.3 0.39-0.62 0.59-0.96 0.59-0.88 0.94-1.63 1.86-2.25 2.75-0.61 0.89-1.22 1.71-1.83 2.46s-1.28 1.34-2 1.79c-0.72 0.44-1.64 0.66-2.75 0.66-0.39 0-0.79-0.14-1.21-0.41-0.41-0.28-0.79-0.63-1.12-1.04-0.34-0.42-0.6-0.87-0.79-1.34-0.2-0.47-0.3-0.87-0.3-1.21l-0.25-3c0.34-1.5 0.77-3.11 1.3-4.83 0.52-1.72 1.01-3.33 1.45-4.83 0.45-1.28 0.81-2.5 1.09-3.67s0.47-2.28 0.58-3.33v-0.92c-0.22-1.56-0.78-2.33-1.67-2.33-1.33 0-2.38 0.29-3.16 0.87-0.78 0.59-1.42 1.34-1.92 2.25-0.5 0.92-0.93 1.9-1.29 2.96s-0.76 2.06-1.21 3c-0.28 0.33-0.46 0.65-0.54 0.96-0.08 0.3-0.07 0.68 0.04 1.12-0.11 0.67-0.23 1.34-0.37 2-0.14 0.67-0.32 1.31-0.55 1.92-0.61 1.78-1.19 3.54-1.75 5.29-0.55 1.75-1.05 3.38-1.5 4.88 0.28 0.44 0.24 0.71-0.12 0.79s-0.71 0.12-1.04 0.12c-0.34 0-0.81-0.01-1.42-0.04s-1.21-0.12-1.79-0.29-1.11-0.42-1.58-0.75c-0.48-0.33-0.74-0.81-0.8-1.42-0.11-0.94 0-1.93 0.34-2.95 0.33-1.03 0.71-1.99 1.12-2.88 0.42-0.89 0.82-1.67 1.21-2.33 0.39-0.67 0.58-1.11 0.58-1.34v-3l-0.41-1.41c0-0.34 0.11-0.77 0.33-1.29 0.22-0.53 0.46-1.06 0.71-1.59s0.49-1.01 0.71-1.46c0.22-0.44 0.33-0.77 0.33-1v-1.16l-0.25-3.25c0-0.34-0.04-0.68-0.12-1.04-0.09-0.37-0.35-0.55-0.8-0.55-0.33 0-0.7 0.09-1.12 0.25-0.42 0.17-0.83 0.35-1.25 0.55-0.42 0.19-0.81 0.37-1.17 0.54-0.36 0.16-0.65 0.25-0.87 0.25h-0.67c-0.39-0.23-0.48-0.66-0.29-1.29 0.19-0.64 0.29-1.13 0.29-1.46 1.39-1.95 2.74-3.66 4.04-5.13 1.31-1.47 2.88-2.79 4.71-3.96 0.39-0.22 0.92-0.5 1.58-0.83 0.67-0.33 1.31-0.5 1.92-0.5z"/>
                <path d="m4574.9 2358.4c0.5 0 0.99 0.02 1.46 0.05 0.48 0.02 0.92 0.11 1.34 0.25 0.41 0.13 0.75 0.36 1 0.66 0.25 0.31 0.37 0.74 0.37 1.29 0 0.34-0.39 0.96-1.17 1.88-0.77 0.92-1.62 1.92-2.54 3-0.91 1.08-1.76 2.14-2.54 3.17-0.78 1.02-1.17 1.81-1.17 2.37 0 0.44 0.13 0.78 0.38 1s0.54 0.38 0.87 0.46c0.34 0.08 0.69 0.14 1.05 0.17 0.36 0.02 0.62 0.04 0.79 0.04h2.75c0.11-0.11 0.28-0.25 0.5-0.42 0.44-0.33 0.8-0.5 1.08-0.5 0.83 0 1.43 0.33 1.79 1s0.54 1.42 0.54 2.25v2.25c0 0.61-0.33 1.08-1 1.42-0.66 0.33-1.4 0.58-2.2 0.75-0.81 0.16-1.59 0.27-2.34 0.33s-1.21 0.08-1.37 0.08c-0.84 0-1.31-0.04-1.42-0.12s-0.33-0.13-0.67-0.13h-1.66c-0.34 0-0.81 0.17-1.42 0.5-0.61 0.34-0.92 0.73-0.92 1.17 0 0.61-0.02 1.15-0.08 1.63-0.05 0.47-0.11 0.87-0.17 1.2-0.05 0.39-0.11 0.75-0.16 1.09-0.17 0.33-0.34 0.64-0.5 0.91-0.28 0.56-0.42 1.03-0.42 1.42v0.92c0 0.94-0.14 1.97-0.42 3.08-0.27 1.11-0.52 1.78-0.75 2-0.27 0.28-0.5 0.54-0.66 0.79-0.17 0.25-0.25 0.9-0.25 1.96v1.67c0 0.33 0.05 0.73 0.16 1.21 0.12 0.47 0.31 0.9 0.59 1.29s0.61 0.72 1 1c0.39 0.27 0.89 0.41 1.5 0.41 0.72 0 1.33-0.19 1.83-0.58 0.22-0.17 0.45-0.36 0.67-0.58 0.44 0 0.79 0.12 1.04 0.37s0.49 0.52 0.71 0.79c0.22 0.34 0.41 0.73 0.58 1.17 0 0.44-0.18 1.03-0.54 1.75s-0.79 1.43-1.29 2.13c-0.5 0.69-1.03 1.3-1.59 1.83-0.55 0.53-1.02 0.79-1.41 0.79s-0.77 0.32-1.13 0.96-0.54 1.1-0.54 1.37c-0.17 0-0.47 0.06-0.92 0.17-0.44 0.11-0.88 0.22-1.33 0.33-0.55 0.17-1.11 0.31-1.67 0.42-0.72 0-1.29-0.04-1.7-0.12-0.42-0.09-0.63-0.35-0.63-0.8-0.17-0.11-0.42-0.51-0.75-1.2-0.33-0.7-0.67-1.46-1-2.3-0.33-0.83-0.62-1.65-0.87-2.45-0.25-0.81-0.38-1.38-0.38-1.71v-3.92c0-0.22 0.07-0.74 0.21-1.54 0.14-0.81 0.31-1.7 0.5-2.67s0.36-1.94 0.5-2.91c0.14-0.98 0.21-1.77 0.21-2.38v-1.42c0.44-1.27 0.86-2.41 1.25-3.41 0.28-0.89 0.55-1.71 0.83-2.46s0.42-1.18 0.42-1.29v-2.59c0-0.72-0.22-1.16-0.67-1.33-0.33-0.28-0.69-0.56-1.08-0.83-0.39-0.28-0.59-0.64-0.59-1.09 0-0.33 0.13-0.68 0.38-1.04s0.56-0.73 0.92-1.12 0.72-0.79 1.08-1.21 0.65-0.82 0.87-1.21c0.39-0.83 0.77-1.35 1.13-1.54 0.36-0.2 0.76-0.46 1.21-0.79 0.72-0.84 1.5-1.53 2.33-2.09 0.83-0.55 1.61-1.41 2.33-2.58 0.45-0.78 0.78-1.56 1-2.33 0.23-0.78 0.73-1.39 1.5-1.84 0.73-0.22 1.37-0.65 1.92-1.29 0.56-0.64 1-0.96 1.33-0.96z"/>
                <path d="m4592.5 2371.3c0.5 0 0.86 0.28 1.08 0.83 0.22 0.56 0.33 1.06 0.33 1.5-1 3.5-1.88 6.7-2.66 9.59-0.34 1.22-0.67 2.43-1 3.62-0.34 1.2-0.63 2.29-0.88 3.29s-0.44 1.85-0.58 2.55c-0.14 0.69-0.21 1.15-0.21 1.37 0 0.39-0.07 1.03-0.21 1.92s-0.14 1.71 0 2.46 0.5 1.25 1.09 1.5c0.58 0.25 1.59-0.1 3.04-1.05 0.11-0.27 0.47-0.64 1.08-1.08s1.28-1 2-1.67c0.45-0.44 0.72-0.9 0.83-1.37 0.12-0.47 0.28-0.71 0.5-0.71 0-0.44 0.2-0.86 0.59-1.25s0.58-0.75 0.58-1.08c0.11-0.39 0.42-1.11 0.92-2.17s1.05-2.33 1.66-3.83c0.5-1.06 0.98-2.2 1.42-3.42 0.45-1.22 0.83-2.42 1.17-3.58 0.33-1.17 0.6-2.24 0.79-3.21s0.29-1.77 0.29-2.38 0.14-1.08 0.42-1.41c0.28-0.34 0.62-0.59 1.04-0.75 0.42-0.17 0.85-0.27 1.29-0.29 0.45-0.03 0.83-0.05 1.17-0.05h1.91c0.67 0 1.21 0.34 1.63 1 0.42 0.67 0.62 1.42 0.62 2.25 0 0.17-0.06 0.68-0.2 1.55-0.14 0.86-0.31 1.84-0.5 2.95-0.2 1.11-0.43 2.25-0.71 3.42s-0.56 2.14-0.84 2.92c-1.16 2.5-2.3 4.98-3.41 7.46-1.11 2.47-1.67 4.87-1.67 7.2 0 0.28 0.11 0.59 0.33 0.92 0.12 0.17 0.23 0.31 0.34 0.42 0.72 0 1.46-0.23 2.21-0.67s1.41-0.92 2-1.42c0.58-0.5 1.09-0.97 1.54-1.41 0.44-0.45 0.75-0.67 0.91-0.67 0.17 0 0.35 0.08 0.55 0.25 0.19 0.17 0.37 0.33 0.54 0.5 0.22 0.22 0.41 0.44 0.58 0.67 0 0.22-0.26 0.76-0.79 1.62s-1.14 1.78-1.83 2.75c-0.7 0.97-1.36 1.88-2 2.71s-1.05 1.33-1.21 1.5c-0.56 0.39-1.04 0.74-1.46 1.04-0.42 0.31-0.79 0.61-1.13 0.92-0.33 0.3-0.68 0.67-1.04 1.08-0.36 0.42-0.76 0.93-1.21 1.54-0.72 0.73-1.47 1.23-2.25 1.5-0.77 0.28-1.58 0.42-2.41 0.42-0.39 0-0.77-0.12-1.13-0.37s-0.68-0.56-0.96-0.92c-0.27-0.36-0.5-0.75-0.66-1.17-0.17-0.41-0.25-0.76-0.25-1.04v-2.33c0.22-0.67 0.44-1.34 0.66-2 0.17-0.56 0.34-1.14 0.5-1.75 0.17-0.61 0.25-1.14 0.25-1.59 0-0.33-0.04-0.68-0.12-1.04s-0.35-0.54-0.79-0.54c-0.34 0-0.72 0.21-1.17 0.63-0.44 0.41-0.89 0.88-1.33 1.41-0.45 0.53-0.86 1.04-1.25 1.54s-0.7 0.84-0.92 1c-0.33 0.45-0.94 1.13-1.83 2.05-0.89 0.91-1.84 1.83-2.84 2.75-1 0.91-1.95 1.73-2.87 2.45-0.92 0.73-1.57 1.09-1.96 1.09-0.33 0-0.67-0.16-1-0.46-0.33-0.31-0.62-0.67-0.87-1.08-0.25-0.42-0.46-0.84-0.63-1.25-0.17-0.42-0.25-0.71-0.25-0.88v-2.33c0-0.45 0.03-0.89 0.08-1.34 0.06-0.39 0.1-0.77 0.13-1.16s0.04-0.73 0.04-1c0-0.34 0.07-0.79 0.21-1.38 0.14-0.58 0.21-1.26 0.21-2.04 0-0.72 0.1-1.47 0.29-2.25s0.35-1.36 0.46-1.75l0.66-3.17c0.12-0.39 0.41-1.05 0.88-2 0.47-0.94 0.71-2.22 0.71-3.83 0-0.78 0.03-1.32 0.08-1.62 0.06-0.31-0.28-0.46-1-0.46-0.33 0-0.68 0.05-1.04 0.16s-0.85 0.28-1.46 0.5c-0.44 0.28-0.89 0.5-1.33 0.67-0.45 0.17-0.78 0.25-1 0.25-0.34 0-0.7-0.21-1.09-0.62-0.38-0.42-0.58-0.96-0.58-1.63s0.17-1.18 0.5-1.54 0.74-0.67 1.21-0.92 0.93-0.5 1.37-0.75c0.45-0.25 0.75-0.57 0.92-0.96 0.72-0.55 1.58-1.34 2.58-2.37s2.03-2.04 3.09-3.04c1.05-1 2.07-1.86 3.04-2.59 0.97-0.72 1.85-1.08 2.62-1.08h1.59z"/>
                <path d="m4625.9 2370.4c0.95 0 1.73 0.35 2.34 1.05 0.61 0.69 0.91 1.43 0.91 2.2l-0.75 2.34c0.34 0.33 0.56 0.8 0.67 1.41 0.06 0.28 0.08 0.59 0.08 0.92 0 1.11-0.12 2.14-0.37 3.08-0.25 0.95-0.38 2-0.38 3.17v0.67c0 0.27-0.02 0.59-0.08 0.96-0.05 0.36-0.14 0.7-0.25 1.04-0.11 0.39-0.22 0.8-0.33 1.25v0.91c0 0.61-0.1 1.11-0.29 1.5-0.2 0.39-0.41 0.89-0.63 1.5-0.11 0.45-0.29 0.91-0.54 1.38s-0.38 1.01-0.38 1.62c0 0.23 0.06 0.52 0.17 0.88s0.28 0.72 0.5 1.08 0.49 0.67 0.79 0.92c0.31 0.25 0.66 0.37 1.04 0.37 0.45 0 0.85-0.14 1.21-0.41 0.36-0.28 0.66-0.59 0.88-0.92 0.28-0.28 0.57-0.51 0.87-0.71 0.31-0.19 0.66-0.29 1.04-0.29h1.59c0.33 0 0.53 0.17 0.58 0.5 0.06 0.33 0.08 0.72 0.08 1.17 0 0.16-0.25 0.5-0.75 1s-1.05 1.04-1.66 1.62c-0.61 0.59-1.22 1.14-1.84 1.67-0.61 0.53-1.02 0.87-1.25 1.04-0.16 0.39-0.52 1.06-1.08 2-0.55 0.94-1.17 1.9-1.83 2.88-0.67 0.97-1.38 1.83-2.13 2.58s-1.4 1.12-1.96 1.12c-0.38 0-0.81-0.12-1.29-0.37-0.47-0.25-0.9-0.58-1.29-1s-0.71-0.85-0.96-1.29c-0.25-0.45-0.37-0.89-0.37-1.34v-1.33c0-0.44-0.03-0.83-0.09-1.17-0.05-0.33-0.25-0.5-0.58-0.5v-1.58l0.67-2.33v-3.92c0-0.83 0.11-1.5 0.33-2s0.33-1.14 0.33-1.92v-0.75c0-0.39 0.13-0.94 0.38-1.66 0.25-0.73 0.51-1.5 0.79-2.34 0.28-0.83 0.54-1.65 0.79-2.45 0.25-0.81 0.38-1.52 0.38-2.13 0-0.44-0.18-0.93-0.54-1.46s-0.96-0.79-1.8-0.79c-0.33 0-0.62 0.11-0.87 0.33-0.25 0.23-0.96 0.34-2.13 0.34-0.11-0.06-0.22-0.2-0.33-0.42-0.22-0.33-0.33-0.75-0.33-1.25v-1.33c0-0.5 0.48-1.24 1.46-2.21 0.97-0.97 2.08-1.95 3.33-2.92s2.46-1.83 3.62-2.58c1.17-0.75 1.92-1.13 2.25-1.13zm0.25-19.66c0.23 0 0.52-0.04 0.88-0.13 0.36-0.08 0.74-0.16 1.12-0.25 0.39-0.08 0.77-0.16 1.13-0.25 0.36-0.08 0.62-0.12 0.79-0.12 0.78 0.27 1.28 0.75 1.5 1.41 0.22 0.67 0.56 1.36 1 2.09 0 0.44 0.04 0.89 0.13 1.33 0.08 0.44 0.12 0.86 0.12 1.25 0 0.33-0.11 0.74-0.33 1.21s-0.34 1.07-0.34 1.79c-0.11 0.39-0.26 0.86-0.45 1.42-0.2 0.55-0.45 1.07-0.75 1.54-0.31 0.47-0.67 0.86-1.09 1.17-0.41 0.3-0.9 0.4-1.46 0.29-0.77 0-1.62-0.27-2.54-0.79-0.91-0.53-1.59-1.21-2.04-2.05-0.39-0.33-0.53-0.83-0.42-1.5 0.12-0.66 0.17-1.25 0.17-1.75 0-1.5 0.25-2.72 0.75-3.66 0.5-0.95 1.11-1.95 1.83-3z"/>
                <path d="m4653.9 2358.4c0.5 0 0.99 0.02 1.46 0.05 0.48 0.02 0.92 0.11 1.34 0.25 0.41 0.13 0.75 0.36 1 0.66 0.25 0.31 0.37 0.74 0.37 1.29 0 0.34-0.39 0.96-1.17 1.88-0.77 0.92-1.62 1.92-2.54 3-0.91 1.08-1.76 2.14-2.54 3.17-0.78 1.02-1.17 1.81-1.17 2.37 0 0.44 0.13 0.78 0.38 1s0.54 0.38 0.87 0.46c0.34 0.08 0.69 0.14 1.05 0.17 0.36 0.02 0.62 0.04 0.79 0.04h2.75c0.11-0.11 0.28-0.25 0.5-0.42 0.44-0.33 0.8-0.5 1.08-0.5 0.83 0 1.43 0.33 1.79 1s0.54 1.42 0.54 2.25v2.25c0 0.61-0.33 1.08-1 1.42-0.66 0.33-1.4 0.58-2.2 0.75-0.81 0.16-1.59 0.27-2.34 0.33s-1.21 0.08-1.37 0.08c-0.84 0-1.31-0.04-1.42-0.12s-0.33-0.13-0.67-0.13h-1.66c-0.34 0-0.81 0.17-1.42 0.5-0.61 0.34-0.92 0.73-0.92 1.17 0 0.61-0.02 1.15-0.08 1.63-0.05 0.47-0.11 0.87-0.17 1.2-0.05 0.39-0.11 0.75-0.16 1.09-0.17 0.33-0.34 0.64-0.5 0.91-0.28 0.56-0.42 1.03-0.42 1.42v0.92c0 0.94-0.14 1.97-0.42 3.08-0.27 1.11-0.52 1.78-0.75 2-0.27 0.28-0.5 0.54-0.66 0.79-0.17 0.25-0.25 0.9-0.25 1.96v1.67c0 0.33 0.05 0.73 0.16 1.21 0.12 0.47 0.31 0.9 0.59 1.29s0.61 0.72 1 1c0.39 0.27 0.89 0.41 1.5 0.41 0.72 0 1.33-0.19 1.83-0.58 0.22-0.17 0.45-0.36 0.67-0.58 0.44 0 0.79 0.12 1.04 0.37s0.49 0.52 0.71 0.79c0.22 0.34 0.41 0.73 0.58 1.17 0 0.44-0.18 1.03-0.54 1.75s-0.79 1.43-1.29 2.13c-0.5 0.69-1.03 1.3-1.59 1.83-0.55 0.53-1.02 0.79-1.41 0.79s-0.77 0.32-1.13 0.96-0.54 1.1-0.54 1.37c-0.17 0-0.47 0.06-0.92 0.17-0.44 0.11-0.88 0.22-1.33 0.33-0.55 0.17-1.11 0.31-1.67 0.42-0.72 0-1.29-0.04-1.7-0.12-0.42-0.09-0.63-0.35-0.63-0.8-0.17-0.11-0.42-0.51-0.75-1.2-0.33-0.7-0.67-1.46-1-2.3-0.33-0.83-0.62-1.65-0.87-2.45-0.25-0.81-0.38-1.38-0.38-1.71v-3.92c0-0.22 0.07-0.74 0.21-1.54 0.14-0.81 0.31-1.7 0.5-2.67s0.36-1.94 0.5-2.91c0.14-0.98 0.21-1.77 0.21-2.38v-1.42c0.44-1.27 0.86-2.41 1.25-3.41 0.28-0.89 0.55-1.71 0.83-2.46s0.42-1.18 0.42-1.29v-2.59c0-0.72-0.22-1.16-0.67-1.33-0.33-0.28-0.69-0.56-1.08-0.83-0.39-0.28-0.59-0.64-0.59-1.09 0-0.33 0.13-0.68 0.38-1.04s0.56-0.73 0.92-1.12 0.72-0.79 1.08-1.21 0.65-0.82 0.87-1.21c0.39-0.83 0.77-1.35 1.13-1.54 0.36-0.2 0.76-0.46 1.21-0.79 0.72-0.84 1.5-1.53 2.33-2.09 0.83-0.55 1.61-1.41 2.33-2.58 0.45-0.78 0.78-1.56 1-2.33 0.23-0.78 0.73-1.39 1.5-1.84 0.73-0.22 1.37-0.65 1.92-1.29 0.56-0.64 1-0.96 1.33-0.96z"/>
                <path d="m4666.9 2370.4c0.95 0 1.73 0.35 2.34 1.05 0.61 0.69 0.91 1.43 0.91 2.2l-0.75 2.34c0.34 0.33 0.56 0.8 0.67 1.41 0.06 0.28 0.08 0.59 0.08 0.92 0 1.11-0.12 2.14-0.37 3.08-0.25 0.95-0.38 2-0.38 3.17v0.67c0 0.27-0.02 0.59-0.08 0.96-0.05 0.36-0.14 0.7-0.25 1.04-0.11 0.39-0.22 0.8-0.33 1.25v0.91c0 0.61-0.1 1.11-0.29 1.5-0.2 0.39-0.41 0.89-0.63 1.5-0.11 0.45-0.29 0.91-0.54 1.38s-0.38 1.01-0.38 1.62c0 0.23 0.06 0.52 0.17 0.88s0.28 0.72 0.5 1.08 0.49 0.67 0.79 0.92c0.31 0.25 0.66 0.37 1.04 0.37 0.45 0 0.85-0.14 1.21-0.41 0.36-0.28 0.66-0.59 0.88-0.92 0.28-0.28 0.57-0.51 0.87-0.71 0.31-0.19 0.66-0.29 1.04-0.29h1.59c0.33 0 0.53 0.17 0.58 0.5 0.06 0.33 0.08 0.72 0.08 1.17 0 0.16-0.25 0.5-0.75 1s-1.05 1.04-1.66 1.62c-0.61 0.59-1.22 1.14-1.84 1.67-0.61 0.53-1.02 0.87-1.25 1.04-0.16 0.39-0.52 1.06-1.08 2-0.55 0.94-1.17 1.9-1.83 2.88-0.67 0.97-1.38 1.83-2.13 2.58s-1.4 1.12-1.96 1.12c-0.38 0-0.81-0.12-1.29-0.37-0.47-0.25-0.9-0.58-1.29-1s-0.71-0.85-0.96-1.29c-0.25-0.45-0.37-0.89-0.37-1.34v-1.33c0-0.44-0.03-0.83-0.09-1.17-0.05-0.33-0.25-0.5-0.58-0.5v-1.58l0.67-2.33v-3.92c0-0.83 0.11-1.5 0.33-2s0.33-1.14 0.33-1.92v-0.75c0-0.39 0.13-0.94 0.38-1.66 0.25-0.73 0.51-1.5 0.79-2.34 0.28-0.83 0.54-1.65 0.79-2.45 0.25-0.81 0.38-1.52 0.38-2.13 0-0.44-0.18-0.93-0.54-1.46s-0.96-0.79-1.8-0.79c-0.33 0-0.62 0.11-0.87 0.33-0.25 0.23-0.96 0.34-2.13 0.34-0.11-0.06-0.22-0.2-0.33-0.42-0.22-0.33-0.33-0.75-0.33-1.25v-1.33c0-0.5 0.48-1.24 1.46-2.21 0.97-0.97 2.08-1.95 3.33-2.92s2.46-1.83 3.62-2.58c1.17-0.75 1.92-1.13 2.25-1.13zm0.25-19.66c0.23 0 0.52-0.04 0.88-0.13 0.36-0.08 0.74-0.16 1.12-0.25 0.39-0.08 0.77-0.16 1.13-0.25 0.36-0.08 0.62-0.12 0.79-0.12 0.78 0.27 1.28 0.75 1.5 1.41 0.22 0.67 0.56 1.36 1 2.09 0 0.44 0.04 0.89 0.13 1.33 0.08 0.44 0.12 0.86 0.12 1.25 0 0.33-0.11 0.74-0.33 1.21s-0.34 1.07-0.34 1.79c-0.11 0.39-0.26 0.86-0.45 1.42-0.2 0.55-0.45 1.07-0.75 1.54-0.31 0.47-0.67 0.86-1.09 1.17-0.41 0.3-0.9 0.4-1.46 0.29-0.77 0-1.62-0.27-2.54-0.79-0.91-0.53-1.59-1.21-2.04-2.05-0.39-0.33-0.53-0.83-0.42-1.5 0.12-0.66 0.17-1.25 0.17-1.75 0-1.5 0.25-2.72 0.75-3.66 0.5-0.95 1.11-1.95 1.83-3z"/>
                <path d="m4691.5 2370.9c0.78 0 1.73 0.03 2.87 0.09 1.14 0.05 2.1 0.25 2.88 0.58 0.83 0 1.37 0.33 1.62 1s0.57 1.42 0.96 2.25c0.22 0.22 0.49 0.53 0.79 0.92 0.31 0.39 0.59 0.79 0.84 1.21 0.25 0.41 0.45 0.84 0.62 1.29 0.17 0.44 0.25 0.83 0.25 1.16l-0.67 7.42c0 1.56-0.33 3.28-1 5.17-0.66 1.89-1.63 3.58-2.91 5.08-0.45 0.44-0.77 0.93-0.96 1.46s-0.39 1.07-0.58 1.62c-0.2 0.56-0.42 1.13-0.67 1.71-0.25 0.59-0.6 1.15-1.04 1.71-0.34 0.39-0.71 0.86-1.13 1.42-0.41 0.55-0.86 1.12-1.33 1.71-0.47 0.58-0.97 1.11-1.5 1.58s-1.07 0.82-1.63 1.04c-0.83 0.44-1.52 0.83-2.08 1.17-0.55 0.33-1.05 0.61-1.5 0.83-0.44 0.22-0.9 0.38-1.37 0.46-0.48 0.08-0.99 0.12-1.55 0.12-0.83 0-1.61-0.19-2.33-0.58s-1.35-0.9-1.87-1.54c-0.53-0.64-0.96-1.36-1.3-2.17-0.33-0.8-0.5-1.62-0.5-2.46v-5.58c0-0.33-0.11-0.64-0.33-0.92-0.22-0.27-0.33-1.05-0.33-2.33-0.06-1.61 0.33-3.56 1.16-5.83 0.84-2.28 1.82-4.52 2.96-6.71 1.14-2.2 2.28-4.14 3.42-5.83 1.14-1.7 2.01-2.74 2.62-3.13 0.62-0.39 1.13-0.82 1.55-1.29 0.41-0.47 0.82-0.9 1.2-1.29 0.39-0.39 0.8-0.71 1.21-0.96 0.42-0.25 0.96-0.38 1.63-0.38zm0.41 9.5c-0.88 0-1.79 0.38-2.7 1.13-0.92 0.75-1.77 1.61-2.55 2.58-0.77 0.97-1.47 1.95-2.08 2.92s-1.03 1.68-1.25 2.12l-0.83 3.17c-0.22 0.78-0.4 1.53-0.54 2.25s-0.21 1.17-0.21 1.33v1.59c0.22 0.16 0.41 0.5 0.58 1s0.38 1 0.63 1.5 0.54 0.94 0.87 1.33 0.81 0.58 1.42 0.58c1.11-0.5 2.14-1 3.08-1.5 0.78-0.44 1.54-0.91 2.29-1.41s1.27-1 1.54-1.5c0.34-0.78 0.71-1.7 1.13-2.75 0.42-1.06 0.82-2.06 1.21-3-0.11-0.45 0.01-0.89 0.37-1.34 0.36-0.44 0.54-0.86 0.54-1.25v-2.33c0-0.28-0.06-0.76-0.2-1.46-0.14-0.69-0.36-1.41-0.67-2.16s-0.68-1.41-1.13-1.96c-0.44-0.56-0.94-0.84-1.5-0.84z"/>
                <path d="m4716.2 2371.8c0.61 0 1.08 0.19 1.41 0.58 0.34 0.39 0.64 0.81 0.92 1.25 0.17 0.39 0.22 0.92 0.17 1.59-0.06 0.66-0.15 1.33-0.29 2-0.14 0.66-0.28 1.3-0.42 1.91s-0.21 1.03-0.21 1.25l0.25 1.34 0.92 1.66c0.22 0 0.65-0.32 1.29-0.95 0.64-0.64 1.39-1.44 2.25-2.38s1.76-1.96 2.71-3.04c0.94-1.08 1.86-2.1 2.75-3.04 0.89-0.95 1.69-1.74 2.41-2.38 0.73-0.64 1.25-0.96 1.59-0.96 0.44 0 0.82 0.28 1.12 0.84 0.31 0.55 0.6 1.14 0.88 1.75 0.28 0.72 0.53 1.55 0.75 2.5 0.05 0.77 0 1.86-0.17 3.25s-0.43 2.9-0.79 4.54-0.75 3.3-1.17 5c-0.41 1.69-0.8 3.25-1.16 4.67-0.36 1.41-0.67 2.59-0.92 3.54-0.25 0.94-0.38 1.44-0.38 1.5 0 0.22-0.02 0.48-0.08 0.79-0.05 0.3-0.08 0.58-0.08 0.83s0.07 0.46 0.21 0.63c0.14 0.16 0.43 0.25 0.87 0.25 0.33-0.23 0.67-0.45 1-0.67 0.28-0.22 0.58-0.44 0.92-0.67 0.33-0.22 0.69-0.47 1.08-0.75 0.95-0.61 1.82-1.18 2.63-1.7 0.8-0.53 1.32-0.8 1.54-0.8 0.33 0 0.69 0.18 1.08 0.55 0.39 0.36 0.58 0.7 0.58 1.04 0 0.11-0.18 0.41-0.54 0.91s-0.79 1.03-1.29 1.59c-0.5 0.55-1 1.05-1.5 1.5-0.5 0.44-0.86 0.66-1.08 0.66 0 0.45-0.15 0.86-0.46 1.25s-0.63 0.59-0.96 0.59c-0.89 0.94-1.64 1.86-2.25 2.75s-1.22 1.71-1.83 2.46-1.28 1.34-2 1.79c-0.72 0.44-1.64 0.66-2.75 0.66-0.39 0-0.79-0.14-1.21-0.41-0.42-0.28-0.79-0.63-1.13-1.04-0.33-0.42-0.59-0.87-0.79-1.34-0.19-0.47-0.29-0.87-0.29-1.21l-0.25-3c0.33-1.5 0.77-3.11 1.29-4.83 0.53-1.72 1.02-3.33 1.46-4.83 0.45-1.28 0.81-2.5 1.08-3.67 0.28-1.17 0.48-2.28 0.59-3.33v-0.92c-0.22-1.56-0.78-2.33-1.67-2.33-1.33 0-2.39 0.29-3.17 0.87-0.77 0.59-1.41 1.34-1.91 2.25-0.5 0.92-0.93 1.9-1.29 2.96s-0.77 2.06-1.21 3c-0.28 0.33-0.46 0.65-0.54 0.96-0.09 0.3-0.07 0.68 0.04 1.12-0.11 0.67-0.24 1.34-0.38 2-0.14 0.67-0.32 1.31-0.54 1.92-0.61 1.78-1.19 3.54-1.75 5.29-0.55 1.75-1.05 3.38-1.5 4.88 0.28 0.44 0.24 0.71-0.12 0.79s-0.71 0.12-1.05 0.12c-0.33 0-0.8-0.01-1.41-0.04s-1.21-0.12-1.79-0.29c-0.59-0.17-1.11-0.42-1.59-0.75-0.47-0.33-0.73-0.81-0.79-1.42-0.11-0.94 0-1.93 0.33-2.95 0.34-1.03 0.71-1.99 1.13-2.88s0.82-1.67 1.21-2.33c0.39-0.67 0.58-1.11 0.58-1.34v-3l-0.42-1.41c0-0.34 0.12-0.77 0.34-1.29 0.22-0.53 0.46-1.06 0.71-1.59s0.48-1.01 0.7-1.46c0.23-0.44 0.34-0.77 0.34-1v-1.16l-0.25-3.25c0-0.34-0.04-0.68-0.13-1.04-0.08-0.37-0.34-0.55-0.79-0.55-0.33 0-0.71 0.09-1.12 0.25-0.42 0.17-0.84 0.35-1.25 0.55-0.42 0.19-0.81 0.37-1.17 0.54-0.36 0.16-0.65 0.25-0.88 0.25h-0.66c-0.39-0.23-0.49-0.66-0.29-1.29 0.19-0.64 0.29-1.13 0.29-1.46 1.39-1.95 2.73-3.66 4.04-5.13s2.87-2.79 4.71-3.96c0.39-0.22 0.91-0.5 1.58-0.83s1.31-0.5 1.92-0.5z"/>
            </g>
        </g>
        <g transform="translate(465.48 1764)">
            <path d="m88.708-1612.9c-1.345 1.44-2.209 1.63-4.417 1.06-5.762-1.64-16.229 1.15-19.686 5.37-0.48 0.58-3.265 1.35-6.05 1.64-4.994 0.57-5.09 0.57-4.801-2.02l0.288-2.59-6.434 0.19c-7.586 0.29-12.964 2.59-16.133 7.01-2.305 3.26-3.841 3.74-3.841 1.15 0-2.11-1.825-4.03-3.745-4.03-2.305 0-7.394 4.51-10.275 9.12-2.305 3.55-3.457 4.42-6.434 4.9-7.202 1.25-16.133 13.92-17.669 25.16-0.673 4.7-2.401 5.95-4.994 3.65-3.841-3.46-8.738-0.29-10.563 7.01-2.017 7.77-2.209 13.25-0.672 16.22 0.864 1.64 1.536 4.23 1.536 5.77 0 1.82 0.769 3.36 2.017 4.22 1.824 1.15 1.92 1.63 0.96 5.09-0.576 2.11-1.056 5.09-1.056 6.53 0 1.54-0.288 2.59-0.672 2.4-0.48-0.19-1.921-0.96-3.361-1.63-2.305-1.15-2.881-1.06-5.954 0.77-4.321 2.69-4.994 5.86-2.881 15.07 1.344 6.15 2.209 7.98 5.282 11.14 3.937 4.13 4.033 5.57 0.48 5.57-2.689 0-5.378 2.79-5.378 5.67 0 2.98 4.417 9.12 8.451 11.91 1.92 1.24 6.242 2.88 9.506 3.55 5.57 1.15 6.05 1.44 6.05 3.74 0 2.21-0.576 2.69-4.801 3.65-5.474 1.35-10.563 4.52-10.563 6.63 0 3.74 11.715 10.95 17.861 10.95 2.593 0 2.977 1.15 0.864 2.88-0.768 0.67-1.44 1.82-1.44 2.59 0 2.11 2.977 6.05 4.513 6.05 0.768 0 2.881 0.67 4.706 1.54 2.4 1.15 4.609 1.44 7.874 0.96 2.497-0.29 5.377-0.68 6.338-0.77 3.169-0.48 2.496 1.53-1.441 4.32-4.993 3.46-4.705 5.86 1.057 9.8 4.129 2.78 4.801 2.88 14.404 2.88 5.569 0 11.811-0.29 13.924-0.68 3.169-0.48 3.553-0.48 2.017 0.48-1.057 0.68-3.553 2.6-5.57 4.42-3.073 2.69-3.649 3.84-3.457 6.24 0.384 4.04 5.858 6.82 12.964 6.63 5.473-0.19 6.434 0.58 2.977 2.11-2.497 1.06-4.226 5.19-3.265 7.68 0.48 1.44 1.44 1.64 6.434 1.16 3.168-0.39 7.97-1.73 10.755-2.98 2.784-1.35 6.242-2.59 7.682-2.98 1.921-0.38 3.169-1.53 4.129-3.84 1.825-4.51 2.689-4.7 6.146-1.44 2.209 2.02 4.033 2.88 6.338 2.88 1.824 0 5.473 1.15 8.066 2.5 3.841 2.02 5.474 2.4 8.643 1.82 3.745-0.67 7.682-4.03 7.682-6.62 0-2.12-5.282-6.34-7.97-6.34-2.209 0-2.593-0.38-2.593-2.88 0-3.27 0.384-3.36 4.897-1.54 3.938 1.63 11.044 1.44 14.213-0.29 1.824-1.05 3.072-1.05 6.049-0.19 4.226 1.35 8.163 0.77 13.54-1.92 4.13-2.11 4.61-4.22 1.153-5.09-3.841-0.96-2.881-1.92 4.129-3.84 6.53-1.82 14.308-6.34 18.533-10.76 2.113-2.2 2.209-2.59 0.865-4.99-0.961-1.63-2.881-2.98-5.282-3.65-3.265-0.96-3.553-1.25-1.921-1.82 8.835-3.17 19.014-10.57 23.623-16.9 1.633-2.31 1.729-3.17 0.865-4.23-0.673-0.77-2.017-1.44-2.977-1.44-3.361 0-2.977-2.21 1.344-6.53 4.706-4.9 10.755-15.84 9.891-18.05-0.288-0.77-1.248-1.35-2.209-1.35-4.033-0.09-4.417-1.44-1.344-6.24 1.536-2.5 3.169-5.86 3.457-7.58 0.288-1.64 1.248-5.96 2.113-9.51 1.92-8.36 1.344-9.12-5.762-7.49-2.881 0.57-6.146 2.01-7.202 2.98-3.553 3.36-3.265 2.11 0.96-4.13l4.129-5.96 0.096-10.37c0.192-11.81-0.192-12.39-6.337-9.99-2.017 0.77-3.938 1.16-4.226 0.87s-0.576-2.5-0.576-4.9-0.48-6.14-1.056-8.26c-0.576-2.11-1.249-6.43-1.633-9.6-0.864-7.49-3.073-8.16-8.162-2.4-4.225 4.51-4.898 4.8-4.225 1.06 1.056-5-0.865-13.83-3.937-18.35-3.265-4.8-11.524-11.52-14.117-11.52-0.864 0-1.824 0.86-2.112 1.92-0.768 2.88-1.537 2.4-4.61-2.97-3.361-5.86-9.698-10.95-14.5-11.91-3.937-0.68-5.666 0.67-4.225 3.36 0.96 1.73 0.096 9.6-0.96 9.6-0.385 0-1.633-2.11-2.689-4.8-2.401-5.86-8.259-12.96-11.62-14.31-1.344-0.48-4.225-1.25-6.337-1.54-3.169-0.48-4.226-0.19-5.666 1.35zm-13.636 217.06c1.632 2.69-1.056 6.15-6.05 7.97-11.715 4.13-16.709 5.38-17.573 4.52-1.633-1.64-0.096-2.79 6.434-5 3.841-1.24 7.682-3.45 10.275-5.76 4.321-3.94 5.281-4.22 6.914-1.73zm31.785 2.88c0.864 2.79 0.864 4.52 0 4.61-0.48 0-1.056-0.76-1.248-1.92-0.48-2.78-3.073-2.4-3.073 0.48 0 1.35-0.384 2.4-0.96 2.4-1.057 0-1.345-5.09-0.288-6.05 1.056-1.15 5.089-0.76 5.569 0.48zm-12.003-3.26c3.553 1.73 4.417 3.65 2.88 5.95-0.864 1.25-1.152 1.25-2.304-0.19-0.864-1.25-2.113-1.54-4.61-1.15-4.033 0.67-8.45-1.73-8.45-4.51 0-1.54 0.768-1.83 4.609-1.83 2.497 0 6.05 0.77 7.875 1.73zm-35.627-11.43 2.401 1.83-3.361 2.01c-2.113 1.25-4.898 2.02-7.778 2.02-4.514 0-6.05 1.15-3.073 2.3 2.592 0.96 5.185 0.68 9.026-1.34 3.937-2.02 7.683-2.5 7.683-1.15 0 0.48-1.729 1.63-3.842 2.59-2.208 0.96-4.225 2.21-4.513 2.69-0.864 1.54 6.722-0.29 8.643-1.92 1.92-1.83 3.457-0.87 2.016 1.34-1.536 2.4-8.258 3.94-16.229 3.56-11.811-0.48-15.364-4.42-8.546-9.61 3.073-2.4 11.811-6.05 14.308-6.05 0.576-0.09 2.017 0.77 3.265 1.73zm41.388 6.34c0 2.3-0.48 3.36-1.44 3.36-0.768 0-1.441-0.58-1.441-1.25 0-0.57-0.288-2.11-0.576-3.36-0.48-1.73-0.192-2.11 1.441-2.11 1.632 0 2.016 0.58 2.016 3.36zm-21.414-4.61c-0.096 2.59 0.192 5.38 0.672 6.24 0.576 1.25 0.384 1.73-0.576 1.73-3.361 0-4.705-4.8-2.689-9.99 1.441-3.93 2.785-2.88 2.593 2.02zm15.269 5.86c-0.385 0.29-1.057 0.09-1.729-0.58-0.768-0.77-0.768-1.44 0.288-2.69 1.248-1.53 1.345-1.53 1.633 0.48 0.192 1.25 0.096 2.4-0.192 2.79zm-32.074-27.08c1.921 1.25 4.609 3.74 6.05 5.57 3.745 4.9 5.57 12.77 2.209 9.41-0.673-0.67-1.537-1.15-1.921-1.15-1.633 0-0.672 2.01 2.113 4.41 2.208 2.02 2.688 3.08 2.208 5.09-0.768 3.46-0.864 3.56-3.745 0.96-11.427-10.08-15.749-16.13-15.749-21.99 0-2.49 0.289-4.8 0.673-5.09 0.864-0.96 4.033 0.1 8.162 2.79zm21.799 17.76c-1.729 3.36-0.769 6.15 2.208 6.15 1.441 0 2.785 0.38 2.881 0.96 0.384 1.34-6.242 1.54-7.106 0.19-1.825-2.78 0.096-11.04 2.209-9.79 0.48 0.38 0.48 1.34-0.192 2.49zm28.616-5.37c1.152 0.76 2.593 3.07 3.169 5.09 0.672 1.92 1.92 4.12 2.785 4.8 1.344 1.05 1.344 1.34 0.096 2.11-2.113 1.34-9.411 0.1-14.693-2.59l-4.705-2.31 4.513-4.32c4.994-4.61 5.762-4.9 8.835-2.78zm12.292-3.12c0.96 1.06 2.496 1.92 3.361 1.92 2.016 0 10.851 9.22 10.083 10.57-0.961 1.63-7.299 2.21-11.14 1.05-4.513-1.34-8.642-4.8-11.331-9.22l-1.921-3.36 2.113-1.44c2.881-2.01 6.722-1.82 8.835 0.48zm-14.405 10.7c0.961 1.35 2.113 2.5 2.593 2.5 1.248 0-1.44-4.13-2.977-4.61-0.864-0.29-0.672 0.48 0.384 2.11zm-3.212-12.52c0.088 1.07-0.122 1.69-0.629 1.74-0.15 0-0.31-0.07-0.464-0.21-2.094 2.78-4.935 5.81-7.986 8.3-2.881 2.4-11.14 4.71-12.388 3.46-1.536-1.54 0.864-5.67 5.57-9.41 2.496-2.11 6.434-5.38 8.738-7.4 4.033-3.45 8.163-4.6 9.411-2.59 0.585 0.99-0.37 3.33-2.252 6.11zm-68.713-0.58c4.129 2.69 2.593 3.36-7.778 3.36-6.05 0-10.083 0.39-10.083 0.96 0 0.58 3.169 0.96 7.49 0.96 6.242 0 7.586 0.29 8.547 1.83 0.672 0.96 0.864 2.11 0.576 2.4-0.384 0.29-3.841 0.57-7.875 0.57-7.394 0-13.732-2.11-16.516-5.47-1.057-1.25-0.865-1.82 1.536-3.74 1.536-1.25 3.937-2.4 5.282-2.69 4.801-0.87 16.42 0.19 18.821 1.82zm11.908 4.9c0.384 0.48 1.056 1.73 1.344 2.88 0.576 1.83 0.192 1.92-4.609 1.92-6.242-0.09-7.875-1.25-5.858-4.03 0.96-1.54 2.209-1.92 4.801-1.83 1.921 0.1 3.841 0.58 4.322 1.06zm8.258-2.94c-0.576 0.96 3.169 6.92 4.321 6.92 1.249 0 1.153-0.39-1.152-4.23-2.113-3.65-2.401-3.94-3.169-2.69zm35.915 3.17c-2.401 2.02-3.745 3.75-3.073 3.75 1.44 0 8.546-6.34 7.874-7.01-0.288-0.29-2.401 1.15-4.801 3.26zm-8.643-7.3c2.113 2.5-1.152 8.17-4.513 8.17-1.537 0-3.361 0.38-4.129 0.96-1.921 1.15-3.842-0.58-3.842-3.46 0-1.82 1.057-2.88 4.61-4.61 5.473-2.78 6.338-2.88 7.874-1.06zm75.766-5.61c2.497 2.98-5.473 10.47-13.155 12.58-2.497 0.58-5.474 1.44-6.626 1.83-1.345 0.38-2.209 0.29-2.209-0.29 0-0.48 0.864-1.25 1.92-1.54 1.057-0.29 4.418-3.65 7.395-7.3 4.705-5.66 5.953-6.62 8.546-6.62 1.633 0 3.553 0.58 4.129 1.34zm-60.882 1.29c-0.288 0.48-1.248 0.96-1.92 0.96-0.768 0-1.921 1.06-2.593 2.31-1.536 2.78-7.394 7.78-8.162 6.91-1.153-1.15 2.977-7.2 6.338-9.12 3.649-2.11 7.394-2.69 6.337-1.06zm52.72-22.99c0.672 1.15-1.248 14.41-2.881 19.49-2.977 9.42-14.308 16.52-20.358 12.68-5.089-3.36-5.185-4.13-0.288-8.64 2.401-2.21 5.186-4.32 6.05-4.61s2.785-2.59 4.225-5.09c2.881-4.9 10.851-14.6 12.004-14.6 0.384 0 0.96 0.39 1.248 0.77zm-104.48 11.29c1.249 1.73 1.633 4.7 1.729 11.04l0.096 8.55h-3.073c-3.937 0-4.706-1.44-5.474-11.05-0.576-7.2-0.48-7.77 1.537-9.31 2.881-2.21 3.361-2.21 5.185 0.77zm27.368-148.32c-0.96 6.43-0.768 7.01 3.265 8.26 7.106 2.11 12.484 3.26 17.765 4.03 7.491 1.06 9.603 1.92 9.603 3.65 0 2.02 2.785 5.09 4.61 5.09 0.768 0 2.592 1.06 4.225 2.4 1.536 1.34 3.457 2.4 4.225 2.4 1.825 0 1.729 2.5-0.096 3.27-2.112 0.76-1.728 3.26 0.768 4.8 1.153 0.67 4.226 1.53 6.818 1.92 6.242 0.77 8.451 2.97 12.1 12.1 3.073 7.58 6.626 12 12.099 14.69 2.785 1.44 2.977 1.92 3.554 8.74 0.384 4.03 1.536 9.7 2.592 12.77 1.057 3.07 1.921 5.66 1.921 5.76 0 0.19-1.248 0.29-2.881 0.29-1.921 0-3.265 0.67-4.225 2.11-1.921 2.88-3.457 12.97-2.785 17.96 0.48 3.17 0.288 3.94-0.96 3.94-1.825 0-7.106 6.53-8.451 10.46-0.576 1.64-1.92 3.17-3.073 3.56-4.897 1.44-10.563 9.41-11.715 16.42-0.384 2.3-0.864 4.13-1.153 4.13-0.288 0-1.248-0.96-2.208-2.12l-1.729-2.11-4.609 2.88c-2.593 1.54-5.57 4.23-6.626 5.96-1.728 2.59-2.497 2.97-6.242 3.07-2.593 0-6.146 0.96-8.834 2.3-2.497 1.25-5.954 2.31-7.683 2.21-1.728 0-5.761 1.06-8.834 2.5l-5.666 2.59-5.089-5.18c-3.169-3.27-6.626-5.67-9.123-6.53-3.169-1.06-4.321-2.02-4.802-4.04-0.96-3.55-3.553-6.34-5.953-6.34-0.961 0-3.073 0.77-4.706 1.64-2.688 1.63-2.881 1.63-3.745 0.09-1.824-3.26-5.858-7.49-7.106-7.49-0.768 0-2.112 1.35-3.073 2.88-2.112 3.65-3.169 3.65-3.169-0.09 0-1.73-0.864-6.05-2.016-9.7-1.441-5.09-2.497-6.82-4.13-7.49-1.728-0.58-2.496-1.92-3.072-5.38-0.481-2.49-1.345-4.7-1.921-4.9-0.48-0.19-2.785 1.25-4.993 3.17-4.226 3.65-5.954 3.65-5.954-0.09 0-1.44 1.248-3.27 3.745-5.19 3.073-2.49 3.937-3.94 5.281-9.31 2.113-8.26 1.153-9.51-6.626-9.41-2.88 0.09-5.281-0.1-5.281-0.29s0.576-1.83 1.344-3.56c0.769-1.82 1.633-6.62 2.017-10.75 0.384-5.28 1.44-9.51 3.457-14.02 3.553-7.87 3.457-10.76-0.48-11.14-3.745-0.48-6.53 0.38-9.219 2.69-1.248 1.06-2.401 1.73-2.689 1.44s2.305-3.17 5.762-6.53c3.457-3.27 7.01-7.59 7.778-9.6 1.057-2.4 2.113-3.56 3.457-3.56 2.113 0 5.954-4.13 7.779-8.54 0.768-2.02 2.016-3.17 3.745-3.56 7.01-1.44 16.709-8.06 18.437-12.57 0.96-2.5 2.113-2.6 9.603-0.87 5.089 1.25 13.444 0.77 14.98-0.77 1.249-1.25 1.057-3.46-0.672-7.01-0.96-2.01-1.536-3.94-1.248-4.32 0.192-0.48 2.016-0.77 3.937-0.77s4.225-0.48 4.993-0.96c2.113-1.44 3.361-0.57 2.977 2.02zm44.461 147.4c1.921 0.77 2.017 6.05 0.096 8.64-0.768 0.96-1.44 2.79-1.44 3.94 0 1.35-0.576 2.21-1.44 2.21-0.769 0-1.441 0.77-1.537 1.63 0 1.25-0.288 1.06-1.056-0.67-0.96-2.21-1.056-2.21-1.441-0.48-0.864 3.75-2.496 4.03-1.824 0.38 0.48-2.49 0.192-3.84-0.864-4.7-0.769-0.67-1.441-1.63-1.441-2.21 0-0.86 8.355-9.31 9.219-9.31 0.096 0 0.864 0.28 1.728 0.57zm17.67-12c0.192 1.82-0.192 6.43-0.865 10.27l-1.152 6.92-6.626 5.38c-3.649 2.97-6.818 5.18-7.202 4.89-0.288-0.29 1.248-2.78 3.457-5.57 2.209-2.78 3.745-5.28 3.361-5.57-0.288-0.28-1.633 0.68-2.881 2.31-2.113 2.69-2.305 2.69-2.305 0.77 0-1.16 0.385-2.4 0.961-2.69 0.48-0.29 1.728-3.46 2.785-7.01 2.016-6.53 7.106-14.02 9.122-13.35 0.576 0.19 1.249 1.82 1.345 3.65zm-103.04 10.18c1.345 2.01 2.401 4.61 2.401 5.76s0.48 2.4 0.96 2.69c1.249 0.77 1.249 8.16 0.096 8.16-0.48 0-1.44-1.54-2.112-3.36-0.673-1.83-1.633-3.36-2.017-3.36-0.96 0-0.96 0.29 0.192 3.26 0.48 1.35 0.576 2.5 0.192 2.5-0.96 0-3.073-4.8-3.073-6.91 0-0.96-0.48-1.73-1.056-1.73-0.768 0-0.96 1.53-0.48 4.8 0.672 5.18-0.288 6.14-2.689 2.69-2.401-3.46-1.921-10.18 0.96-14.41 1.441-2.01 2.881-3.65 3.361-3.65s1.921 1.64 3.265 3.56zm-11.043 12.67c0 3.37-1.152 4.32-4.417 3.56-2.497-0.68-3.169-2.5-0.865-2.5 0.769 0 1.825-0.86 2.401-1.92 1.537-2.78 2.881-2.4 2.881 0.86zm-18.149-8.74c2.784 2.41 1.92 4.9-1.441 4.33-1.344-0.29-2.497-0.1-2.497 0.48 0 1.15 2.305 2.11 5.186 2.11 2.785 0 3.745 0.96 2.401 2.59-1.441 1.73-4.129 1.54-10.467-0.67-6.818-2.31-7.395-4.61-2.209-8.07 4.417-2.88 6.146-3.07 9.027-0.77zm14.98-17.09c1.825 6.63 1.921 13.64 0.384 19.11-1.536 5.38-2.497 4.23-2.497-2.88 0-3.07-0.384-5.57-0.96-5.57-0.48 0-0.96 1.44-0.96 3.17 0 1.82-0.384 3.65-0.768 4.03-0.384 0.48-0.673-2.3-0.48-6.05 0.288-7.58-0.385-9.31-2.113-5.95-0.864 1.44-1.056 4.7-0.672 9.7 0.288 4.13 0.192 7.49-0.288 7.49-3.842 0-4.418-11.53-1.057-18.53 1.249-2.5 2.593-4.81 3.073-5.09 0.576-0.29 1.345-1.64 1.921-2.98 1.344-3.55 2.881-2.31 4.417 3.55zm147.4 3.46c0.289 4.61-0.576 6.62-1.44 3.17-0.864-3.17-2.593-1.15-2.593 2.97 0 2.02-0.384 4.04-0.96 4.33-0.48 0.28-0.96-0.29-0.96-1.35 0-1.15-0.384-2.02-0.961-2.02-0.48 0-0.96 1.06-0.96 2.31 0 1.34-0.384 2.69-0.96 2.98-0.48 0.28-0.96-0.1-0.96-0.87 0-0.86-0.385-1.53-0.961-1.53-0.48 0-0.96 0.67-0.96 1.44 0 0.76-0.48 1.44-1.056 1.44-1.153 0-0.576-4.9 1.056-9.03 1.536-4.23 5.858-8.26 8.643-8.26 2.496 0 2.688 0.29 3.072 4.42zm-180.72-1.92c1.633 0.38 3.265 1.34 3.649 2.21 0.288 0.86 1.729 3.07 3.265 4.99 1.441 1.92 2.689 3.84 2.689 4.13s-2.017 0.58-4.513 0.58c-4.706-0.1-16.613-5.19-17.381-7.49-0.288-1.06 5.953-4.9 8.066-5 0.576 0 2.497 0.29 4.225 0.58zm162.48-15.27c1.344 1.25 1.729 2.98 1.729 8.64 0 3.84-0.385 7.01-0.865 7.01-0.576 0-2.784 2.4-5.089 5.28-2.209 2.88-4.417 5.29-4.898 5.29-1.056 0 0.385-15.27 1.921-20.17 1.344-3.94 3.745-7.68 4.897-7.68 0.289 0 1.345 0.67 2.305 1.63zm18.053 25.25c0 0.49-0.48 0.97-1.056 0.97-0.48 0-0.672-0.48-0.384-0.97 0.288-0.57 0.768-0.96 1.056-0.96 0.192 0 0.384 0.39 0.384 0.96zm-171.22-28.03c2.209 1.72 10.843 19.26 10.843 21.47 0 1.82-1.537 1.73-2.305-0.19-0.768-2.12-2.401-0.77-1.825 1.53 1.153 4.42-5.849-5.53-7.769-10.62-0.192-0.58-0.673-0.67-1.057-0.19-1.056 0.96 1.345 5.86 5.666 11.43 2.977 3.93 3.169 4.6 1.633 4.6-2.113 0-9.123-8.35-11.332-13.44-1.632-4.03-1.248-10.47 1.057-13.92 1.824-2.79 2.304-2.88 5.089-0.67zm179.38 16.9c1.152 0.86 1.536 1.82 1.056 2.97-0.48 1.35-0.864 1.54-1.728 0.67-1.729-1.72-2.689-1.44-2.689 0.77 0 1.06-0.384 1.92-0.96 1.92-0.481 0-0.961-0.76-0.961-1.72 0-0.87-0.288-2.6-0.576-3.85-0.48-1.72-0.192-2.11 1.729-2.11 1.248 0 3.169 0.58 4.129 1.35zm-162.38-10.66c0.576 4.32 0.288 5.76-1.344 8.74-1.153 1.92-2.497 3.45-2.881 3.45-0.864 0-3.841-8.16-3.841-10.66 0-1.92 5.569-7.87 6.722-7.1 0.384 0.29 1.056 2.78 1.344 5.57zm146.44-27.08c6.05 4.32 7.202 7.87 6.53 20.26-0.48 12-1.632 14.5-7.394 16.23-2.113 0.67-4.033 0.96-4.321 0.67-0.961-0.86-2.785-18.82-2.785-27.18-0.096-8.06 1.152-12.96 3.169-12.96 0.384 0 2.592 1.35 4.801 2.98zm24.487 11.04c2.017 0.77 1.921 4.51-0.288 8.83-2.016 4.04-11.811 13.64-13.732 13.64-2.593 0-3.457-1.92-2.593-5.57 0.481-1.92 0.865-4.99 0.865-6.72 0-3.65 2.881-6.63 8.93-9.03 4.706-1.92 4.802-1.92 6.818-1.15zm-207.8 0.38c6.434 2.31 7.682 3.84 7.01 8.45-0.864 6.73-1.728 7.21-7.586 4.42-6.146-2.88-12.004-10.94-9.795-13.54 1.441-1.73 4.321-1.53 10.371 0.67zm25.928-3.74c1.248 2.21 0.576 5.95-1.537 9.31l-1.44 2.21-6.914-4.22-1.729 2.3c-0.96 1.25-2.016 3.75-2.4 5.38-0.288 1.82-1.153 3.17-1.921 3.17-2.209 0-1.536-5.86 1.344-10.95 1.825-3.46 3.842-5.38 6.818-7.01 5.186-2.69 6.434-2.78 7.779-0.19zm5.281-6.82c1.729 0.67 2.401 1.44 2.017 2.69-0.288 0.86-0.96 3.46-1.537 5.67-1.344 5.18-2.88 5.37-2.88 0.38 0-4.71-1.825-6.24-6.242-5.57-4.033 0.67-4.418-0.67-0.672-2.59 3.072-1.73 5.857-1.92 9.314-0.58zm179.57-17.96c1.921 1.44 1.633 5.38-1.056 14.7-1.537 5.28-6.434 11.23-9.891 12.19-2.881 0.77-4.705-2.69-2.593-4.99 0.864-0.96 1.537-2.02 1.537-2.4 0-0.39 1.248-2.5 2.784-4.71 3.073-4.51 4.514-8.35 3.169-8.35-0.48 0-1.632 1.73-2.592 3.84-0.961 2.11-2.497 4.51-3.457 5.38-2.209 2.01-2.305 1.44-0.384-2.12 0.768-1.53 1.44-4.03 1.44-5.57 0-1.92 1.056-3.65 3.553-5.95 3.937-3.65 4.897-3.84 7.49-2.02zm-17.381 21.42c0.288 0.86 0.576 2.21 0.576 3.07-0.096 1.35-0.48 1.15-1.92-0.67-1.057-1.15-1.633-2.59-1.345-3.07 0.769-1.35 2.017-1.06 2.689 0.67zm-168.43-24.78c0 3.36-2.496 12.87-4.417 16.9-2.497 5.28-7.202 11.14-9.026 11.14-1.921 0-2.881-4.8-2.113-10.08 0.864-5.57 4.417-11.71 9.315-16.04 2.784-2.49 6.241-3.55 6.241-1.92zm-30.056-1.34c1.248 1.25 3.073 4.22 4.033 6.72 1.056 2.4 2.593 4.42 3.265 4.42 2.497 0 3.553 2.5 4.225 10.18l0.576 7.49-5.281-5.29c-5.282-5.18-7.491-9.69-7.491-15.07 0-1.15-0.384-2.11-0.96-2.11-1.536 0-1.248 12.19 0.288 13.15 3.649 2.12 9.411 7.97 8.835 8.84-1.729 2.88-10.467-6.15-12.484-12.78-1.824-6.14-1.824-13.06 0.096-15.74 1.825-2.6 2.305-2.6 4.898 0.19zm194.94-8.45c6.434 11.04 7.01 12.29 7.01 15.75-0.096 8.06-3.745 15.36-7.682 15.36-2.113 0-5.186-3.36-4.321-4.7 0.288-0.58-0.385-3.75-1.537-7.11-2.881-7.68-3.073-19.11-0.48-23.05 0.96-1.44 2.113-2.59 2.497-2.59 0.48 0 2.496 2.88 4.513 6.34zm-178.04-6.53c1.728 2.97 1.824 3.84 0.672 12.48-1.153 8.84-2.977 14.6-4.706 14.6-0.48 0-1.92-1.73-3.361-3.84-2.784-4.32-3.168-9.13-1.44-17.48 1.248-5.76 3.553-9.51 5.57-9.12 0.768 0.09 2.304 1.63 3.265 3.36zm17.573-2.21c0.288 0.77-0.096 3.46-0.96 5.95-1.441 4.23-3.458 6.82-8.643 10.85-1.729 1.35-1.825 1.35-0.576-0.96 0.672-1.34 1.92-2.88 2.785-3.55 1.056-0.77 1.152-1.15 0.384-1.25-1.729 0-1.537-2.4 0.192-3.84 0.768-0.67 1.44-1.92 1.44-2.78-0.096-2.5-5.761 4.32-6.434 7.68-0.288 1.54-0.96 3.07-1.344 3.36-1.44 0.86-0.96-7.2 0.576-10.28 2.689-5.08 11.235-8.73 12.58-5.18zm174.96-5.57c1.249 2.4 0.288 14.69-1.344 17.57-0.672 1.35-1.537 3.17-1.921 4.04-1.056 2.78-2.688 2.01-5.089-2.6-2.497-4.7-2.017-7.1 0.768-3.55 1.729 2.3 2.977 1.92 2.977-0.96 0-1.06-0.672-1.73-1.921-1.73-2.304 0-2.4-0.77-0.384-3.65 1.921-2.88 0.769-4.7-1.632-2.49-2.497 2.3-2.401 0 0.192-3.65 1.824-2.5 4.609-4.32 6.818-4.52 0.384-0.09 1.056 0.68 1.536 1.54zm-11.139 11.04c-0.672 0.67-1.152 0.77-1.152 0.19 0-0.57 0.288-1.34 0.672-1.63 0.288-0.38 0.864-0.48 1.152-0.19 0.192 0.29-0.096 1.06-0.672 1.63zm-23.047-21.6c0.672 0.48 2.593 1.44 4.225 2.11 3.458 1.34 9.603 7.11 10.468 9.7 0.576 1.82-4.034 9.5-5.762 9.6-0.48 0-2.593-0.67-4.802-1.44-4.417-1.73-6.818-4.99-9.986-13.64-1.249-3.26-2.785-6.53-3.554-7.1-0.768-0.58-1.344-1.63-1.344-2.31 0-0.86 1.248-0.76 4.705 0.48 2.689 0.87 5.378 2.02 6.05 2.6zm19.974-15.27c0 1.05 0.672 3.17 1.537 4.8 0.768 1.73 1.728 6.91 2.016 11.72 0.48 7.1 0.288 9.31-1.152 12.48-1.921 4.22-3.841 4.99-4.61 1.63-0.192-1.15-0.768-2.88-1.152-3.74-0.48-1.25-0.096-1.83 1.825-2.31 2.208-0.48 2.496-1.06 2.496-4.42 0-2.59-0.384-3.64-1.152-3.36-0.672 0.2-1.152 1.54-0.96 2.98 0.288 2.69-1.153 3.46-2.113 0.96-0.288-0.86-0.576-4.03-0.576-7.2s-0.384-5.67-0.96-5.67c-0.961 0-1.441 4.8-1.057 10.57 0.192 3.26 0.192 3.26-1.728 1.53-3.745-3.36-2.497-11.23 2.881-17.95 3.265-4.13 4.705-4.71 4.705-2.02zm-159.22 5.28c-0.48 7.59-3.841 14.6-9.699 20.17-5.185 4.99-8.066 5.57-8.546 1.72-0.288-1.82 0-2.11 1.344-1.63 2.497 0.96 4.706-1.73 8.067-9.89 2.304-5.76 2.784-7.97 2.016-9.79-0.768-2.02-0.96-2.12-1.536-0.58-0.384 0.86-1.921 2.98-3.457 4.61-1.537 1.63-3.265 4.8-3.841 6.91-1.729 6.53-1.825 6.72-2.401 6.15-1.248-1.25 1.056-9.6 3.649-13.64 3.361-5.09 10.083-10.27 12.772-9.89 1.728 0.29 1.92 0.87 1.632 5.86zm-20.934 5.09c0.96 2.4 0.672 13.25-0.384 14.79-0.864 1.25-1.056 1.25-1.921 0-0.48-0.77-0.96-3.08-0.96-5.09 0-1.92-0.48-3.55-1.056-3.55-0.672 0-0.96 2.11-0.672 5.95 0.288 6.62-1.153 8.35-3.073 3.74-2.209-5.28 1.824-17.28 5.857-17.38 0.865 0 1.921 0.68 2.209 1.54zm9.699 6.05c-0.864 2.69-1.921 4.9-2.401 4.9-0.864 0 0.576-6.05 2.113-8.93 1.728-3.37 1.92-0.87 0.288 4.03zm-14.116-15.08c1.728 1.73 1.44 3.46-1.249 6.92-1.344 1.73-3.072 5.18-3.937 7.68-0.864 2.5-1.92 4.13-2.496 3.84-1.441-0.96-0.289-10.08 2.016-15.17 1.921-4.42 3.553-5.38 5.666-3.27zm173.04 12.77c0 0.77-0.384 1.44-0.961 1.44-0.48 0-0.96-0.67-0.96-1.44 0-0.76 0.48-1.44 0.96-1.44 0.577 0 0.961 0.68 0.961 1.44zm-2.401-3.64c-0.768 3.26-1.248 3.74-2.305 2.59-1.056-1.06 0.384-5.19 1.921-5.19 0.672 0 0.864 0.96 0.384 2.6zm-7.586-5.38c1.824 1.05 3.265 2.59 3.265 3.36 0 1.73-2.785 2.98-3.745 1.63-0.288-0.48-1.345-1.15-2.209-1.54-1.056-0.38-1.729-1.63-1.729-3.07 0-2.88 0.289-2.97 4.418-0.38zm-129.93 0.38c-1.537 3.27-3.169 4.42-3.169 2.4 0-0.57 0.672-2.3 1.44-3.93 2.113-4.04 3.649-2.5 1.729 1.53zm123.59-1.44c0 4.23-1.921 5.86-4.705 4.13-2.401-1.54-1.825-3.94 1.344-5.95 1.632-1.06 2.977-1.92 3.169-1.92 0.096-0.1 0.192 1.63 0.192 3.74zm-8.643 1.92c0 1.06-0.384 1.92-0.96 1.92-0.48 0-0.96-0.86-0.96-1.92 0-1.05 0.48-1.92 0.96-1.92 0.576 0 0.96 0.87 0.96 1.92zm-3.841 0c0 0.48-1.056 0.96-2.4 0.96-1.345 0-2.401-0.48-2.401-0.96 0-0.57 1.056-0.96 2.401-0.96 1.344 0 2.4 0.39 2.4 0.96zm-123.88-28.81c0 0.48-0.384 0.96-0.864 0.96-1.345 0-5.666 6.92-6.338 10.09-0.48 2.4-0.192 2.2 1.824-1.54 3.265-6.05 4.994-7.39 7.01-5.38 1.921 1.83 3.361 10.66 2.305 13.45-0.48 1.25-2.977 3.07-6.146 4.41-3.169 1.44-5.57 3.08-5.858 4.23s-1.056 1.63-2.208 1.44c-1.441-0.29-1.729-1.25-1.633-5.95 0.096-2.98 0.576-5.96 1.249-6.63 0.576-0.58 1.056-1.92 1.056-2.88 0-1.06 0.96-3.46 2.113-5.38 3.553-6.05 7.49-9.6 7.49-6.82zm144.23-0.38c5.378 4.99 8.259 10.56 9.027 17.38 0.48 5.09 0.8 10.34-0.353 10.34-2.4 0-4.16-6.69-5.313-12.84-0.672-3.45-1.632-5.85-2.304-5.85-1.153 0-1.057 2.88 0.288 8.16 1.824 6.91 2.016 9.12 0.768 9.12-0.672 0-1.633-2.11-2.209-5.09-1.536-7.39-4.321-16.03-5.089-16.03-1.057 0-1.057 0.09 1.248 9.31 1.921 8.26 1.921 9.7-0.096 8.45s-3.841-7.01-3.841-11.91c0-6.05 1.92-14.5 3.265-14.5 0.576 0 2.689 1.54 4.609 3.46zm-20.262 8.93c1.249 0.96 3.745 2.11 5.57 2.5 1.92 0.38 3.361 1.34 3.649 2.49 0.288 0.96 0.96 1.83 1.44 1.83 0.481 0 0.769 1.34 0.577 3.07-0.288 2.88-0.673 3.27-5.762 4.8-5.474 1.64-5.57 1.64-10.371-0.57-2.593-1.25-5.474-2.79-6.338-3.56-0.864-0.67-2.401-1.73-3.553-2.3-2.881-1.44-2.977-2.69-0.288-5.57 1.536-1.63 3.457-2.59 5.089-2.59 1.441 0 3.361-0.48 4.13-0.96 2.112-1.35 3.265-1.16 5.857 0.86zm-92.091 0.67c1.441 0.77 2.689 1.83 2.689 2.31 0 2.01-9.603 8.45-13.636 9.12-2.305 0.38-5.858 1.34-7.97 2.11-3.553 1.25-3.842 1.25-5.474-0.86-2.593-3.36-2.113-5.09 2.593-9.22 6.53-5.67 14.884-7.01 21.798-3.46zm-10.467-21.22c0.576 3.74-0.672 9.22-2.977 12.87-2.785 4.41-9.507 10.95-10.659 10.27-1.92-1.25-1.152-3.36 0.96-2.78 2.017 0.57 2.113 0.38 1.633-6.44-0.576-7.49 0.096-9.6 4.417-14.5 3.457-3.84 5.954-3.65 6.626 0.58zm103.62 0.58c6.241 6.43 7.874 9.41 8.93 16.42 0.576 3.55 0.384 4.61-0.576 4.61-2.209 0-3.553-1.35-3.841-3.75-0.192-1.34-0.96-2.49-1.633-2.78-0.864-0.29-1.056 0.29-0.576 2.2 0.48 2.02 0.384 2.6-0.672 2.21-0.768-0.28-1.92-2.68-2.689-5.37-1.536-5.57-3.457-6.82-2.4-1.64 0.48 2.6 0.288 3.37-0.769 3.37-1.824 0-4.609-6.82-5.281-13.16-1.057-9.89 1.344-10.37 9.507-2.11zm-29.961 6.53c0 0.96 6.242 7.2 8.45 8.45 1.153 0.67 3.169 1.25 4.514 1.25 3.745 0 2.88 2.4-1.441 3.84-2.977 0.96-4.417 1.05-6.242 0.19-1.344-0.67-4.321-1.15-6.53-1.25-4.033 0-15.46-2.69-17.669-4.03-2.112-1.35-1.44-2.4 3.841-5.86 4.13-2.69 5.858-3.27 10.083-3.17 2.689 0 4.994 0.29 4.994 0.58zm-48.687 7.29c3.938 0.58 10.179 4.81 8.931 5.96-0.96 0.96-13.636-1.44-16.805-3.08-3.553-1.72-4.513-4.41-2.401-5.95 1.345-0.96 2.017-0.86 3.938 0.67 1.248 0.96 4.129 2.12 6.337 2.4zm7.875-7.1c3.457 3.07 5.377 6.05 6.626 10.18 0.96 3.17-0.865 2.78-5.378-1.06-2.689-2.4-5.089-3.46-8.546-3.94-3.265-0.48-5.09-1.25-5.762-2.59-1.152-2.11-0.96-2.4 2.209-4.22 3.841-2.02 7.202-1.54 10.851 1.63zm-24.872 5.66c1.537 0 2.785 0.96 3.842 2.98 1.536 3.07 1.536 3.07-0.769 2.4-1.152-0.38-4.129-0.96-6.53-1.15-6.626-0.77-7.01-0.96-5.761-3.36 0.96-1.63 1.728-1.92 4.033-1.44 1.632 0.29 3.937 0.57 5.185 0.57zm87.77 1.35c0 0.67-0.672 1.82-1.44 2.5-1.152 0.95-1.441 0.86-1.441-0.68 0-1.05 0.289-2.21 0.673-2.49 1.056-1.16 2.208-0.77 2.208 0.67zm-110.43-1.15c-0.096 3.84-0.192 4.03-1.441 2.3-1.92-2.5-1.824-6.34 0-6.34 1.057 0 1.441 1.06 1.441 4.04zm88.826-25.84c3.553 1.73 13.924 14.22 13.924 16.71 0 0.39 0.672 1.35 1.536 2.31 1.057 1.15 1.345 2.59 0.865 4.61-1.249 5.66-4.514 5.18-11.62-1.63-2.688-2.6-5.761-5.29-6.914-5.86-1.152-0.58-2.112-1.54-2.112-2.12 0-0.48-1.057-2.59-2.401-4.51-2.209-3.26-3.265-9.6-1.825-11.04 0.769-0.67 5.954 0.19 8.547 1.53zm-49.071 3.46c1.249 1.92-2.496 10.85-5.953 14.31-3.841 3.84-11.812 6.62-15.557 5.47-2.593-0.86-2.689-5.76 0-7.2 1.056-0.58 1.921-1.82 1.921-2.78 0-5 17.285-13.54 19.589-9.8z" fill-rule="nonzero"/>
        </g>
        <g transform="translate(465.48 1764)">
            <path d="m50.32-1415.5c-0.638-1.2-1.153-2.33-1.545-3.38h2.386l-0.096-8.54c-0.062-4.08-0.243-6.77-0.697-8.63v-39.59h56.639c-0.33 3.98-0.946 7.77-1.846 11.37-1.423 5.69-2.135 9.65-2.135 11.86v13.28c0 1.9-0.869 3.56-2.609 4.98-1.226 1.01-2.019 3.3-2.381 6.9-1.005 0.34-2.146 0.85-3.278 1.5-3.361 1.92-7.491 7.97-6.338 9.12 0.768 0.87 6.626-4.13 8.162-6.91 0.346-0.64 0.819-1.23 1.301-1.66-0.05 0.98-0.075 2.03-0.075 3.15 0 0.29 0.024 0.59 0.073 0.9-2.102 1.78-4.549 3.82-6.292 5.29-4.706 3.75-7.106 7.88-5.57 9.41 1.248 1.25 9.507-1.05 12.388-3.45 1.324-1.09 2.609-2.27 3.811-3.49 0.186 0.2 0.376 0.4 0.571 0.59 0.331 0.33 0.667 0.65 1.006 0.96l-4.332 4.15 4.705 2.3c5.282 2.69 12.58 3.94 14.693 2.59 1.248-0.77 1.248-1.05-0.096-2.11-0.278-0.22-0.596-0.59-0.921-1.06l3.684 1c8.855 4.11 13.283 10.75 13.283 19.92 0 3.8-2.609 6.88-7.828 9.25-5.218 2.38-10.515 3.56-15.892 3.56h-26.092l-17.553-5.21c-1.897 0-4.586 0.47-8.065 1.42-3.478 0.95-7.116 2.05-10.911 3.32-3.795 1.26-7.274 2.37-10.437 3.32-3.162 0.95-5.218 1.42-6.167 1.42-1.897 0-4.507-1.03-7.827-3.08-3.321-2.06-4.982-4.19-4.982-6.4 0-3.48 1.819-6.57 5.456-9.26 3.637-2.68 7.59-5.37 11.86-8.06 0.953-0.6 1.874-1.21 2.763-1.84 1.631 1.58 5.397 2.61 11.064 2.84 7.971 0.38 14.693-1.15 16.229-3.55 1.441-2.21-0.096-3.17-2.016-1.35-1.921 1.63-9.507 3.46-8.643 1.92 0.288-0.48 2.305-1.73 4.513-2.69 2.113-0.96 3.842-2.11 3.842-2.59 0-1.34-3.746-0.86-7.683 1.15-3.841 2.02-6.434 2.31-9.026 1.35-2.977-1.15-1.441-2.31 3.073-2.31 2.88 0 5.665-0.77 7.778-2.01l3.361-2.02-2.401-1.82c-1.248-0.97-2.689-1.83-3.265-1.73-1.118 0-3.489 0.73-6.042 1.75 0.367-0.96 0.606-1.98 0.717-3.04 0.092 0 0.221-0.05 0.267-0.1 0.045-0.04 0.135-0.02 0.189-0.04 0.19-0.06 0.378-0.11 0.546-0.2 0.272-0.13 0.527-0.11 0.733-0.38 0.241-0.32 0.25-0.74 0.211-1.14-0.08-0.82-0.166-1.66-0.951-2.14-0.358-0.22-0.668-0.5-1.051-0.69-0.08-0.04-0.169-0.07-0.261-0.1zm24.752 19.62c1.632 2.69-1.056 6.14-6.05 7.97-11.715 4.13-16.709 5.37-17.573 4.51-1.633-1.63-0.096-2.78 6.434-4.99 3.841-1.25 7.682-3.46 10.275-5.76 4.321-3.94 5.281-4.23 6.914-1.73zm31.785 2.88c0.864 2.78 0.864 4.51 0 4.61-0.48 0-1.056-0.77-1.248-1.92-0.48-2.79-3.073-2.4-3.073 0.48 0 1.34-0.384 2.4-0.96 2.4-1.057 0-1.345-5.09-0.288-6.05 1.056-1.16 5.089-0.77 5.569 0.48zm-12.003-3.27c3.553 1.73 4.417 3.65 2.88 5.96-0.864 1.24-1.152 1.24-2.304-0.2-0.864-1.25-2.113-1.53-4.61-1.15-4.033 0.67-8.45-1.73-8.45-4.51 0-1.54 0.768-1.83 4.609-1.83 2.497 0 6.05 0.77 7.875 1.73zm5.761-5.09c0 2.31-0.48 3.36-1.44 3.36-0.768 0-1.441-0.57-1.441-1.25 0-0.57-0.288-2.11-0.576-3.36-0.48-1.72-0.192-2.11 1.441-2.11 1.632 0 2.016 0.58 2.016 3.36zm-21.414-4.61c-0.096 2.6 0.192 5.38 0.672 6.25 0.576 1.24 0.384 1.72-0.576 1.72-3.361 0-4.705-4.8-2.689-9.98 1.441-3.94 2.785-2.88 2.593 2.01zm15.269 5.86c-0.385 0.29-1.057 0.1-1.729-0.57-0.768-0.77-0.768-1.45 0.288-2.69 1.248-1.54 1.345-1.54 1.633 0.48 0.192 1.24 0.096 2.4-0.192 2.78zm-32.074-27.08c1.921 1.25 4.609 3.75 6.05 5.57 3.745 4.9 5.57 12.77 2.209 9.41-0.673-0.67-1.537-1.15-1.921-1.15-1.633 0-0.672 2.02 2.113 4.42 2.208 2.01 2.688 3.07 2.208 5.09-0.768 3.45-0.864 3.55-3.745 0.96-11.427-10.09-15.749-16.14-15.749-21.99 0-2.5 0.289-4.81 0.673-5.09 0.864-0.96 4.033 0.09 8.162 2.78zm21.799 17.77c-1.729 3.36-0.769 6.14 2.208 6.14 1.441 0 2.785 0.39 2.881 0.96 0.384 1.35-6.242 1.54-7.106 0.19-1.825-2.78 0.096-11.04 2.209-9.79 0.48 0.38 0.48 1.34-0.192 2.5zm14.678-8.81 0.384 0.73c-1.494 1.96-6.318 6.06-7.476 6.06-0.672 0 0.672-1.73 3.073-3.75 1.635-1.44 3.137-2.56 4.019-3.04zm-12.662-4.25c2.113 2.49-1.152 8.16-4.513 8.16-1.537 0-3.361 0.38-4.129 0.96-1.921 1.15-3.842-0.58-3.842-3.46 0-1.82 1.057-2.88 4.61-4.61 5.473-2.78 6.338-2.88 7.874-1.05z"/>
        </g>
    </g>
</svg>