<?xml version="1.0" encoding="UTF-8" standalone="no"?>
<!DOCTYPE svg PUBLIC "-//W3C//DTD SVG 1.1//EN" "http://www.w3.org/Graphics/SVG/1.1/DTD/svg11.dtd">
<svg width="100%" height="100%" viewBox="0 0 34 34" version="1.1" xmlns="http://www.w3.org/2000/svg" xmlns:xlink="http://www.w3.org/1999/xlink" xml:space="preserve" xmlns:serif="http://www.serif.com/" style="fill-rule:evenodd;clip-rule:evenodd;stroke-linejoin:round;stroke-miterlimit:2;">
    <g transform="matrix(4.16667,0,0,4.16667,-1605.91,-1742.52)">
        <path d="M386.726,421.857C386.904,421.4 386.684,421.078 386.409,420.735C386.349,420.852 386.291,420.942 386.252,421.042C385.999,421.708 386.073,421.668 386.622,421.831C386.652,421.839 386.682,421.846 386.726,421.857M392.079,421.842C392.846,421.714 392.804,421.623 392.564,421C392.531,420.915 392.479,420.838 392.425,420.737C392.146,421.072 391.947,421.396 392.079,421.842M390.557,419.042C389.62,419.74 389.312,419.74 388.298,419.022C388.319,419.125 388.344,419.23 388.401,419.313C388.631,419.648 388.961,419.86 389.322,420.026C389.377,420.051 389.472,420.052 389.517,420.021C389.819,419.802 390.122,419.58 390.408,419.341C390.486,419.274 390.509,419.143 390.557,419.042M388.313,420.237C388.137,420.015 387.946,419.814 387.801,419.583C387.566,419.207 387.511,419.169 387.105,419.377C386.927,419.468 386.776,419.614 386.617,419.741C386.526,419.813 386.536,419.884 386.613,419.979C386.816,420.229 387.001,420.493 387.197,420.75C387.226,420.789 387.274,420.835 387.318,420.839C387.684,420.876 388.15,420.584 388.313,420.237M392.294,419.844C392.064,419.51 391.733,419.332 391.341,419.259C391.287,419.249 391.195,419.278 391.166,419.32C390.954,419.628 390.756,419.943 390.532,420.286C390.719,420.61 391.051,420.802 391.48,420.832C391.528,420.836 391.597,420.8 391.627,420.761C391.848,420.466 392.061,420.165 392.294,419.844M387.62,424.413C387.593,424.491 387.571,424.549 387.554,424.609C387.451,424.992 387.444,425.008 387.802,425.183C388.804,425.674 389.83,425.677 390.856,425.27C391.399,425.054 391.404,425.009 391.235,424.46C391.231,424.447 391.216,424.438 391.201,424.421C390.016,425.019 388.827,425.024 387.62,424.413M388.905,420.555C388.605,421.052 388.188,421.341 387.673,421.459C387.467,421.505 387.423,421.6 387.415,421.772C387.384,422.35 387.449,422.918 387.632,423.468C387.671,423.585 387.758,423.709 387.858,423.779C388.689,424.359 390.098,424.368 390.945,423.806C391.02,423.757 391.111,423.691 391.139,423.614C391.363,422.985 391.465,422.337 391.397,421.669C391.39,421.604 391.319,421.503 391.263,421.491C390.697,421.368 390.255,421.071 389.928,420.567C389.593,420.83 389.254,420.846 388.905,420.555M392.069,422.601C391.979,422.986 391.877,423.413 391.783,423.841C391.77,423.897 391.786,423.964 391.801,424.022C391.885,424.349 391.958,424.679 392.063,424.999C392.117,425.167 392.072,425.263 391.948,425.364C391.4,425.804 390.767,426.052 390.08,426.153C389.023,426.308 388.029,426.121 387.121,425.538C387.095,425.521 387.067,425.505 387.041,425.488C386.71,425.249 386.707,425.242 386.816,424.849C386.82,424.834 386.825,424.819 386.831,424.804C387.063,424.232 387.057,423.655 386.871,423.07C386.817,422.9 386.808,422.717 386.782,422.552C386.528,422.478 386.28,422.425 386.049,422.335C385.444,422.099 385.316,421.871 385.49,421.255C385.59,420.897 385.764,420.559 385.923,420.167C385.944,420.222 385.943,420.213 385.939,420.206C385.676,419.888 385.668,419.859 385.943,419.523C386.366,419.004 386.898,418.676 387.575,418.574C387.78,418.544 387.979,418.417 388.165,418.307C388.425,418.154 388.569,418.171 388.721,418.415C389.107,419.034 389.722,419.037 390.11,418.419C390.264,418.176 390.421,418.142 390.663,418.31C390.885,418.463 391.117,418.555 391.392,418.604C392.136,418.738 392.701,419.16 393.076,419.819C393.107,419.874 393.076,419.982 393.042,420.049C393.009,420.115 392.933,420.159 392.87,420.219C393.169,420.639 393.345,421.09 393.406,421.595C393.434,421.831 393.379,422.014 393.182,422.113C392.828,422.289 392.458,422.433 392.069,422.601" style="fill:rgb(35,31,32);"/>
    </g>
</svg>
