<?xml version="1.0" encoding="UTF-8" standalone="no"?>
<!DOCTYPE svg PUBLIC "-//W3C//DTD SVG 1.1//EN" "http://www.w3.org/Graphics/SVG/1.1/DTD/svg11.dtd">
<svg width="100%" height="100%" viewBox="0 0 50 50" version="1.1" xmlns="http://www.w3.org/2000/svg" xmlns:xlink="http://www.w3.org/1999/xlink" xml:space="preserve" style="fill-rule:evenodd;clip-rule:evenodd;stroke-linejoin:round;stroke-miterlimit:2;">
    <g transform="matrix(2.11398,0,0,2.11398,4.60438,41.3167)">
        <path d="M0,-15.437C2.382,-15.327 4.765,-15.22 7.146,-15.105C9.135,-15.009 11.123,-14.89 13.112,-14.805C13.748,-14.778 13.436,-15.278 13.539,-15.637C12.441,-15.708 11.399,-15.801 10.355,-15.832C9.899,-15.845 9.546,-15.955 9.187,-16.253C8.018,-17.226 6.814,-18.156 5.622,-19.099C5.55,-19.156 5.463,-19.193 5.383,-19.24C5.412,-19.28 5.441,-19.32 5.47,-19.361C9.229,-17.975 12.989,-16.59 16.619,-15.253C17.031,-16.078 17.394,-16.869 17.821,-17.624C17.97,-17.886 18.256,-18.093 18.52,-18.264C19.432,-18.853 20.435,-18.583 20.958,-17.632C21.827,-16.056 21.101,-13.371 19.531,-12.507C19.191,-12.321 18.747,-12.324 18.351,-12.239C18.168,-12.2 17.939,-12.217 17.809,-12.113C16.272,-10.881 14.75,-9.63 13.123,-8.302C15.063,-7.761 16.914,-7.245 18.905,-6.69C15.054,-4.359 11.31,-2.092 7.565,0.174C7.541,0.151 7.517,0.127 7.492,0.103C8.391,-1.219 9.289,-2.541 10.213,-3.901C10.432,-3.738 10.636,-3.586 10.839,-3.435C10.803,-3.48 10.767,-3.525 10.73,-3.57C11.387,-4.145 12.045,-4.721 12.78,-5.365C11.915,-5.563 11.16,-5.757 10.394,-5.894C10.237,-5.922 10.019,-5.763 9.869,-5.642C7.52,-3.738 5.178,-1.827 2.834,0.084C1.238,1.384 -0.358,2.684 -2.034,3.924C-1.258,2.404 -0.481,0.882 0.323,-0.693C0.585,-0.4 0.804,-0.154 1.067,0.141C4.318,-3.916 7.559,-7.96 10.835,-12.049C7.169,-13.147 3.581,-14.222 -0.009,-15.296L0,-15.437Z" style="fill:rgb(35,31,32);"/>
    </g>
</svg>
