<?xml version="1.0" encoding="UTF-8" standalone="no"?>
<!DOCTYPE svg PUBLIC "-//W3C//DTD SVG 1.1//EN" "http://www.w3.org/Graphics/SVG/1.1/DTD/svg11.dtd">
<svg width="100%" height="100%" viewBox="0 0 50 50" version="1.1" xmlns="http://www.w3.org/2000/svg" xmlns:xlink="http://www.w3.org/1999/xlink" xml:space="preserve" xmlns:serif="http://www.serif.com/" style="fill-rule:evenodd;clip-rule:evenodd;stroke-linejoin:round;stroke-miterlimit:2;">
    <g transform="matrix(1.36584,0,0,1.36584,-13.859,-16.94)">
        <g>
            <path d="M28.45,12.402C38.552,12.402 46.754,20.604 46.754,30.706C46.754,40.808 38.552,49.01 28.45,49.01C18.348,49.01 10.147,40.808 10.147,30.706C10.147,20.604 18.348,12.402 28.45,12.402ZM35.385,42.077L33.175,42.077C32.439,42.077 31.972,42.006 31.776,41.865C31.579,41.723 31.465,41.38 31.435,40.836C32.434,40.594 33.233,40.243 33.834,39.784C34.434,39.325 34.84,38.707 35.052,37.93C35.264,37.154 35.369,35.676 35.369,33.497L35.369,25.537C35.369,23.953 35.286,22.76 35.12,21.958C34.953,21.156 34.595,20.382 34.045,19.636C33.496,18.889 32.663,18.274 31.549,17.789C30.434,17.305 29.165,17.063 27.743,17.063C26.563,17.063 25.488,17.26 24.52,17.653C23.551,18.047 22.759,18.629 22.144,19.401C21.529,20.173 21.122,20.995 20.926,21.868C20.729,22.74 20.631,24.009 20.631,25.673L20.631,33.254C20.631,35.454 20.797,37.106 21.13,38.21C21.463,39.315 22.149,40.225 23.188,40.942C24.227,41.658 25.468,42.036 26.911,42.077C26.911,42.995 26.994,43.63 27.16,43.983C27.327,44.336 27.647,44.601 28.121,44.778C28.595,44.954 29.412,45.042 30.573,45.042L35.385,45.042L35.385,42.077ZM28.999,23.873L28.999,35.131C28.999,36.573 28.938,37.486 28.817,37.87C28.696,38.253 28.419,38.445 27.985,38.445C27.561,38.445 27.291,38.278 27.175,37.945C27.059,37.613 27.001,36.735 27.001,35.312L27.001,23.873C27.001,22.612 27.09,21.852 27.266,21.595C27.443,21.338 27.697,21.209 28.03,21.209C28.424,21.209 28.684,21.368 28.81,21.686C28.936,22.004 28.999,22.733 28.999,23.873Z" style="fill:rgb(251,194,46);"/>
        </g>
    </g>
</svg>
