<?xml version="1.0" encoding="UTF-8" standalone="no"?>
<!DOCTYPE svg PUBLIC "-//W3C//DTD SVG 1.1//EN" "http://www.w3.org/Graphics/SVG/1.1/DTD/svg11.dtd">
<svg width="100%" height="100%" viewBox="0 0 297 297" version="1.1" xmlns="http://www.w3.org/2000/svg" xmlns:xlink="http://www.w3.org/1999/xlink" xml:space="preserve" xmlns:serif="http://www.serif.com/" style="fill-rule:evenodd;clip-rule:evenodd;stroke-linejoin:round;stroke-miterlimit:2;">
    <path d="M89.535,181.31L88.495,240.674L120.976,266.419L255.262,261.877L277.28,248.852L283.761,178.434L89.535,181.31Z" style="fill:rgb(124,153,57);"/>
    <path d="M106.722,34.433L159.224,53.894L44.074,219.07L8.975,177.18L106.722,34.433Z" style="fill:rgb(124,153,57);"/>
    <path d="M197.278,80.427L194.059,109.883L155,131.009L132.23,148.254L129.422,174.823L261.3,177.295L262.9,158.261L237.669,127.737L228.764,88.077L197.278,80.427Z" style="fill:white;"/>
    <path d="M286.841,168.466L273.898,168.466C273.346,151.12 264.785,135.017 250.898,124.842C250.901,124.61 250.903,124.378 250.903,124.147C250.903,93.127 225.667,67.891 194.647,67.891C191.565,67.891 188.649,69.291 186.721,71.696C184.792,74.101 184.06,77.251 184.731,80.259C187.08,90.808 185.909,99 181.148,105.303C171.181,118.496 148.619,119.945 148.422,119.957C146.85,120.038 145.317,120.484 143.946,121.26C126.821,130.946 115.995,148.914 115.374,168.467L92.424,168.467L167.223,59.83C168.751,57.611 169.335,54.875 168.846,52.226C168.357,49.577 166.836,47.23 164.617,45.702L145.372,32.451C124.61,18.154 96.088,23.417 81.792,44.179L8.047,151.283C-6.248,172.046 -0.987,200.567 19.775,214.862L39.021,228.114C40.727,229.289 42.739,229.906 44.782,229.906C45.396,229.906 46.013,229.85 46.625,229.737C49.274,229.248 51.621,227.727 53.149,225.508L75.531,193.001L75.531,226.881C75.531,252.089 96.039,272.597 121.247,272.597L251.284,272.597C276.492,272.597 297,252.089 297,226.881L297,178.625C297,173.014 292.451,168.466 286.841,168.466ZM42.176,205.618L31.298,198.128C19.764,190.186 16.841,174.341 24.783,162.806L98.527,55.701C106.468,44.167 122.314,41.242 133.85,49.186L144.727,56.675L42.176,205.618ZM152.184,140.009C160.249,139.111 184.061,135.042 197.279,117.654C203.228,109.828 206.218,100.608 206.225,90.121C220.379,94.95 230.585,108.378 230.585,124.146C230.585,125.63 230.48,127.196 230.272,128.799C229.743,132.897 231.749,136.908 235.347,138.943C246.107,145.028 252.963,156.225 253.573,168.465L135.717,168.465C136.293,156.908 142.44,146.281 152.184,140.009ZM276.682,188.784L276.682,205.039L95.849,205.039L95.849,188.784L276.682,188.784ZM251.284,252.278L121.247,252.278C107.242,252.278 95.849,240.885 95.849,226.88L95.849,219.261L276.681,219.261L276.681,226.88C276.682,240.885 265.288,252.278 251.284,252.278Z" style="fill-rule:nonzero;"/>
</svg>
