<svg xmlns="http://www.w3.org/2000/svg" width="100%" height="100%" viewBox="0 0 459 459" fill-rule="nonzero" stroke-linejoin="round" stroke-miterlimit="2"><path d="M276.606 216.249c-.837-3.123-1.959-6.091-3.313-8.904l92.872-86.262a15 15 0 0 0 .782-21.198c-5.639-6.069-15.128-6.42-21.198-.782l-92.861 86.25c-10.948-6.32-23.822-8.281-36.034-5.657-4.6.988-9.042 2.641-12.827 4.619l-41.106-41.594c-5.823-5.892-15.32-5.947-21.212-.124-3.976 3.929-5.294 9.528-3.945 14.565a14.93 14.93 0 0 0 3.819 6.647l41.13 41.619c-5.892 10.998-7.796 24.162-4.32 37.136 7.255 27.076 35.186 43.202 62.262 35.947s43.203-35.186 35.948-62.262zM207.373 234.8c-2.981-11.125 3.684-22.56 14.734-25.521 11.237-3.011 22.585 3.778 25.521 14.735 2.974 11.098-3.636 22.546-14.735 25.52s-22.546-3.636-25.52-14.734zM229.5 0C102.751 0 0 102.751 0 229.5S102.751 459 229.5 459 459 356.249 459 229.5 356.249 0 229.5 0zm141.068 370.568c-34.123 34.123-78.43 54.362-126.068 57.879l.001-23.175c0-8.284-6.715-15-15-15s-15 6.716-15 15l-.001 23.175c-47.637-3.518-91.945-23.756-126.067-57.879S34.071 292.137 30.553 244.5h23.174c8.284 0 15-6.716 15-15s-6.716-15-15-15H30.553c3.518-47.638 23.756-91.945 57.879-126.068S166.863 34.07 214.5 30.552v23.174c0 8.284 6.716 15 15 15s15-6.716 15-15V30.553c47.637 3.517 91.944 23.756 126.067 57.879s54.362 78.43 57.879 126.068h-23.174c-8.284 0-15 6.716-15 15s6.716 15 15 15h23.174c-3.516 47.637-23.755 91.945-57.878 126.068z"/></svg>