<?xml version="1.0" encoding="UTF-8" standalone="no"?>
<!DOCTYPE svg PUBLIC "-//W3C//DTD SVG 1.1//EN" "http://www.w3.org/Graphics/SVG/1.1/DTD/svg11.dtd">
<svg width="100%" height="100%" viewBox="0 0 1280 1166" version="1.1" xmlns="http://www.w3.org/2000/svg" xmlns:xlink="http://www.w3.org/1999/xlink" xml:space="preserve" xmlns:serif="http://www.serif.com/" style="fill-rule:evenodd;clip-rule:evenodd;stroke-linejoin:round;stroke-miterlimit:2;">
    <g transform="matrix(0.1,0,0,-0.1,-57.8866,1268.78)">
        <path d="M6405,11653C5867,11620 5413,11535 4950,11380C3381,10856 2178,9669 1655,8130C1527,7756 1452,7413 1404,6980C1382,6786 1379,6259 1399,6070C1464,5445 1610,4930 1867,4415C2087,3975 2356,3602 2704,3254C3192,2767 3764,2414 4410,2202C4731,2096 4955,2046 5300,2003C5480,1981 6012,1978 6185,1998C6962,2090 7623,2365 8210,2838C8347,2949 8577,3176 8694,3316C9274,4010 9581,4916 9529,5784C9495,6355 9330,6857 9026,7315C8577,7992 7893,8441 7113,8570C6562,8661 6021,8579 5551,8334C5132,8116 4806,7784 4610,7379C4351,6840 4342,6204 4587,5715C4813,5266 5222,4965 5683,4909C5878,4885 6122,4941 6397,5072C6899,5310 7075,5815 6830,6315C6701,6579 6487,6720 6215,6720C6068,6720 5931,6676 5827,6596C5800,6575 5776,6561 5773,6563C5764,6573 5821,6814 5844,6867C5874,6931 5977,7042 6067,7106C6433,7369 7026,7327 7505,7005C7612,6933 7745,6809 7829,6703C8088,6373 8213,5975 8197,5525C8168,4686 7666,3937 6885,3564C6318,3294 5677,3242 5020,3411C4338,3588 3733,4003 3324,4575C2796,5313 2600,6248 2775,7195C2923,7994 3327,8733 3914,9279C4503,9827 5258,10179 6090,10294C6389,10335 6860,10340 7150,10305C8535,10138 9727,9409 10473,8275C10913,7605 11172,6858 11262,6000C11282,5805 11279,5235 11257,5030C11229,4780 11184,4528 11127,4305C11078,4117 11075,4098 11075,3980C11075,3868 11078,3846 11104,3771C11174,3566 11339,3410 11556,3343C11647,3315 11833,3318 11925,3348C12119,3413 12274,3554 12347,3733C12407,3880 12520,4403 12559,4715C12601,5047 12605,5127 12605,5555C12605,5993 12597,6123 12549,6450C12383,7605 11907,8677 11169,9561C11034,9722 10753,10009 10570,10172C10192,10509 9769,10795 9299,11031C8581,11392 7822,11597 7015,11650C6878,11659 6527,11661 6405,11653Z" style="fill:url(#_Radial1);fill-rule:nonzero;"/>
    </g>
    <defs>
        <radialGradient id="_Radial1" cx="0" cy="0" r="1" gradientUnits="userSpaceOnUse" gradientTransform="matrix(11219.4,0,0,9673.4,1385.61,6821.31)"><stop offset="0" style="stop-color:rgb(255,0,155);stop-opacity:1"/><stop offset="0.67" style="stop-color:rgb(189,0,246);stop-opacity:1"/><stop offset="1" style="stop-color:rgb(182,0,255);stop-opacity:1"/></radialGradient>
    </defs>
</svg>
