<svg viewBox="0 0 50 50" xmlns="http://www.w3.org/2000/svg" xml:space="preserve" style="fill-rule:evenodd;clip-rule:evenodd;stroke-linejoin:round;stroke-miterlimit:2"><path d="M28.45 12.402c10.102 0 18.304 8.202 18.304 18.304 0 10.102-8.202 18.304-18.304 18.304-10.102 0-18.303-8.202-18.303-18.304 0-10.102 8.201-18.304 18.303-18.304zm7.509 12.925V24.25c0-2.166-.211-3.701-.632-4.604-.421-.904-1.279-1.653-2.575-2.248-1.297-.595-2.865-.892-4.706-.892-1.683 0-3.12.272-4.309.816-1.19.545-2.051 1.3-2.584 2.265-.533.965-.8 2.491-.8 4.579 0 1.447.188 2.637.564 3.569.376.931.85 1.661 1.423 2.188.572.528 1.739 1.375 3.501 2.542 1.762 1.156 2.868 1.981 3.316 2.475.438.494.657 1.543.657 3.148 0 .729-.115 1.279-.345 1.65-.23.37-.581.555-1.052.555-.472 0-.8-.146-.985-.438-.185-.291-.278-.948-.278-1.969v-3.317h-6.582v1.785c0 2.042.208 3.619.623 4.73.415 1.111 1.293 2.026 2.634 2.744 1.341.719 2.96 1.078 4.857 1.078 1.728 0 3.244-.312 4.545-.935 1.302-.622 2.18-1.394 2.635-2.314.454-.921.682-2.352.682-4.293 0-2.671-.41-4.607-1.229-5.808-.819-1.201-2.806-2.738-5.96-4.613-1.099-.651-1.767-1.206-2.003-1.666-.247-.46-.37-1.145-.37-2.054 0-.707.109-1.235.328-1.582.219-.348.542-.522.968-.522.393 0 .673.129.842.387.168.258.252.858.252 1.801v2.02h6.583z" style="fill:#bcbcbc" transform="translate(-13.859 -16.94) scale(1.36584)"/></svg>