<?xml version="1.0" encoding="UTF-8" standalone="no"?>
<!DOCTYPE svg PUBLIC "-//W3C//DTD SVG 1.1//EN" "http://www.w3.org/Graphics/SVG/1.1/DTD/svg11.dtd">
<svg width="100%" height="100%" viewBox="0 0 195 185" version="1.1" xmlns="http://www.w3.org/2000/svg" xmlns:xlink="http://www.w3.org/1999/xlink" xml:space="preserve" xmlns:serif="http://www.serif.com/" style="fill-rule:evenodd;clip-rule:evenodd;stroke-linejoin:round;stroke-miterlimit:2;">
    <path d="M157.096,184.718L97.086,153.153L37.061,184.695L48.537,117.867L-0.009,70.528L67.094,60.79L97.115,-0.008L127.112,60.803L194.211,70.567L145.647,117.886L157.096,184.718Z" style="fill:rgb(147,147,147);fill-rule:nonzero;"/>
    <path d="M127.315,60.416C96.925,101.785 96.595,102.235 96.595,102.235L194.006,70.336L127.315,60.416Z" style="fill:rgb(188,188,188);fill-rule:nonzero;"/>
    <path d="M97.095,101.346L97.095,153.288L36.465,184.405L97.095,101.346ZM97.095,101.346L156.708,182.822L145.519,116.838L97.095,101.346Z" style="fill:rgb(131,131,131);fill-rule:nonzero;"/>
    <path d="M0.385,70.406L97.1,101.348L67.218,60.506L0.385,70.406Z" style="fill:rgb(188,188,188);fill-rule:nonzero;"/>
    <path d="M97.095,101.346L97.095,0.126L126.925,60.483L97.095,101.346Z" style="fill:rgb(160,160,160);fill-rule:nonzero;"/>
    <path d="M37.085,183.566L48.346,117.025L97.103,101.346L37.085,183.566Z" style="fill:rgb(160,160,160);fill-rule:nonzero;"/>
</svg>
