<?xml version="1.0" encoding="UTF-8" standalone="no"?>
<!DOCTYPE svg PUBLIC "-//W3C//DTD SVG 1.1//EN" "http://www.w3.org/Graphics/SVG/1.1/DTD/svg11.dtd">
<svg width="100%" height="100%" viewBox="0 0 50 50" version="1.1" xmlns="http://www.w3.org/2000/svg" xmlns:xlink="http://www.w3.org/1999/xlink" xml:space="preserve" xmlns:serif="http://www.serif.com/" style="fill-rule:evenodd;clip-rule:evenodd;stroke-linejoin:round;stroke-miterlimit:2;">
    <g transform="matrix(1.36584,0,0,1.36584,-13.859,-16.94)">
        <path d="M28.45,12.402C38.552,12.402 46.754,20.604 46.754,30.706C46.754,40.808 38.552,49.01 28.45,49.01C18.348,49.01 10.147,40.808 10.147,30.706C10.147,20.604 18.348,12.402 28.45,12.402ZM23.412,19.402L23.412,41.618L29.189,41.618L29.189,32.672L30.74,32.672C32.002,32.672 33.025,32.497 33.807,32.15C34.589,31.802 35.127,31.304 35.419,30.654C35.712,30.005 35.859,28.97 35.859,27.553L35.859,25.618C35.859,24.227 35.783,23.201 35.632,22.537C35.481,21.874 35.193,21.309 34.768,20.843C34.342,20.376 33.707,20.019 32.86,19.772C32.014,19.525 30.804,19.402 29.231,19.402L23.412,19.402ZM29.189,23.203C29.94,23.203 30.434,23.317 30.671,23.546C30.909,23.775 31.028,24.269 31.028,25.028L31.028,26.853C31.028,27.676 30.925,28.218 30.719,28.479C30.514,28.739 30.145,28.87 29.615,28.87C29.495,28.87 29.354,28.866 29.189,28.857L29.189,23.203Z" style="fill:rgb(202,137,94);"/>
    </g>
</svg>
