<?xml version="1.0" encoding="UTF-8" standalone="no"?>
<!DOCTYPE svg PUBLIC "-//W3C//DTD SVG 1.1//EN" "http://www.w3.org/Graphics/SVG/1.1/DTD/svg11.dtd">
<svg width="100%" height="100%" viewBox="0 0 50 50" version="1.1" xmlns="http://www.w3.org/2000/svg" xmlns:xlink="http://www.w3.org/1999/xlink" xml:space="preserve" style="fill-rule:evenodd;clip-rule:evenodd;stroke-linejoin:round;stroke-miterlimit:2;">
    <g transform="matrix(1.36584,0,0,1.36584,-13.859,-16.94)">
        <path d="M28.45,12.402C38.552,12.402 46.754,20.604 46.754,30.706C46.754,40.808 38.552,49.01 28.45,49.01C18.348,49.01 10.147,40.808 10.147,30.706C10.147,20.604 18.348,12.402 28.45,12.402ZM36.305,42.443L33.953,42.443C33.168,42.443 32.672,42.368 32.462,42.218C32.253,42.067 32.132,41.702 32.1,41.122C33.163,40.864 34.014,40.491 34.653,40.002C35.292,39.514 35.725,38.856 35.95,38.029C36.176,37.202 36.289,35.628 36.289,33.308L36.289,24.834C36.289,23.148 36.2,21.877 36.023,21.024C35.846,20.17 35.464,19.345 34.879,18.551C34.294,17.756 33.407,17.101 32.221,16.585C31.034,16.069 29.683,15.812 28.169,15.812C26.912,15.812 25.768,16.021 24.737,16.44C23.706,16.859 22.863,17.479 22.208,18.301C21.552,19.122 21.12,19.998 20.911,20.927C20.701,21.856 20.596,23.207 20.596,24.979L20.596,33.051C20.596,35.392 20.774,37.151 21.128,38.327C21.483,39.503 22.213,40.472 23.319,41.235C24.426,41.998 25.747,42.4 27.283,42.443C27.283,43.421 27.371,44.097 27.548,44.473C27.726,44.849 28.067,45.131 28.571,45.319C29.076,45.507 29.946,45.601 31.181,45.601L36.305,45.601L36.305,42.443ZM29.506,23.062L29.506,35.048C29.506,36.584 29.441,37.556 29.313,37.964C29.184,38.373 28.888,38.577 28.426,38.577C27.975,38.577 27.688,38.399 27.565,38.045C27.441,37.691 27.379,36.756 27.379,35.242L27.379,23.062C27.379,21.719 27.473,20.911 27.661,20.637C27.849,20.363 28.12,20.226 28.475,20.226C28.894,20.226 29.17,20.395 29.305,20.734C29.439,21.072 29.506,21.848 29.506,23.062Z"/>
    </g>
</svg>
