<?xml version="1.0" encoding="UTF-8" standalone="no"?>
<!DOCTYPE svg PUBLIC "-//W3C//DTD SVG 1.1//EN" "http://www.w3.org/Graphics/SVG/1.1/DTD/svg11.dtd">
<svg width="100%" height="100%" viewBox="0 0 50 50" version="1.1" xmlns="http://www.w3.org/2000/svg" xmlns:xlink="http://www.w3.org/1999/xlink" xml:space="preserve" style="fill-rule:evenodd;clip-rule:evenodd;stroke-linejoin:round;stroke-miterlimit:2;">
    <g transform="matrix(2.44237,0,0,2.44237,31.477,49.5635)">
        <path d="M0,-20.052C0.549,-19.796 0.847,-19.323 1.065,-18.791C1.453,-17.851 1.56,-16.883 1.246,-15.901C1.172,-15.669 1.026,-15.46 0.905,-15.246C0.562,-14.644 0.192,-14.054 -0.125,-13.437C-0.346,-13.01 -0.264,-12.83 0.132,-12.552C0.512,-12.285 0.939,-12.281 1.382,-12.285C2.331,-12.291 3.279,-12.277 4.228,-12.25C4.609,-12.24 4.991,-12.185 5.369,-12.125C5.522,-12.099 5.679,-12.023 5.807,-11.931C6.246,-11.617 6.551,-11.191 6.741,-10.687C6.865,-10.359 6.776,-10.045 6.639,-9.744C6.525,-9.496 6.403,-9.252 6.269,-9.015C6.167,-8.834 6.182,-8.677 6.289,-8.506C6.426,-8.285 6.559,-8.062 6.672,-7.828C6.851,-7.463 6.838,-7.099 6.595,-6.76C6.425,-6.521 6.253,-6.285 6.077,-6.052C5.963,-5.902 5.933,-5.76 6.004,-5.568C6.376,-4.574 6.376,-4.445 5.715,-3.613C5.408,-3.226 5.292,-2.851 5.463,-2.396C5.679,-1.824 5.373,-1.469 4.959,-1.162C4.544,-0.853 4.061,-0.709 3.562,-0.597C2.419,-0.344 1.267,-0.156 0.099,-0.076C-1.006,0 -2.069,-0.258 -3.131,-0.513C-3.818,-0.677 -4.499,-0.879 -5.192,-1.006C-5.765,-1.111 -6.353,-1.131 -6.935,-1.189C-6.992,-1.193 -7.049,-1.197 -7.125,-1.203L-7.125,-1.404C-7.125,-3.896 -7.124,-6.386 -7.128,-8.879C-7.128,-9.027 -7.087,-9.107 -6.953,-9.179C-6.043,-9.674 -5.459,-10.451 -5.077,-11.394C-4.918,-11.785 -4.745,-12.172 -4.62,-12.572C-4.375,-13.361 -3.901,-13.992 -3.33,-14.564C-3.16,-14.734 -2.998,-14.916 -2.814,-15.068C-1.973,-15.773 -1.528,-16.702 -1.291,-17.745C-1.191,-18.181 -1.12,-18.624 -1.053,-19.067C-0.987,-19.505 -0.846,-19.881 -0.39,-20.052L0,-20.052Z" style="fill:rgb(35,31,32);"/>
    </g>
    <g transform="matrix(2.44237,0,0,2.44237,1.91576,36.946)">
        <path d="M0,-0.027C0,-1.295 -0.001,-2.564 0,-3.832C0,-4.306 0.234,-4.545 0.701,-4.545C1.696,-4.547 2.691,-4.547 3.686,-4.545C4.107,-4.545 4.367,-4.285 4.367,-3.863C4.368,-1.3 4.368,1.262 4.367,3.825C4.367,4.26 4.109,4.518 3.678,4.518C2.676,4.52 1.674,4.52 0.673,4.518C0.247,4.518 0,4.268 0,3.836C-0.001,2.549 0,1.26 0,-0.027" style="fill:rgb(35,31,32);"/>
    </g>
</svg>
