<?xml version="1.0" encoding="UTF-8" standalone="no"?>
<!DOCTYPE svg PUBLIC "-//W3C//DTD SVG 1.1//EN" "http://www.w3.org/Graphics/SVG/1.1/DTD/svg11.dtd">
<svg width="100%" height="100%" viewBox="0 0 50 50" version="1.1" xmlns="http://www.w3.org/2000/svg" xmlns:xlink="http://www.w3.org/1999/xlink" xml:space="preserve" xmlns:serif="http://www.serif.com/" style="fill-rule:evenodd;clip-rule:evenodd;stroke-linejoin:round;stroke-miterlimit:2;">
    <g transform="matrix(1.36584,0,0,1.36584,-13.859,-16.94)">
        <g>
            <path d="M28.45,12.402C38.552,12.402 46.754,20.604 46.754,30.706C46.754,40.808 38.552,49.01 28.45,49.01C18.348,49.01 10.147,40.808 10.147,30.706C10.147,20.604 18.348,12.402 28.45,12.402ZM22.47,19.032L22.47,43.531L28.841,43.531L28.841,33.664L30.55,33.664C31.943,33.664 33.07,33.473 33.933,33.089C34.795,32.706 35.388,32.156 35.711,31.44C36.033,30.724 36.195,29.584 36.195,28.02L36.195,25.887C36.195,24.353 36.112,23.221 35.945,22.489C35.779,21.758 35.461,21.135 34.992,20.621C34.523,20.106 33.822,19.713 32.888,19.44C31.955,19.168 30.621,19.032 28.886,19.032L22.47,19.032ZM28.841,23.223C29.668,23.223 30.213,23.349 30.475,23.602C30.737,23.854 30.868,24.399 30.868,25.236L30.868,27.248C30.868,28.156 30.755,28.754 30.528,29.042C30.301,29.329 29.895,29.473 29.31,29.473C29.178,29.473 29.022,29.468 28.841,29.458L28.841,23.223Z" style="fill:rgb(251,194,46);"/>
        </g>
    </g>
</svg>
