<?xml version="1.0" encoding="UTF-8" standalone="no"?>
<!DOCTYPE svg PUBLIC "-//W3C//DTD SVG 1.1//EN" "http://www.w3.org/Graphics/SVG/1.1/DTD/svg11.dtd">
<svg width="100%" height="100%" viewBox="0 0 50 50" version="1.1" xmlns="http://www.w3.org/2000/svg" xmlns:xlink="http://www.w3.org/1999/xlink" xml:space="preserve" style="fill-rule:evenodd;clip-rule:evenodd;stroke-linejoin:round;stroke-miterlimit:2;">
    <g transform="matrix(1.95094,0,0,1.95094,28.7425,23.0973)">
        <path d="M0,1.891C0.055,2.107 0.14,2.469 0.243,2.826C0.291,2.991 0.395,3.132 0.6,3.053C0.802,2.975 0.773,2.823 0.716,2.649C0.637,2.411 0.562,2.164 0.532,1.916C0.443,1.183 0.616,0.549 1.279,0.12C1.444,0.013 1.522,-0.142 1.389,-0.316C1.255,-0.492 1.107,-0.399 0.966,-0.297C0.278,0.207 0.015,0.911 0,1.891M-3.876,-2.489C-3.889,-2.103 -3.824,-1.94 -3.638,-1.957C-3.294,-1.987 -3.391,-2.267 -3.38,-2.472C-3.314,-3.776 -2.602,-4.56 -1.348,-4.697C-1.164,-4.716 -0.982,-4.757 -1.011,-4.99C-1.04,-5.24 -1.235,-5.233 -1.429,-5.207C-2.942,-5.002 -3.827,-4.02 -3.876,-2.489M4.823,-3.089C5.042,-3.147 5.461,-3.25 5.875,-3.375C6.039,-3.423 6.226,-3.516 6.146,-3.738C6.061,-3.972 5.876,-3.921 5.689,-3.843C5.244,-3.658 4.786,-3.55 4.297,-3.626C3.501,-3.748 2.895,-4.174 2.394,-4.78C2.288,-4.908 2.165,-5.003 2.007,-4.882C1.837,-4.755 1.884,-4.597 2,-4.459C2.681,-3.646 3.515,-3.126 4.823,-3.089M-7.025,6.151C-6.358,6.128 -5.768,5.938 -5.219,5.612C-5.076,5.526 -4.971,5.415 -5.073,5.241C-5.169,5.075 -5.312,5.079 -5.465,5.164C-5.544,5.21 -5.624,5.254 -5.706,5.295C-6.377,5.624 -7.07,5.727 -7.795,5.495C-8.381,5.307 -8.845,4.946 -9.269,4.511C-9.345,4.433 -9.524,4.455 -9.656,4.432C-9.651,4.567 -9.702,4.75 -9.633,4.83C-8.943,5.633 -8.078,6.106 -7.025,6.151M-10.381,-1.431C-10.386,-1.054 -10.309,-0.892 -10.114,-0.912C-9.788,-0.943 -9.875,-1.2 -9.868,-1.402C-9.826,-2.513 -9.359,-3.382 -8.348,-3.88C-7.928,-4.086 -7.445,-4.162 -7.001,-4.324C-6.896,-4.361 -6.83,-4.504 -6.747,-4.598C-6.853,-4.67 -6.959,-4.797 -7.065,-4.797C-7.273,-4.796 -7.483,-4.735 -7.688,-4.681C-9.333,-4.25 -10.359,-3.008 -10.381,-1.431M-4.604,0.757C-4.714,0.938 -4.851,1.098 -4.915,1.282C-5.071,1.737 -5.209,2.2 -5.316,2.668C-5.337,2.758 -5.2,2.955 -5.1,2.987C-4.921,3.041 -4.839,2.893 -4.829,2.713C-4.823,2.602 -4.807,2.491 -4.786,2.382C-4.632,1.579 -4.21,0.946 -3.547,0.479C-3.184,0.224 -2.769,0.037 -2.428,-0.242C-1.571,-0.943 -1.138,-1.885 -1.009,-2.975C-0.989,-3.147 -1.004,-3.32 -1.22,-3.345C-1.433,-3.371 -1.487,-3.221 -1.509,-3.039C-1.534,-2.838 -1.57,-2.638 -1.621,-2.442C-2.119,-0.509 -4.035,0.574 -5.787,0.181C-6.985,-0.088 -7.718,-0.906 -8.193,-1.993C-8.238,-2.093 -8.255,-2.219 -8.327,-2.295C-8.391,-2.361 -8.54,-2.431 -8.6,-2.4C-8.685,-2.357 -8.744,-2.227 -8.771,-2.123C-8.788,-2.058 -8.727,-1.972 -8.698,-1.897C-8.006,-0.093 -6.62,0.811 -4.604,0.757M-4.54,11.586L-7.279,11.586C-7.153,10.692 -7.031,9.825 -6.904,8.924C-7.008,8.924 -7.083,8.915 -7.158,8.924C-9.845,9.223 -12.166,7.066 -12.052,4.36C-11.982,2.692 -11.186,1.506 -9.659,0.82C-9.594,0.791 -9.509,0.77 -9.477,0.718C-9.421,0.633 -9.362,0.519 -9.379,0.432C-9.391,0.375 -9.541,0.305 -9.62,0.315C-9.777,0.333 -9.94,0.381 -10.079,0.456C-11.448,1.204 -12.279,2.338 -12.52,3.889C-12.532,3.967 -12.551,4.043 -12.574,4.154C-13.568,3.566 -14.221,2.777 -14.343,1.628C-14.399,1.101 -14.337,0.579 -14.125,0.079C-14.079,-0.033 -14.103,-0.199 -14.149,-0.317C-14.666,-1.638 -14.25,-3.136 -13.06,-3.85C-12.637,-4.103 -12.462,-4.375 -12.337,-4.825C-11.946,-6.234 -10.672,-7.235 -9.217,-7.382C-9.113,-7.392 -8.987,-7.521 -8.932,-7.626C-8.317,-8.79 -6.897,-9.359 -5.684,-8.889C-4.721,-8.515 -4.229,-7.767 -4.109,-6.759C-4.094,-6.629 -4.13,-6.481 -4.082,-6.367C-4.035,-6.259 -3.91,-6.184 -3.819,-6.093C-3.75,-6.192 -3.613,-6.3 -3.625,-6.385C-3.696,-6.862 -3.748,-7.351 -3.91,-7.8C-4.124,-8.396 -4.584,-8.826 -5.206,-9.235C-4.771,-9.377 -4.423,-9.545 -4.059,-9.597C-3.375,-9.695 -2.707,-9.617 -2.099,-9.228C-1.996,-9.164 -1.808,-9.159 -1.687,-9.203C-0.365,-9.681 0.885,-9.556 2.047,-8.757C2.302,-8.582 2.474,-8.238 2.743,-8.144C3.012,-8.05 3.358,-8.211 3.667,-8.195C4.59,-8.15 5.348,-7.791 5.848,-6.968C5.902,-6.88 6.059,-6.824 6.175,-6.808C7.641,-6.604 8.68,-5.707 9.013,-4.343C9.427,-2.647 8.112,-1.007 6.404,-1.095C6.263,-1.101 6.123,-1.161 5.984,-1.153C5.881,-1.147 5.749,-1.095 5.693,-1.017C5.658,-0.969 5.711,-0.8 5.776,-0.747C6.381,-0.254 6.667,0.362 6.577,1.151C6.567,1.241 6.704,1.348 6.773,1.448C6.861,1.356 7.008,1.278 7.028,1.172C7.122,0.68 7.036,0.205 6.8,-0.238C6.744,-0.344 6.689,-0.451 6.627,-0.566C8.253,-0.744 9.169,-1.67 9.522,-3.219C9.554,-3.207 9.589,-3.205 9.601,-3.186C10.469,-1.838 10.856,-0.41 10.204,1.136C9.523,2.748 8.238,3.59 6.542,3.83C5.883,3.924 5.215,3.954 4.565,4.012C4.525,3.649 4.523,3.271 4.438,2.912C4.174,1.797 3.384,1.151 2.384,0.71C2.208,0.631 2.062,0.692 2.027,0.863C2.01,0.949 2.102,1.098 2.187,1.156C2.544,1.399 2.979,1.555 3.273,1.854C4.556,3.157 4.091,4.651 3.13,5.605C2.322,6.409 1.299,6.729 0.189,6.826C-1.77,6.997 -3.239,7.919 -4.132,9.692C-4.423,10.269 -4.55,10.893 -4.54,11.586" style="fill:rgb(35,31,32);"/>
    </g>
</svg>
