<?xml version="1.0" encoding="UTF-8" standalone="no"?>
<!DOCTYPE svg PUBLIC "-//W3C//DTD SVG 1.1//EN" "http://www.w3.org/Graphics/SVG/1.1/DTD/svg11.dtd">
<svg width="100%" height="100%" viewBox="0 0 50 50" version="1.1" xmlns="http://www.w3.org/2000/svg" xmlns:xlink="http://www.w3.org/1999/xlink" xml:space="preserve" xmlns:serif="http://www.serif.com/" style="fill-rule:evenodd;clip-rule:evenodd;stroke-linejoin:round;stroke-miterlimit:2;">
    <g transform="matrix(1.36584,0,0,1.36584,-13.859,-16.94)">
        <path d="M28.45,12.402C38.552,12.402 46.754,20.604 46.754,30.706C46.754,40.808 38.552,49.01 28.45,49.01C18.348,49.01 10.147,40.808 10.147,30.706C10.147,20.604 18.348,12.402 28.45,12.402ZM23.303,19.801L23.303,42.534L33.553,42.534L33.553,37.984L29.215,37.984L29.215,32.986L32.907,32.986L32.907,28.661L29.215,28.661L29.215,24.35L33.16,24.35L33.16,19.801L23.303,19.801Z" style="fill:rgb(190,190,190);"/>
    </g>
</svg>
