<?xml version="1.0" encoding="UTF-8" standalone="no"?>
<!DOCTYPE svg PUBLIC "-//W3C//DTD SVG 1.1//EN" "http://www.w3.org/Graphics/SVG/1.1/DTD/svg11.dtd">
<svg width="100%" height="100%" viewBox="0 0 800 800" version="1.1" xmlns="http://www.w3.org/2000/svg" xmlns:xlink="http://www.w3.org/1999/xlink" xml:space="preserve" style="fill-rule:evenodd;clip-rule:evenodd;stroke-linejoin:round;stroke-miterlimit:2;">
    <g transform="matrix(0.950953,0,0,0.950953,18.3102,19.6374)">
        <path d="M450,536.886L444.961,541.925C409.959,506.923 354.547,502.986 314.947,532.686L302.628,541.925L302.627,541.927L84.492,779.03C75.93,788.336 61.342,788.641 52.4,779.698L23.52,750.819C14.836,742.134 14.836,728.052 23.52,719.367L251.794,491.094L251.792,491.092L729.63,13.256C724.33,145.766 678.719,272.715 600,377.653L600,587.5C600,601.708 588.148,613.148 573.791,612.472C560.345,611.838 550,600.255 550,586.794L550,575C550,561.194 538.806,550 525,550C511.194,550 500,561.192 500,575L500,650C500,664.208 488.148,675.648 473.791,674.972C460.345,674.338 450,662.755 450,649.294L450,536.886ZM500,762.5C500,776.308 488.808,787.5 475,787.5C461.192,787.5 450,776.308 450,762.5C450,748.692 475,712.5 475,712.5C475,712.5 500,748.692 500,762.5ZM612.5,712.5C612.5,726.308 601.308,737.5 587.5,737.5C573.692,737.5 562.5,726.308 562.5,712.5C562.5,698.692 587.5,662.5 587.5,662.5C587.5,662.5 612.5,698.692 612.5,712.5Z" style="fill:rgb(230,192,103);"/>
        <path d="M229.222,469.051C229.309,468.962 229.397,468.873 229.485,468.785L707.322,-9.051C716.507,-18.236 730.383,-20.852 742.282,-15.643C754.181,-10.433 761.671,1.538 761.152,14.517C755.738,149.872 710.209,279.694 631.547,388.033L631.547,587.5C631.547,607.976 620.668,625.919 604.372,635.843C607.907,638.081 611.011,641.029 613.457,644.57C613.457,644.57 627.258,664.632 635.563,682.006C641.186,693.769 644.047,705.105 644.047,712.5C644.047,743.732 618.732,769.047 587.5,769.047C556.268,769.047 530.953,743.732 530.953,712.5C530.953,705.105 533.814,693.769 539.437,682.006C547.742,664.632 561.543,644.57 561.543,644.57C561.979,643.939 562.436,643.326 562.913,642.733C550.375,639.954 539.437,632.933 531.547,623.313L531.547,650C531.547,670.741 520.385,688.883 503.736,698.724C508.198,705.505 517.064,719.456 523.063,732.006C528.686,743.769 531.547,755.105 531.547,762.5C531.547,793.732 506.232,819.047 475,819.047C443.768,819.047 418.453,793.732 418.453,762.5C418.453,755.105 421.314,743.769 426.937,732.006C432.97,719.385 441.902,705.347 446.339,698.61C429.598,688.554 418.453,670.018 418.453,649.294L418.453,560.367C394.492,540.101 359.38,538.795 333.875,557.924L323.878,565.422L107.708,800.389C87,822.897 51.719,823.632 30.093,802.006L1.213,773.126C-19.79,752.123 -19.79,718.063 1.213,697.06L229.222,469.051ZM500,762.5C500,748.692 475,712.5 475,712.5C475,712.5 450,748.692 450,762.5C450,776.308 461.192,787.5 475,787.5C488.808,787.5 500,776.308 500,762.5ZM281.267,565.144C286.981,570.399 294.558,573.474 302.627,573.474L302.626,573.471C302.463,573.373 293.77,568.128 285.813,560.202L294.909,550.315L302.622,573.454C302.499,572.909 299.852,561.268 296.307,548.796L302.627,541.927L302.628,541.925L314.947,532.686C354.547,502.986 409.959,506.923 444.961,541.925L450,536.886L450,649.294C450,662.755 460.345,674.338 473.791,674.972C488.148,675.648 500,664.208 500,650L500,575C500,561.192 511.194,550 525,550C538.806,550 550,561.194 550,575L550,586.794C550,600.255 560.345,611.838 573.791,612.472C588.148,613.148 600,601.708 600,587.5L600,377.653C678.719,272.715 724.33,145.766 729.63,13.256L251.792,491.092L251.794,491.094L23.52,719.367C14.836,728.052 14.836,742.134 23.52,750.819L52.4,779.698C61.342,788.641 75.93,788.336 84.492,779.03L281.267,565.144ZM302.628,573.473L302.622,573.454L302.626,573.471L302.628,573.473ZM302.627,573.474C309.504,573.474 316.137,571.229 321.557,567.163L302.628,573.473L302.627,573.474ZM612.5,712.5C612.5,698.692 587.5,662.5 587.5,662.5C587.5,662.5 562.5,698.692 562.5,712.5C562.5,726.308 573.692,737.5 587.5,737.5C601.308,737.5 612.5,726.308 612.5,712.5Z"/>
    </g>
    <g transform="matrix(0.950953,0,0,0.950953,18.3102,19.6374)">
        <path d="M450,462.5L450,649.294C450,662.755 460.345,674.338 473.791,674.972C488.148,675.648 500,664.208 500,650L500,575C500,561.192 511.194,550 525,550C538.806,550 550,561.194 550,575L550,586.794C550,600.255 560.345,611.838 573.791,612.472C588.148,613.148 600,601.708 600,587.5L600,362.5L450,462.5Z" style="fill:rgb(230,92,100);fill-rule:nonzero;"/>
    </g>
    <g transform="matrix(0.950953,0,0,0.950953,18.3102,19.6374)">
        <path d="M333.128,511.425L302.628,541.925L84.492,779.03C75.93,788.336 61.342,788.641 52.4,779.698L23.52,750.819C14.836,742.134 14.836,728.052 23.52,719.367L282.295,460.592L333.128,511.425Z" style="fill:rgb(230,192,103);fill-rule:nonzero;"/>
    </g>
    <g transform="matrix(0.950953,0,0,0.950953,18.3102,19.6374)">
        <path d="M539.595,447.291L444.961,541.925C409.959,506.923 354.547,502.986 314.947,532.686L302.627,541.927L251.792,491.092L729.63,13.256C723.094,176.678 655.245,331.642 539.595,447.291Z" style="fill:rgb(152,160,201);fill-rule:nonzero;"/>
    </g>
    <g transform="matrix(0.950953,0,0,0.950953,18.3102,19.6374)">
        <path d="M109.461,633.425L166.228,690.194L117.505,743.138L58.627,684.259L109.461,633.425Z" style="fill:rgb(77,81,102);fill-rule:nonzero;"/>
    </g>
    <g transform="matrix(0.950953,0,0,0.950953,18.3102,19.6374)">
        <path d="M444.963,541.925L539.597,447.291C605.352,381.536 655.628,303.062 687.994,217.561L391.334,514.22C411.064,517.573 429.903,526.866 444.963,541.925Z" style="fill:rgb(77,81,102);fill-rule:nonzero;"/>
    </g>
    <g transform="matrix(0.950953,0,0,0.950953,18.3102,19.6374)">
        <path d="M500,762.5C500,776.308 488.808,787.5 475,787.5C461.192,787.5 450,776.308 450,762.5C450,748.692 475,712.5 475,712.5C475,712.5 500,748.692 500,762.5Z" style="fill:rgb(230,92,100);fill-rule:nonzero;"/>
    </g>
    <g transform="matrix(0.950953,0,0,0.950953,18.3102,19.6374)">
        <path d="M612.5,712.5C612.5,726.308 601.308,737.5 587.5,737.5C573.692,737.5 562.5,726.308 562.5,712.5C562.5,698.692 587.5,662.5 587.5,662.5C587.5,662.5 612.5,698.692 612.5,712.5Z" style="fill:rgb(230,92,100);fill-rule:nonzero;"/>
    </g>
</svg>
