<?xml version="1.0" encoding="UTF-8" standalone="no"?>
<!DOCTYPE svg PUBLIC "-//W3C//DTD SVG 1.1//EN" "http://www.w3.org/Graphics/SVG/1.1/DTD/svg11.dtd">
<svg width="100%" height="100%" viewBox="0 0 20 20" version="1.1" xmlns="http://www.w3.org/2000/svg" xmlns:xlink="http://www.w3.org/1999/xlink" xml:space="preserve" style="fill-rule:evenodd;clip-rule:evenodd;stroke-linejoin:round;stroke-miterlimit:2;">
    <g id="path14" transform="matrix(0.0179897,0,0,0.0179897,-12.6976,17.1665)">
        <path d="M1182.23,-145.455L1160.73,-83.925L1153.91,-53.639C1119.53,-26.906 1073.35,-21.007 1033.4,-38.287C1030.72,-42.592 1028.9,-47.348 1028.03,-52.347C1024.15,-74.17 1038.72,-95.023 1060.59,-98.885C1068.47,-117.624 1070.03,-138.457 1064.9,-158.165L1059.65,-198.104L1050.46,-244.056L1029.78,-294.604L1022.84,-326.76L1015.96,-388.798C1006.52,-412.266 988.466,-431.21 965.403,-441.646L902.712,-488.614C879.585,-500.933 853.579,-506.928 827.457,-505.958C807.768,-506.395 788.645,-512.744 772.58,-524.163L728.575,-542.728L709.014,-568.966L705.827,-591.842L705.827,-592.183C707.143,-604.9 718.518,-614.141 731.267,-612.823L767.144,-623.15L802.146,-646.277C809.086,-651.592 815.267,-657.78 820.582,-664.669C830.709,-682.656 848.772,-694.794 869.271,-697.403L865.332,-729.45L872.394,-750.547L886.024,-759.685L901.086,-755.81L931.089,-722.401L935.523,-717.716L960.777,-739.61L974.965,-747.469L990.529,-745.232L1007.72,-727.091L1012.4,-695.064L1069.53,-670.04C1088.22,-661.854 1108.97,-659.682 1128.97,-663.788C1161.78,-670.555 1195.97,-664.398 1224.41,-646.598C1248.97,-631.176 1277.48,-623.053 1306.54,-623.143L1392.56,-623.143C1438.93,-623.143 1485.24,-619.487 1530.99,-612.206C1592.5,-602.425 1651.44,-580.358 1704.25,-547.328L1762.88,-508.264C1789.76,-482.168 1805.45,-446.67 1806.69,-409.225C1800.44,-385.661 1800.44,-360.895 1806.69,-337.33C1810.26,-324.748 1810.69,-311.485 1807.88,-298.703L1806.95,-237.154L1806.45,-179.21L1815.44,-99.989L1817.58,-64.472C1813.51,-40.111 1792.45,-22.279 1767.76,-22.375C1746.2,-17.581 1723.63,-19.625 1703.25,-28.236C1697.81,-32.593 1694.13,-38.704 1692.69,-45.496C1689.32,-61.722 1699.75,-77.614 1715.94,-80.987L1685.81,-202.37L1652.38,-114.615L1634.18,-56.266L1614.31,-33.724C1597.81,-27.362 1580.12,-24.798 1562.49,-26.282C1562.42,-26.268 1562.3,-26.233 1562.24,-26.209C1544.18,-21.718 1525.93,-32.661 1521.42,-50.699C1517.12,-64.419 1523.31,-79.276 1536.12,-85.856C1547.8,-92.359 1554.18,-105.559 1552,-118.803L1541.49,-248.34L1464.12,-242.402C1431.92,-241.105 1399.73,-244.787 1368.66,-253.333L1315.66,-269.231L1315.66,-202.368L1303.17,-133.422L1294.79,-81.184C1293.79,-70.202 1290.1,-59.644 1283.91,-50.526C1263.92,-20.895 1223.6,-13.087 1193.98,-33.117C1191.47,-34.55 1189.29,-36.433 1187.47,-38.663C1179.47,-48.643 1181.1,-63.198 1191.03,-71.205C1205.92,-94.955 1202.23,-125.833 1182.23,-145.445" style="fill:rgb(124,58,0);fill-rule:nonzero;"/>
    </g>
    <g id="path141" transform="matrix(0.0179897,0,0,0.0179897,-12.6976,17.1665)">
        <path d="M1521.36,-613.684C1524.57,-613.209 1527.78,-612.716 1530.99,-612.206C1592.5,-602.425 1651.44,-580.358 1704.25,-547.328L1762.88,-508.264C1789.76,-482.168 1805.45,-446.67 1806.69,-409.225C1800.44,-385.661 1800.44,-360.895 1806.69,-337.33C1810.26,-324.748 1810.69,-311.485 1807.88,-298.703L1806.95,-237.154L1806.45,-179.21L1815.44,-99.989L1817.58,-64.472C1813.51,-40.111 1792.45,-22.279 1767.76,-22.375C1746.2,-17.581 1723.63,-19.625 1703.25,-28.236C1697.81,-32.593 1694.13,-38.704 1692.69,-45.496C1689.32,-61.722 1699.75,-77.614 1715.94,-80.987L1685.81,-202.37L1652.38,-114.615L1634.18,-56.266L1614.31,-33.724C1597.81,-27.362 1580.12,-24.798 1562.49,-26.282C1562.42,-26.268 1562.3,-26.233 1562.24,-26.209C1544.18,-21.718 1525.93,-32.661 1521.42,-50.699C1517.12,-64.419 1523.31,-79.276 1536.12,-85.856C1547.8,-92.359 1554.18,-105.559 1552,-118.803L1541.49,-248.34L1464.12,-242.402C1431.92,-241.105 1399.73,-244.787 1368.66,-253.333L1315.66,-269.231L1315.66,-202.368L1303.17,-133.422L1294.79,-81.184C1293.79,-70.202 1290.1,-59.644 1283.91,-50.526C1263.92,-20.895 1223.6,-13.087 1193.98,-33.117C1191.47,-34.55 1189.29,-36.433 1187.47,-38.663C1179.47,-48.643 1181.1,-63.198 1191.03,-71.205C1205.92,-94.955 1202.23,-125.838 1182.23,-145.45L1160.73,-83.925L1153.91,-53.639C1119.53,-26.906 1073.35,-21.007 1033.4,-38.287C1030.72,-42.592 1028.9,-47.348 1028.03,-52.347C1024.15,-74.17 1038.72,-95.023 1060.59,-98.885C1068.47,-117.624 1070.03,-138.457 1064.9,-158.165L1062.63,-175.433L1521.36,-613.684Z" style="fill:rgb(145,78,20);"/>
    </g>
</svg>
