<?xml version="1.0" encoding="UTF-8" standalone="no"?>
<!DOCTYPE svg PUBLIC "-//W3C//DTD SVG 1.1//EN" "http://www.w3.org/Graphics/SVG/1.1/DTD/svg11.dtd">
<svg width="100%" height="100%" viewBox="0 0 50 50" version="1.1" xmlns="http://www.w3.org/2000/svg" xmlns:xlink="http://www.w3.org/1999/xlink" xml:space="preserve" style="fill-rule:evenodd;clip-rule:evenodd;stroke-linejoin:round;stroke-miterlimit:2;">
    <g transform="matrix(1.98041,0,0,1.98041,45.3051,27.5908)">
        <path d="M0,0.216C-0.238,0.402 -0.452,0.644 -0.72,0.763C-1.472,1.1 -1.522,1.169 -1.234,1.909C-0.982,2.558 -0.982,2.558 -1.267,3.09C-1.327,3.392 -1.391,3.693 -1.447,3.994C-1.497,4.27 -1.562,4.546 -1.576,4.823C-1.587,5.048 -1.512,5.277 -1.508,5.503C-1.494,6.365 -1.71,6.636 -2.582,6.69C-3.181,6.726 -3.791,6.688 -4.39,6.624C-5.685,6.487 -6.184,6.866 -6.406,8.144C-6.585,9.172 -6.564,10.171 -6.113,11.189L-16.565,11.189C-16.208,10.054 -15.813,8.919 -15.501,7.761C-15.319,7.082 -15.254,6.369 -15.17,5.667C-15.04,4.575 -15.405,3.626 -16.026,2.739C-16.487,2.08 -16.891,1.381 -17.386,0.595C-16.827,0.408 -16.389,0.224 -15.933,0.123C-15.591,0.047 -15.349,0.177 -15.492,0.612C-15.663,1.134 -15.486,1.505 -14.979,1.723C-14.438,1.954 -13.609,1.884 -13.433,1.475C-13.292,1.148 -13.405,0.712 -13.405,0.194C-13.159,0.249 -12.893,0.287 -12.642,0.37C-11.736,0.67 -10.846,1.026 -9.929,1.282C-9.15,1.5 -8.855,1.126 -9.015,0.34C-9.066,0.088 -8.976,-0.31 -8.798,-0.458C-8.64,-0.589 -8.195,-0.559 -8.018,-0.422C-7.871,-0.307 -7.915,0.07 -7.903,0.332C-7.891,0.587 -8.021,0.948 -7.898,1.072C-7.736,1.236 -7.383,1.27 -7.119,1.254C-6.838,1.237 -6.553,1.123 -6.289,1.007C-5.396,0.612 -5.313,0.319 -5.804,-0.501C-5.92,-0.694 -6.013,-0.911 -6.071,-1.13C-6.146,-1.413 -6.027,-1.625 -5.716,-1.497C-5.292,-1.321 -4.992,-1.391 -4.769,-1.789C-4.504,-2.263 -4.459,-2.744 -4.779,-3.203C-5.048,-3.59 -5.401,-3.413 -5.738,-3.296C-5.792,-3.276 -5.86,-3.293 -5.995,-3.293C-6.107,-3.943 -5.771,-4.479 -5.546,-5.039C-5.307,-5.636 -5.016,-6.218 -4.846,-6.833C-4.597,-7.737 -4.909,-8.014 -5.834,-7.856C-6.019,-7.825 -6.386,-7.932 -6.401,-8.021C-6.445,-8.282 -6.413,-8.597 -6.29,-8.825C-6.23,-8.935 -5.869,-8.982 -5.698,-8.918C-4.844,-8.596 -4.591,-8.762 -4.633,-9.714C-4.65,-10.1 -4.733,-10.485 -4.66,-10.973C-4.296,-10.621 -3.892,-10.3 -3.578,-9.908C-2.525,-8.595 -1.958,-7.056 -1.646,-5.423C-1.583,-5.091 -1.606,-4.694 -1.73,-4.384C-2.071,-3.531 -1.877,-2.805 -1.381,-2.093C-0.908,-1.416 -0.459,-0.721 0,-0.034L0,0.216Z" style="fill:rgb(35,31,32);"/>
    </g>
    <g transform="matrix(1.98041,0,0,1.98041,12.579,16.1274)">
        <path d="M0,-8.017C0.408,-7.828 0.843,-7.68 1.213,-7.434C1.443,-7.281 1.573,-6.977 1.749,-6.742C1.523,-6.603 1.3,-6.46 1.071,-6.327C0.984,-6.277 0.884,-6.248 0.774,-6.205C0.774,-5.686 1.063,-5.37 1.47,-5.177C1.788,-5.027 2.098,-5.02 2.284,-5.454C2.524,-6.013 2.858,-6.07 3.252,-5.617C3.505,-5.325 3.681,-4.966 3.91,-4.608C3.314,-4.221 2.759,-3.894 2.246,-3.51C2.05,-3.365 1.877,-3.1 1.844,-2.869C1.83,-2.77 2.22,-2.638 2.389,-2.48C2.566,-2.315 2.862,-1.984 2.822,-1.928C2.572,-1.578 2.243,-1.283 1.94,-0.97C1.757,-1.151 1.565,-1.323 1.395,-1.514C1.278,-1.645 1.183,-1.927 1.093,-1.922C0.919,-1.911 0.676,-1.782 0.604,-1.633C0.35,-1.116 0.157,-0.569 -0.072,0C-0.671,-0.055 -1.167,-0.322 -1.561,-0.776C-1.849,-1.11 -1.826,-1.394 -1.344,-1.492C-0.942,-1.573 -0.656,-1.8 -0.922,-2.16C-1.165,-2.489 -1.599,-2.675 -1.949,-2.924C-2.045,-2.711 -2.181,-2.505 -2.228,-2.282C-2.343,-1.735 -2.567,-1.595 -2.954,-1.987C-3.36,-2.398 -3.638,-2.936 -3.981,-3.434C-3.466,-3.748 -3.056,-3.955 -2.702,-4.235C-2.533,-4.369 -2.364,-4.66 -2.396,-4.843C-2.426,-5.008 -2.721,-5.222 -2.917,-5.243C-3.425,-5.298 -3.459,-5.619 -3.334,-5.948C-3.222,-6.246 -3.016,-6.542 -2.773,-6.746C-2.356,-7.099 -1.95,-6.937 -1.758,-6.426C-1.684,-6.227 -1.55,-6.05 -1.443,-5.863C-1.264,-6.02 -1.013,-6.144 -0.918,-6.342C-0.66,-6.883 -0.469,-7.456 -0.25,-8.017L0,-8.017Z" style="fill:rgb(35,31,32);"/>
    </g>
    <g transform="matrix(1.98041,0,0,1.98041,22.3669,28.8683)">
        <path d="M0,-5.932C0.208,-5.532 0.442,-5.139 0.613,-4.72C0.681,-4.554 0.668,-4.295 0.579,-4.147C0.526,-4.059 0.226,-4.042 0.083,-4.102C-0.289,-4.257 -0.564,-4.184 -0.793,-3.873C-1.117,-3.435 -1.22,-2.582 -0.886,-2.227C-0.685,-2.013 -0.288,-1.857 0.001,-1.883C0.453,-1.925 0.62,-1.87 0.459,-1.407C0.317,-0.998 0.171,-0.591 0.011,-0.14C-0.508,-0.325 -0.966,-0.521 -1.443,-0.642C-1.661,-0.698 -1.93,-0.642 -2.143,-0.555C-2.194,-0.535 -2.083,-0.188 -2.102,0.005C-2.126,0.248 -2.168,0.67 -2.27,0.692C-2.647,0.771 -3.062,0.76 -3.44,0.68C-3.527,0.662 -3.605,0.211 -3.55,-0.007C-3.393,-0.631 -3.535,-0.886 -4.195,-0.807C-4.739,-0.743 -5.267,-0.536 -5.89,-0.368C-6.012,-0.791 -6.181,-1.236 -6.261,-1.696C-6.35,-2.207 -6.135,-2.339 -5.621,-2.247C-5.389,-2.206 -4.959,-2.239 -4.921,-2.344C-4.819,-2.634 -4.802,-3.008 -4.903,-3.294C-4.95,-3.428 -5.366,-3.524 -5.586,-3.483C-5.986,-3.408 -6.179,-3.569 -6.175,-3.907C-6.169,-4.39 -6.079,-4.871 -6.022,-5.367C-5.348,-5.231 -4.809,-5.077 -4.259,-5.022C-3.512,-4.948 -3.392,-5.16 -3.584,-5.86C-3.641,-6.068 -3.545,-6.489 -3.41,-6.543C-3.093,-6.672 -2.698,-6.703 -2.362,-6.636C-2.236,-6.611 -2.089,-6.19 -2.12,-5.973C-2.215,-5.313 -2.118,-5.171 -1.477,-5.361C-0.983,-5.506 -0.513,-5.73 0,-5.932" style="fill:rgb(35,31,32);"/>
    </g>
    <g transform="matrix(1.98041,0,0,1.98041,35.1109,16.6656)">
        <path d="M0,-5.449C0.161,-4.783 0.442,-4.143 0.047,-3.428C-0.113,-3.496 -0.23,-3.531 -0.33,-3.593C-0.674,-3.806 -1.031,-3.945 -1.33,-3.562C-1.653,-3.149 -1.72,-2.65 -1.398,-2.235C-1.28,-2.085 -0.879,-2.074 -0.63,-2.121C-0.005,-2.239 0.229,-2.097 0.115,-1.47C0.025,-0.974 -0.205,-0.504 -0.378,-0.01C-0.919,-0.142 -1.356,-0.271 -1.802,-0.352C-2.042,-0.396 -2.308,-0.407 -2.54,-0.347C-2.971,-0.236 -3.179,-0.008 -2.9,0.478C-2.797,0.658 -2.794,1.094 -2.898,1.155C-3.109,1.28 -3.488,1.334 -3.677,1.219C-3.851,1.113 -3.981,0.722 -3.931,0.501C-3.764,-0.244 -3.958,-0.524 -4.761,-0.499C-5.009,-0.491 -5.257,-0.442 -5.502,-0.398C-5.723,-0.359 -5.94,-0.301 -6.254,-0.229C-6.353,-0.666 -6.494,-1.058 -6.52,-1.458C-6.554,-1.984 -6.237,-2.138 -5.748,-1.945C-5.535,-1.861 -5.079,-1.844 -5.065,-1.891C-4.973,-2.209 -4.882,-2.579 -4.973,-2.877C-5.03,-3.065 -5.405,-3.276 -5.633,-3.272C-6.411,-3.258 -6.559,-3.336 -6.484,-4.123C-6.438,-4.604 -6.264,-5.074 -6.13,-5.621C-5.737,-5.474 -5.459,-5.343 -5.167,-5.269C-4.749,-5.165 -4.32,-5.043 -3.894,-5.038C-3.386,-5.033 -3.322,-5.262 -3.544,-5.706C-3.637,-5.892 -3.655,-6.276 -3.54,-6.377C-3.193,-6.678 -2.719,-6.783 -2.35,-6.442C-2.206,-6.309 -2.233,-5.949 -2.25,-5.696C-2.265,-5.47 -2.372,-5.251 -2.439,-5.027C-2.183,-4.99 -1.909,-4.878 -1.673,-4.931C-1.129,-5.053 -0.604,-5.257 0,-5.449" style="fill:rgb(35,31,32);"/>
    </g>
    <g transform="matrix(1.98041,0,0,1.98041,22.9617,17.1964)">
        <path d="M0,5.865C0.2,5.277 0.392,4.834 0.497,4.371C0.622,3.819 0.374,3.63 -0.181,3.687C-0.43,3.713 -0.912,3.6 -0.918,3.521C-0.952,3.091 -0.92,2.636 -0.795,2.226C-0.764,2.124 -0.306,2.139 -0.042,2.122C0.17,2.108 0.465,2.211 0.577,2.106C0.699,1.99 0.728,1.674 0.668,1.484C0.501,0.952 0.268,0.439 0.007,-0.215C0.529,-0.325 1.036,-0.482 1.552,-0.525C1.932,-0.556 2.219,-0.392 1.953,0.094C1.667,0.614 1.917,0.97 2.375,1.219C2.781,1.439 3.367,1.285 3.559,0.866C3.635,0.701 3.595,0.419 3.5,0.252C3.237,-0.211 3.473,-0.425 3.865,-0.404C4.431,-0.373 4.989,-0.219 5.626,-0.104C5.402,0.424 5.184,0.807 5.083,1.22C5.01,1.52 5.093,1.858 5.106,2.179C5.351,2.153 5.597,2.096 5.838,2.11C6.02,2.121 6.335,2.2 6.351,2.289C6.405,2.615 6.424,2.979 6.324,3.286C6.276,3.432 5.941,3.521 5.721,3.566C5.487,3.615 5.237,3.581 4.994,3.583C4.996,3.864 4.98,4.146 5.01,4.425C5.024,4.562 5.136,4.685 5.18,4.823C5.27,5.105 5.71,5.31 5.37,5.691C5.021,6.082 4.11,6.421 3.791,6.211C3.667,6.129 3.574,5.819 3.63,5.679C3.795,5.271 3.895,4.841 3.465,4.635C3.133,4.475 2.641,4.425 2.306,4.552C1.873,4.718 1.855,5.177 1.999,5.631C2.169,6.169 2.016,6.349 1.47,6.253C0.987,6.167 0.519,6.005 0,5.865" style="fill:rgb(35,31,32);"/>
    </g>
</svg>
