<?xml version="1.0" encoding="UTF-8" standalone="no"?>
<!DOCTYPE svg PUBLIC "-//W3C//DTD SVG 1.1//EN" "http://www.w3.org/Graphics/SVG/1.1/DTD/svg11.dtd">
<svg width="100%" height="100%" viewBox="0 0 1425 2134" version="1.1" xmlns="http://www.w3.org/2000/svg" xmlns:xlink="http://www.w3.org/1999/xlink" style="fill-rule:evenodd;clip-rule:evenodd;stroke-linejoin:round;stroke-miterlimit:2;">
    <g transform="matrix(4.16667,0,0,4.16667,0,0)">
        <path d="M170.929,85.071C218.191,85.071 256,123.667 256,170.142C256,217.403 218.191,256 170.929,256C123.668,256 85.858,217.403 85.858,170.929C85.858,123.667 123.668,85.071 170.929,85.071ZM170.929,0C76.406,0 0,76.407 0,170.929C0,200.861 7.877,229.218 22.055,254.425C24.418,258.363 26.781,262.302 29.144,266.24L170.929,512L311.926,266.24C314.29,263.089 315.865,259.938 318.228,256L319.803,253.637C333.982,229.218 341.859,200.861 341.859,170.142C341.858,76.407 265.453,0 170.929,0Z" style="fill-rule:nonzero;"/>
        <path d="M170.929,106.338C206.376,106.338 234.732,134.695 234.732,170.142C234.732,205.588 206.376,233.945 170.929,233.945C135.483,233.945 107.126,205.588 107.126,170.142C107.126,134.695 135.483,106.338 170.929,106.338ZM170.929,63.804C111.852,63.804 64.59,111.853 64.59,170.142C64.59,229.218 112.64,276.48 170.929,276.48C230.006,276.48 277.268,228.431 277.268,170.142C277.268,111.853 230.006,63.804 170.929,63.804Z" style="fill:rgb(58,58,58);fill-rule:nonzero;"/>
    </g>
</svg>
