<?xml version="1.0" encoding="UTF-8" standalone="no"?>
<!DOCTYPE svg PUBLIC "-//W3C//DTD SVG 1.1//EN" "http://www.w3.org/Graphics/SVG/1.1/DTD/svg11.dtd">
<svg width="100%" height="100%" viewBox="0 0 50 50" version="1.1" xmlns="http://www.w3.org/2000/svg" xmlns:xlink="http://www.w3.org/1999/xlink" xml:space="preserve" style="fill-rule:evenodd;clip-rule:evenodd;stroke-linejoin:round;stroke-miterlimit:2;">
    <g transform="matrix(2.83203,0,0,2.83203,42.0294,34.169)">
        <path d="M0,-6.311C-0.02,-6.313 -0.039,-6.313 -0.059,-6.315C-0.059,-7.278 -0.064,-8.241 -0.055,-9.204C-0.051,-9.465 -0.113,-9.598 -0.398,-9.659C-2.16,-10.038 -3.918,-10.438 -5.676,-10.823C-5.84,-10.858 -6.023,-10.883 -6.184,-10.848C-8.018,-10.444 -9.844,-10.024 -11.676,-9.618C-11.898,-9.567 -11.977,-9.467 -11.975,-9.241C-11.959,-7.327 -11.994,-5.411 -11.928,-3.498C-11.875,-1.961 -11.35,-0.551 -10.449,0.707C-9.363,2.222 -7.9,3.308 -6.375,4.332C-6.133,4.496 -5.943,4.511 -5.711,4.337C-4.9,3.73 -4.053,3.169 -3.279,2.517C-1.656,1.146 -0.498,-0.545 -0.207,-2.69C-0.049,-3.885 -0.064,-5.104 0,-6.311M-5.793,-11.803C-4.736,-11.555 -3.682,-11.307 -2.625,-11.065C-1.65,-10.842 -0.676,-10.618 0.303,-10.416C0.691,-10.336 0.83,-10.137 0.828,-9.75C0.818,-7.946 0.814,-6.141 0.824,-4.336C0.84,-1.196 -0.439,1.334 -2.826,3.318C-3.611,3.972 -4.467,4.543 -5.299,5.142C-5.785,5.492 -6.271,5.48 -6.777,5.142C-8.262,4.15 -9.695,3.103 -10.824,1.697C-12.088,0.121 -12.748,-1.678 -12.852,-3.69C-12.859,-3.873 -12.893,-4.055 -12.912,-4.237L-12.912,-9.948C-12.797,-10.227 -12.578,-10.338 -12.291,-10.401C-11.084,-10.661 -9.883,-10.936 -8.68,-11.215C-7.863,-11.403 -7.051,-11.606 -6.238,-11.803L-5.793,-11.803Z" style="fill:rgb(35,31,32);"/>
    </g>
    <g transform="matrix(2.3205,0,0,2.43664,23.7626,9.47317)">
        <path d="M0,5.197C-1.484,5.193 -2.967,5.177 -4.451,5.191C-4.783,5.195 -4.926,5.093 -4.928,4.765C-4.93,4.406 -4.955,4.051 -4.957,3.693C-4.963,2.752 -4.955,1.812 -4.961,0.873C-4.965,0.66 -4.915,0.524 -4.68,0.48C-3.223,0.205 -1.745,0.004 -0.339,-0.253C-0.06,-0.304 -0.019,-0.128 -0.019,0.107C-0.022,1.712 -0.012,3.597 -0.008,5.203L0,5.197Z" style="fill:rgb(243,234,189);stroke:black;stroke-width:0.32px;"/>
    </g>
    <g transform="matrix(-2.62087,0,0,2.83203,26.3516,7.41596)">
        <path d="M0,5.197C-1.484,5.193 -2.967,5.177 -4.451,5.191C-4.783,5.195 -4.926,5.093 -4.928,4.765C-4.93,4.406 -4.955,4.051 -4.957,3.693C-4.963,2.752 -4.955,1.812 -4.961,0.873C-4.965,0.66 -4.915,0.524 -4.68,0.48C-3.223,0.205 -1.745,0.004 -0.339,-0.253C-0.06,-0.304 -0.019,-0.128 -0.019,0.107C-0.022,1.712 -0.012,3.597 -0.008,5.203L0,5.197Z" style="fill:rgb(229,200,56);stroke:black;stroke-width:0.27px;"/>
    </g>
    <g transform="matrix(2.23028,0,0,2.44223,26.5277,41.0853)">
        <path d="M0,-6.541L4.873,-6.541C4.494,-3.42 2.459,-1.637 0.008,0.006L0.008,-6.547L0,-6.541Z" style="fill:rgb(243,234,189);stroke:black;stroke-width:0.32px;"/>
    </g>
    <g transform="matrix(-2.57132,0,0,2.83203,23.8092,43.6373)">
        <path d="M0,-6.541L4.873,-6.541C4.494,-3.42 2.459,-1.637 0.008,0.006L0.008,-6.547L0,-6.541Z" style="fill:rgb(229,200,56);stroke:black;stroke-width:0.28px;"/>
    </g>
</svg>
