<?xml version="1.0" encoding="UTF-8" standalone="no"?>
<!DOCTYPE svg PUBLIC "-//W3C//DTD SVG 1.1//EN" "http://www.w3.org/Graphics/SVG/1.1/DTD/svg11.dtd">
<svg width="100%" height="100%" viewBox="0 0 50 50" version="1.1" xmlns="http://www.w3.org/2000/svg" xmlns:xlink="http://www.w3.org/1999/xlink" style="fill-rule:evenodd;clip-rule:evenodd;stroke-linejoin:round;stroke-miterlimit:2;">
    <g transform="matrix(0.78248,0,0,1.09975,5.47838,1.03544)">
        <rect x="22.511" y="-0.942" width="4.875" height="45.465"/>
    </g>
    <g transform="matrix(4.79131e-17,0.78248,-1.09975,6.73404e-17,48.9646,5.47838)">
        <rect x="22.511" y="-0.942" width="4.875" height="45.465"/>
    </g>
    <path d="M6.118,29.263C7.753,36.525 13.475,42.247 20.737,43.882L20.737,46.977C11.8,45.251 4.748,38.2 3.023,29.263L6.118,29.263ZM46.977,29.263C45.252,38.2 38.2,45.251 29.263,46.977L29.263,43.882C36.525,42.247 42.247,36.525 43.882,29.263L46.977,29.263ZM3.023,20.737C4.748,11.8 11.8,4.749 20.737,3.023L20.737,6.118C13.475,7.753 7.753,13.475 6.118,20.737L3.023,20.737ZM43.882,20.737C42.247,13.475 36.525,7.753 29.263,6.118L29.263,3.023C38.2,4.749 45.252,11.8 46.977,20.737L43.882,20.737Z"/>
</svg>
