<?xml version="1.0" encoding="UTF-8" standalone="no"?>
<!DOCTYPE svg PUBLIC "-//W3C//DTD SVG 1.1//EN" "http://www.w3.org/Graphics/SVG/1.1/DTD/svg11.dtd">
<svg width="100%" height="100%" viewBox="0 0 1024 1024" version="1.1" xmlns="http://www.w3.org/2000/svg" xmlns:xlink="http://www.w3.org/1999/xlink" xml:space="preserve" style="fill-rule:evenodd;clip-rule:evenodd;stroke-linejoin:round;stroke-miterlimit:2;">
    <g transform="matrix(1.12031,0,0,1.12031,-61.5992,-61.6001)">
        <path d="M512.762,230.106L152.447,230.106L152.447,871.245L742.295,871.245L742.295,544.627L793.586,495.653L793.586,871.245C793.586,899.57 770.619,922.536 742.295,922.536L152.447,922.536C124.122,922.536 101.156,899.57 101.156,871.245L101.156,230.106C101.156,201.78 124.122,178.815 152.447,178.815L563.289,178.815L564.566,180.093L512.762,230.106ZM806.51,152.706C822,153.482 836.537,160.382 846.956,171.877C860.642,182.772 869.47,198.625 871.55,215.993C869.922,234.163 861.232,250.98 847.345,262.826C833.081,277.564 721.321,387.985 515.242,591.096L499.464,606.648C475.834,613.948 419.247,632.132 376.471,645.93C390.245,600.449 406.775,545.502 414.137,519.53C458.191,475.527 749.445,184.71 760.515,173.804C772.85,161.519 789.178,154.056 806.546,152.753M806.546,101.465C775.592,102.68 746.227,115.528 724.325,137.455C712.329,149.3 372.35,488.79 372.35,488.79C369.67,491.495 367.742,494.839 366.753,498.52C357.549,532.556 311.392,683.637 310.928,685.139C308.574,692.853 310.678,701.243 316.388,706.941C320.396,710.973 325.855,713.227 331.54,713.214C333.77,713.227 335.999,712.889 338.128,712.225C339.706,711.698 495.62,661.285 521.277,653.621C524.659,652.607 527.74,650.779 530.257,648.311C546.448,632.332 858.928,324.699 884.159,298.566C910.305,271.643 923.316,243.543 922.815,215.217C920.825,184.099 906.237,155.123 882.419,134.987C862.547,114.212 835.223,102.178 806.485,101.552L806.546,101.465Z" style="fill:url(#_Linear1);fill-rule:nonzero;"/>
    </g>
    <defs>
        <linearGradient id="_Linear1" x1="0" y1="0" x2="1" y2="0" gradientUnits="userSpaceOnUse" gradientTransform="matrix(821.674,0,0,821.071,101.156,512.001)"><stop offset="0" style="stop-color:rgb(108,108,108);stop-opacity:1"/><stop offset="1" style="stop-color:rgb(45,45,45);stop-opacity:1"/></linearGradient>
    </defs>
</svg>
