<?xml version="1.0" encoding="UTF-8" standalone="no"?>
<!DOCTYPE svg PUBLIC "-//W3C//DTD SVG 1.1//EN" "http://www.w3.org/Graphics/SVG/1.1/DTD/svg11.dtd">
<svg width="100%" height="100%" viewBox="0 0 50 50" version="1.1" xmlns="http://www.w3.org/2000/svg" xmlns:xlink="http://www.w3.org/1999/xlink" xml:space="preserve" xmlns:serif="http://www.serif.com/" style="fill-rule:evenodd;clip-rule:evenodd;stroke-linejoin:round;stroke-miterlimit:2;">
    <g transform="matrix(2.88813,0,0,2.88813,33.2775,30.5179)">
        <path d="M0,-10.177C-0.167,-9.875 -0.39,-9.59 -0.5,-9.266C-1.092,-7.489 -2.268,-6.315 -4.048,-5.744C-4.217,-5.69 -4.417,-5.668 -4.544,-5.563C-4.704,-5.433 -4.9,-5.229 -4.9,-5.058C-4.896,-4.887 -4.695,-4.692 -4.539,-4.557C-4.429,-4.463 -4.25,-4.453 -4.103,-4.405C-2.286,-3.807 -1.047,-2.631 -0.484,-0.78C-0.454,-0.672 -0.448,-0.539 -0.377,-0.466C-0.211,-0.285 -0.014,-0.01 0.177,-0.005C0.363,0 0.614,-0.248 0.739,-0.448C0.885,-0.684 0.91,-0.994 1.02,-1.262C1.682,-2.868 2.866,-3.889 4.512,-4.429C4.809,-4.526 5.038,-4.826 5.297,-5.03C5.034,-5.262 4.809,-5.608 4.503,-5.705C2.635,-6.297 1.438,-7.524 0.831,-9.367C0.737,-9.655 0.547,-9.908 0.403,-10.177L0,-10.177Z" style="fill:rgb(131,24,244);stroke:black;stroke-width:0.69px;"/>
    </g>
    <g transform="matrix(2.88813,0,0,2.88813,1.15011,26.646)">
        <path d="M0,0.016C0.308,0.265 0.476,0.495 0.695,0.562C1.996,0.959 2.836,1.781 3.229,3.09C3.29,3.296 3.602,3.587 3.76,3.566C3.983,3.536 4.29,3.285 4.354,3.066C4.743,1.781 5.564,0.978 6.834,0.574C7.055,0.504 7.335,0.187 7.328,-0.008C7.323,-0.207 7.03,-0.494 6.804,-0.57C5.568,-0.981 4.753,-1.762 4.366,-3.022C4.295,-3.251 4.002,-3.553 3.799,-3.562C3.611,-3.571 3.294,-3.272 3.223,-3.049C2.823,-1.772 2.003,-0.962 0.732,-0.559C0.498,-0.485 0.127,-0.294 0,0.016Z" style="fill:rgb(149,203,222);stroke:black;stroke-width:0.69px;"/>
    </g>
    <g transform="matrix(2.88813,0,0,2.88813,17.1071,40.4891)">
        <path d="M0,-0.023C0.336,0.249 0.519,0.496 0.757,0.576C1.649,0.872 2.219,1.439 2.53,2.328C2.61,2.558 2.934,2.884 3.095,2.859C3.333,2.82 3.624,2.54 3.719,2.297C4.045,1.451 4.582,0.88 5.453,0.584C5.684,0.501 6.02,0.191 5.999,0.025C5.969,-0.21 5.689,-0.511 5.449,-0.603C4.602,-0.928 4.039,-1.476 3.715,-2.331C3.624,-2.575 3.303,-2.907 3.104,-2.896C2.892,-2.883 2.601,-2.551 2.51,-2.299C2.201,-1.463 1.651,-0.93 0.821,-0.627C0.565,-0.533 0.356,-0.294 0,-0.023Z" style="fill:rgb(244,24,192);stroke:black;stroke-width:0.69px;"/>
    </g>
</svg>
