<?xml version="1.0" encoding="UTF-8" standalone="no"?>
<!DOCTYPE svg PUBLIC "-//W3C//DTD SVG 1.1//EN" "http://www.w3.org/Graphics/SVG/1.1/DTD/svg11.dtd">
<svg width="438px" height="314px" version="1.1" xmlns="http://www.w3.org/2000/svg" style="fill-rule:evenodd;clip-rule:evenodd;stroke-linecap:round;stroke-linejoin:round;stroke-miterlimit:1.5;">
    <g transform="matrix(1,0,0,1,-33.8413,-104.548)">
        <path d="M229.171,199.057c-0,-0 96.771,97.851 121.2,128.934" style="fill:none;stroke:black;stroke-width:9.33px;"/>
        <g transform="matrix(2.87486,0,0,2.87486,-355.881,-482.375)">
            <circle cx="181.776" cy="251.843" r="1.515"/>
        </g>
        <g transform="matrix(2.87486,0,0,2.87486,-321.152,-499.987)">
            <circle cx="181.776" cy="251.843" r="1.515"/>
        </g>
        <g transform="matrix(2.87486,0,0,2.87486,-318.452,-450.39)">
            <circle cx="181.776" cy="251.843" r="1.515"/>
        </g>
        <path d="M93.89,280.68l-16.785,12.691" style="fill:none;stroke:black;stroke-width:9.33px;"/>
        <path d="M110.272,302.679l-8.949,26.346" style="fill:none;stroke:black;stroke-width:9.33px;"/>
        <path d="M344.671,203.059c0,0 -49.763,78.474 -121.987,132.277" style="fill:none;stroke:black;stroke-width:9.33px;"/>
        <path d="M121.401,324.679l-7.175,19.634" style="fill:none;stroke:black;stroke-width:9.33px;"/>
        <path d="M142.895,353.268l-12.859,10.142" style="fill:none;stroke:black;stroke-width:9.33px;"/>
        <path d="M167.734,362.813l-22.571,14.912" style="fill:none;stroke:black;stroke-width:9.33px;"/>
        <path d="M257.492,375.705l-4.881,20.359" style="fill:none;stroke:black;stroke-width:9.33px;"/>
        <path d="M282.664,370.085l-11.396,26.425" style="fill:none;stroke:black;stroke-width:9.33px;"/>
        <path d="M321.591,362.908l-26.245,37.506" style="fill:none;stroke:black;stroke-width:9.33px;"/>
        <path d="M408.242,367.6l22.177,21.169" style="fill:none;stroke:black;stroke-width:9.33px;"/>
        <path d="M425.433,355.341l28.251,29.023" style="fill:none;stroke:black;stroke-width:9.33px;"/>
        <path d="M436.439,318.634l19.145,8.814" style="fill:none;stroke:black;stroke-width:9.33px;"/>
        <path d="M397.545,148.409l23.592,-27.222" style="fill:none;stroke:black;stroke-width:9.33px;"/>
        <path d="M374.847,145.309l26.006,-24.655" style="fill:none;stroke:black;stroke-width:9.33px;"/>
        <path d="M236.524,147.469l-7.664,-22.62" style="fill:none;stroke:black;stroke-width:9.33px;"/>
        <path d="M189.87,161.59c-1.866,-7.372 -13.016,-36.258 -13.016,-36.258" style="fill:none;stroke:black;stroke-width:9.33px;"/>
        <path d="M44.508,253.826l113.243,-129.625c0,-0 252.322,-0.251 282.43,-8.785c30.109,-8.535 17.796,256.973 17.197,273.712c-0.598,16.739 -273.28,26.183 -298.648,11.03c-25.368,-15.153 -114.222,-146.332 -114.222,-146.332Z" style="fill:none;stroke:black;stroke-width:21.33px;"/>
        <path d="M208.375,146.668l-6.528,-21.524" style="fill:none;stroke:black;stroke-width:9.33px;"/>
    </g>
</svg>
