<?xml version="1.0" encoding="UTF-8" standalone="no"?>
<!DOCTYPE svg PUBLIC "-//W3C//DTD SVG 1.1//EN" "http://www.w3.org/Graphics/SVG/1.1/DTD/svg11.dtd">
<svg width="100%" height="100%" viewBox="0 0 50 50" version="1.1" xmlns="http://www.w3.org/2000/svg" xmlns:xlink="http://www.w3.org/1999/xlink" xml:space="preserve" style="fill-rule:evenodd;clip-rule:evenodd;stroke-linejoin:round;stroke-miterlimit:2;">
    <g transform="matrix(7.64047,0,0,7.64047,-165.414,-172.211)">
        <path d="M24.922,22.539C26.728,22.539 28.194,24.005 28.194,25.811C28.194,27.617 26.728,29.083 24.922,29.083C23.116,29.083 21.65,27.617 21.65,25.811C21.65,24.005 23.116,22.539 24.922,22.539ZM23.635,23.515L23.635,28.108L24.83,28.108L24.83,26.258L25.15,26.258C25.411,26.258 25.623,26.222 25.784,26.15C25.946,26.079 26.057,25.975 26.118,25.841C26.178,25.707 26.208,25.493 26.208,25.2L26.208,24.8C26.208,24.512 26.193,24.3 26.162,24.163C26.13,24.026 26.071,23.909 25.983,23.813C25.895,23.716 25.763,23.642 25.588,23.591C25.414,23.54 25.163,23.515 24.838,23.515L23.635,23.515ZM24.83,24.301C24.985,24.301 25.087,24.324 25.136,24.371C25.185,24.419 25.21,24.521 25.21,24.678L25.21,25.055C25.21,25.225 25.188,25.338 25.146,25.391C25.103,25.445 25.027,25.472 24.917,25.472C24.893,25.472 24.864,25.471 24.83,25.469L24.83,24.301Z"/>
    </g>
</svg>
