<?xml version="1.0" encoding="UTF-8" standalone="no"?>
<!DOCTYPE svg PUBLIC "-//W3C//DTD SVG 1.1//EN" "http://www.w3.org/Graphics/SVG/1.1/DTD/svg11.dtd">
<svg width="100%" height="100%" viewBox="0 0 50 50" version="1.1" xmlns="http://www.w3.org/2000/svg" xmlns:xlink="http://www.w3.org/1999/xlink" xml:space="preserve" xmlns:serif="http://www.serif.com/" style="fill-rule:evenodd;clip-rule:evenodd;stroke-linejoin:round;stroke-miterlimit:2;">
    <g transform="matrix(1.36584,0,0,1.36584,-13.859,-16.94)">
        <g>
            <path d="M28.45,12.402C38.552,12.402 46.754,20.604 46.754,30.706C46.754,40.808 38.552,49.01 28.45,49.01C18.348,49.01 10.147,40.808 10.147,30.706C10.147,20.604 18.348,12.402 28.45,12.402ZM21.738,18.3L21.738,42.799L28.108,42.799L28.108,31.752C28.986,31.752 29.528,31.908 29.735,32.221C29.942,32.534 30.045,33.346 30.045,34.657L30.045,42.799L35.962,42.799L35.962,36.337C35.962,34.36 35.909,33.152 35.803,32.713C35.697,32.274 35.427,31.792 34.994,31.268C34.56,30.743 33.712,30.325 32.451,30.012C33.843,29.881 34.777,29.487 35.251,28.832C35.725,28.176 35.962,26.895 35.962,24.988C35.962,22.9 35.627,21.379 34.956,20.426C34.285,19.472 33.417,18.88 32.353,18.648C31.289,18.416 29.253,18.3 26.247,18.3L21.738,18.3ZM28.108,22.491C28.845,22.491 29.352,22.612 29.629,22.854C29.907,23.096 30.045,23.606 30.045,24.383L30.045,25.729C30.045,26.809 29.902,27.447 29.614,27.644C29.327,27.84 28.825,27.939 28.108,27.939L28.108,22.491Z" style="fill:rgb(251,194,46);"/>
        </g>
    </g>
</svg>
