<?xml version="1.0" encoding="UTF-8" standalone="no"?>
<!DOCTYPE svg PUBLIC "-//W3C//DTD SVG 1.1//EN" "http://www.w3.org/Graphics/SVG/1.1/DTD/svg11.dtd">
<svg width="100%" height="100%" viewBox="0 0 50 50" version="1.1" xmlns="http://www.w3.org/2000/svg" xmlns:xlink="http://www.w3.org/1999/xlink" xml:space="preserve" style="fill-rule:evenodd;clip-rule:evenodd;stroke-linejoin:round;stroke-miterlimit:2;">
    <g transform="matrix(2.3316,0,0,2.3316,14.7152,41.5096)">
        <path d="M0,-8.974C0.736,-9.012 1.481,-8.851 2.076,-9.379C2.21,-9.101 2.3,-8.841 2.45,-8.62C2.784,-8.13 3.296,-7.898 3.861,-7.838C4.615,-7.759 5.374,-7.749 6.066,-8.201C6.113,-7.927 6.119,-7.665 6.206,-7.435C6.502,-6.658 7.146,-6.333 7.919,-6.242C8.781,-6.138 9.144,-6.213 10.105,-6.613C10.105,-6.431 10.12,-6.265 10.104,-6.101C9.986,-4.898 10.845,-4.296 11.689,-4.177C12.191,-4.107 12.719,-4.129 13.226,-4.191C13.81,-4.259 14.269,-4.587 14.597,-5.117C14.615,-5.076 14.633,-5.054 14.632,-5.035C14.465,-2.864 14.016,-0.771 13.076,1.213C12.788,1.819 12.65,2.497 12.459,3.145C12.407,3.321 12.34,3.389 12.148,3.389C8.407,3.355 4.668,3.328 0.929,3.299C0.874,3.299 0.819,3.294 0.738,3.287C1.158,2.571 0.813,2.045 0.373,1.52C-0.283,0.739 -0.946,-0.039 -1.551,-0.86C-2.496,-2.142 -3.416,-3.446 -4.307,-4.768C-4.764,-5.447 -5.173,-6.163 -5.53,-6.9C-5.864,-7.587 -5.873,-8.333 -5.694,-9.085C-5.579,-9.572 -5.234,-9.89 -4.934,-10.244C-4.268,-11.028 -3.434,-11.591 -2.532,-12.067C-1.974,-12.363 -1.289,-12.156 -0.907,-11.579C-0.668,-11.218 -0.534,-10.825 -0.551,-10.392C-0.58,-9.533 -0.593,-8.666 -0.919,-7.853C-1.052,-7.519 -1.25,-7.212 -1.411,-6.89C-1.486,-6.738 -1.77,-6.625 -1.491,-6.4C-1.154,-6.126 -0.89,-6.07 -0.687,-6.31C-0.526,-6.503 -0.36,-6.73 -0.302,-6.966C-0.183,-7.455 -0.132,-7.96 -0.057,-8.46C-0.033,-8.62 -0.021,-8.783 0,-8.974" style="fill:rgb(35,31,32);"/>
    </g>
    <g transform="matrix(2.3316,0,0,2.3316,47.5282,18.6763)">
        <path d="M0,0.071C0,0.988 -0.035,1.909 0.011,2.823C0.05,3.626 -0.441,3.991 -1.051,4.061C-1.482,4.11 -1.934,4.102 -2.361,4.034C-3.016,3.926 -3.305,3.53 -3.305,2.874C-3.305,1.028 -3.305,-0.818 -3.304,-2.661C-3.304,-3.327 -3.113,-3.657 -2.477,-3.83C-1.808,-4.01 -1.119,-4.039 -0.475,-3.677C-0.138,-3.489 0.002,-3.203 0.001,-2.827C-0.003,-1.861 -0.001,-0.895 0,0.071" style="fill:rgb(35,31,32);"/>
    </g>
    <g transform="matrix(2.3316,0,0,2.3316,38.2793,13.9835)">
        <path d="M0,-0.012C0,0.896 -0.026,1.806 0.009,2.713C0.036,3.443 -0.326,3.808 -0.937,3.939C-1.49,4.058 -2.059,4.079 -2.604,3.873C-3.122,3.677 -3.306,3.402 -3.306,2.849C-3.308,0.985 -3.306,-0.879 -3.308,-2.744C-3.308,-3.478 -3.057,-3.825 -2.337,-3.969C-1.812,-4.074 -1.271,-4.091 -0.752,-3.904C-0.203,-3.704 -0.001,-3.401 0,-2.823L0,-0.012Z" style="fill:rgb(35,31,32);"/>
    </g>
    <g transform="matrix(2.3316,0,0,2.3316,21.2842,10.2513)">
        <path d="M0,0.011C0,-0.898 0.033,-1.808 -0.01,-2.715C-0.047,-3.502 0.371,-3.836 0.982,-3.955C1.537,-4.064 2.104,-4.083 2.645,-3.854C3.072,-3.673 3.298,-3.371 3.295,-2.881C3.283,-1.016 3.269,0.849 3.302,2.714C3.315,3.491 2.977,3.846 2.27,3.974C1.724,4.073 1.166,4.094 0.637,3.858C0.213,3.673 -0.014,3.368 -0.005,2.88C0.012,1.923 0,0.968 0,0.011" style="fill:rgb(35,31,32);"/>
    </g>
    <g transform="matrix(2.3316,0,0,2.3316,14.9542,0.439226)">
        <path d="M0,7.089C0.025,6.406 0.049,5.742 -0.381,5.178C-0.827,4.589 -1.44,4.479 -2.16,4.616C-2.154,3.855 -2.102,3.129 -1.944,2.41C-1.827,1.87 -1.608,1.373 -1.262,0.944C-0.601,0.127 0.299,-0.031 1.275,0.11C1.932,0.204 2.009,0.284 2.016,0.951C2.036,2.671 2.034,4.391 2.031,6.111C2.03,6.533 1.584,7.031 1.146,7.08C0.781,7.12 0.406,7.089 0,7.089" style="fill:rgb(35,31,32);"/>
    </g>
</svg>
