<?xml version="1.0" encoding="UTF-8" standalone="no"?>
<!DOCTYPE svg PUBLIC "-//W3C//DTD SVG 1.1//EN" "http://www.w3.org/Graphics/SVG/1.1/DTD/svg11.dtd">
<svg width="100%" height="100%" viewBox="0 0 32 32" version="1.1" xmlns="http://www.w3.org/2000/svg" xmlns:xlink="http://www.w3.org/1999/xlink" xml:space="preserve" style="fill-rule:evenodd;clip-rule:evenodd;stroke-linejoin:round;stroke-miterlimit:2;">
    <path d="M11.467,13.46L8.198,14.396L6.842,16.015L6.507,22.323L6.596,28.688L7.587,30.072L9.179,30.6L23.413,30.531L24.834,29.734L25.582,28.028L25.443,17.121L24.703,15.357L23.12,13.937L20.549,13.455L11.467,13.46Z" style="fill:rgb(120,28,225);"/>
    <path d="M21,13L21,11L23,11C23.552,11 24,10.552 24,10L24,9C24,8.448 23.552,8 23,8L20.143,8L20.837,3.141C20.923,2.539 20.456,2 19.847,2L12.153,2C11.544,2 11.077,2.539 11.163,3.141L11.857,8L9,8C8.448,8 8,8.448 8,9L8,10C8,10.552 8.448,11 9,11L11,11L11,13C8.239,13 6,15.239 6,18L6,28C6,29.657 7.343,31 9,31L23,31C24.657,31 26,29.657 26,28L26,18C26,15.239 23.761,13 21,13ZM19.847,3L19.133,8L12.868,8L12.154,3L19.847,3ZM9,10L9,9L23,9L23,10L9,10ZM23,30L9,30C7.895,30 7,29.105 7,28L7,18C7,15.791 8.791,14 11,14L12,14L12,11L20,11L20,14L21,14C23.209,14 25,15.791 25,18L25,28C25,29.105 24.105,30 23,30ZM18.776,24.671L17.118,25.5L18.776,26.329C19.023,26.453 19.124,26.753 19,27C18.877,27.247 18.576,27.347 18.329,27.224L16,26.059L13.671,27.224C13.424,27.347 13.124,27.247 13,27C12.877,26.753 12.977,26.453 13.224,26.329L14.882,25.5L13.224,24.671C12.977,24.547 12.876,24.247 13,24C13.123,23.753 13.424,23.653 13.671,23.776L16,24.941L18.329,23.776C18.576,23.653 18.876,23.753 19,24C19.124,24.247 19.023,24.547 18.776,24.671ZM14,21.816L14,22C14,22.552 14.448,23 15,23L17,23C17.552,23 18,22.552 18,22L18,21.816C19.137,21.412 19.006,21.308 19,20.083C18.992,18.454 17.726,17.054 16.098,17.001C14.397,16.947 13,18.31 13,20C13,21.304 12.837,21.403 14,21.816ZM13.995,20.44C13.998,20.31 14,20.164 14,20C14,18.897 14.897,18 16,18C17.103,18 18,18.897 18,20C18,20.164 18.002,20.31 18.005,20.44C18.007,20.543 18.009,20.654 18.008,20.744C17.935,20.775 17.826,20.817 17.665,20.874L17,21.11L17,22L15,22L15,21.11L14.335,20.874C14.174,20.817 14.066,20.775 13.992,20.744C13.992,20.654 13.994,20.543 13.995,20.44Z" style="fill:rgb(11,23,25);fill-rule:nonzero;"/>
</svg>
