<?xml version="1.0" encoding="UTF-8" standalone="no"?>
<!DOCTYPE svg PUBLIC "-//W3C//DTD SVG 1.1//EN" "http://www.w3.org/Graphics/SVG/1.1/DTD/svg11.dtd">
<svg width="100%" height="100%" viewBox="0 0 399 437" version="1.1" xmlns="http://www.w3.org/2000/svg" xmlns:xlink="http://www.w3.org/1999/xlink" xml:space="preserve" xmlns:serif="http://www.serif.com/" style="fill-rule:evenodd;clip-rule:evenodd;stroke-linecap:round;stroke-linejoin:round;">
    <g id="Layer-1" serif:id="Layer 1" transform="matrix(1,0,0,1,-60.7627,-347.373)">
        <g id="g5238">
        </g>
        <g id="g5226" transform="matrix(1,0,0,1,0.0152217,-0.0151951)">
            <path id="path5180" d="M259.257,353.463L66.822,454.984L74.399,668.631L256.226,777.727L439.569,667.116L453.206,458.014L259.257,353.463Z" style="fill:none;stroke:black;stroke-width:12.15px;"/>
            <path id="path5186" d="M71.368,454.984L254.711,430.74L448.66,456.499" style="fill:none;stroke:black;stroke-width:12.15px;"/>
            <path id="path5190" d="M78.944,664.085L138.038,639.842L371.383,635.296L433.508,664.085" style="fill:none;stroke:black;stroke-width:12.15px;stroke-linecap:butt;"/>
            <path id="path5192" d="M69.853,461.045L136.523,635.296L257.741,433.771L374.414,633.781L442.599,459.529" style="fill:none;stroke:black;stroke-width:12.15px;"/>
            <path id="path5194" d="M259.257,359.524L257.741,433.771" style="fill:none;stroke:black;stroke-width:12.15px;"/>
            <path id="path5196" d="M139.553,644.387L256.226,773.182L371.383,641.357" style="fill:none;stroke:black;stroke-width:12.15px;"/>
        </g>
    </g>
</svg>
