<?xml version="1.0" encoding="UTF-8" standalone="no"?>
<!DOCTYPE svg PUBLIC "-//W3C//DTD SVG 1.1//EN" "http://www.w3.org/Graphics/SVG/1.1/DTD/svg11.dtd">
<svg width="100%" height="100%" viewBox="0 0 50 50" version="1.1" xmlns="http://www.w3.org/2000/svg" xmlns:xlink="http://www.w3.org/1999/xlink" xml:space="preserve" xmlns:serif="http://www.serif.com/" style="fill-rule:evenodd;clip-rule:evenodd;stroke-linejoin:round;stroke-miterlimit:2;">
    <g transform="matrix(1.36584,0,0,1.36584,-13.859,-16.94)">
        <path d="M28.45,12.402C38.552,12.402 46.754,20.604 46.754,30.706C46.754,40.808 38.552,49.01 28.45,49.01C18.348,49.01 10.147,40.808 10.147,30.706C10.147,20.604 18.348,12.402 28.45,12.402ZM36.975,20.157L29.818,20.157L28.566,30.012L27.81,24.641C27.576,22.92 27.354,21.426 27.145,20.157L20.041,20.157L20.041,41.262L24.838,41.262L24.838,27.34L26.859,41.262L30.261,41.262L32.177,27.014L32.177,41.262L36.975,41.262L36.975,20.157Z" style="fill:rgb(251,194,46);"/>
    </g>
</svg>
