<?xml version="1.0" encoding="UTF-8" standalone="no"?>
<!DOCTYPE svg PUBLIC "-//W3C//DTD SVG 1.1//EN" "http://www.w3.org/Graphics/SVG/1.1/DTD/svg11.dtd">
<svg width="100%" height="100%" viewBox="0 0 50 35" version="1.1" xmlns="http://www.w3.org/2000/svg" xmlns:xlink="http://www.w3.org/1999/xlink" xml:space="preserve" style="fill-rule:evenodd;clip-rule:evenodd;stroke-linecap:round;stroke-linejoin:round;stroke-miterlimit:1.5;">
    <g transform="matrix(0.972307,0,0,0.972307,0.764082,-13.9403)">
        <g transform="matrix(0.407917,-0.706532,0.796939,0.460113,-16.4828,46.9342)">
            <path d="M26.252,7.414C26.252,7.5 35.404,14.383 35.404,22.968C35.404,31.552 26.252,38.482 26.252,38.521C26.252,38.561 17.1,31.552 17.1,22.968C17.1,14.383 26.252,7.327 26.252,7.414Z" style="fill:rgb(253,178,222);stroke:black;stroke-width:1.77px;"/>
        </g>
        <g transform="matrix(0.407917,0.706532,-0.796939,0.460113,44.966,9.8382)">
            <path d="M26.252,7.414C26.252,7.5 35.404,14.383 35.404,22.968C35.404,31.552 26.252,38.482 26.252,38.521C26.252,38.561 17.1,31.552 17.1,22.968C17.1,14.383 26.252,7.327 26.252,7.414Z" style="fill:rgb(253,178,222);stroke:black;stroke-width:1.77px;"/>
        </g>
        <g transform="matrix(0.706532,-0.407917,0.460113,0.796939,-11.262,26.0465)">
            <path d="M26.252,7.414C26.252,7.5 35.404,14.383 35.404,22.968C35.404,31.552 26.252,38.482 26.252,38.521C26.252,38.561 17.1,31.552 17.1,22.968C17.1,14.383 26.252,7.327 26.252,7.414Z" style="fill:rgb(252,111,193);stroke:black;stroke-width:1.77px;"/>
        </g>
        <g transform="matrix(0.706532,0.407917,-0.460113,0.796939,24.1464,4.62912)">
            <path d="M26.252,7.414C26.252,7.5 35.404,14.383 35.404,22.968C35.404,31.552 26.252,38.482 26.252,38.521C26.252,38.561 17.1,31.552 17.1,22.968C17.1,14.383 26.252,7.327 26.252,7.414Z" style="fill:rgb(252,111,193);stroke:black;stroke-width:1.77px;"/>
        </g>
        <g transform="matrix(0.815833,0,0,0.920225,3.53727,10.6722)">
            <path d="M26.252,7.414C26.252,7.5 35.404,14.383 35.404,22.968C35.404,31.552 26.252,38.482 26.252,38.521C26.252,38.561 17.1,31.552 17.1,22.968C17.1,14.383 26.252,7.327 26.252,7.414Z" style="fill:rgb(250,20,151);stroke:black;stroke-width:1.77px;"/>
        </g>
    </g>
</svg>
