<?xml version="1.0" encoding="UTF-8" standalone="no"?>
<!DOCTYPE svg PUBLIC "-//W3C//DTD SVG 1.1//EN" "http://www.w3.org/Graphics/SVG/1.1/DTD/svg11.dtd">
<svg width="100%" height="100%" viewBox="0 0 50 50" version="1.1" xmlns="http://www.w3.org/2000/svg" xmlns:xlink="http://www.w3.org/1999/xlink" xml:space="preserve" style="fill-rule:evenodd;clip-rule:evenodd;stroke-linejoin:round;stroke-miterlimit:2;">
    <g transform="matrix(2.01531,0,0,2.01531,26.6872,3.0122)">
        <path d="M0,13.431C-0.334,12.241 -0.663,11.047 -1.005,9.858C-1.51,8.095 -2.022,6.334 -2.54,4.576C-2.694,4.05 -3.067,3.747 -3.552,3.774C-4.03,3.799 -4.321,4.105 -4.435,4.544C-4.825,6.038 -5.194,7.538 -5.572,9.036C-5.698,9.535 -5.805,10.039 -5.963,10.528C-6.002,10.649 -6.206,10.796 -6.336,10.797C-8.046,10.818 -9.756,10.824 -11.466,10.803C-11.626,10.801 -11.838,10.63 -11.934,10.479C-12.99,8.814 -13.334,7.024 -12.925,5.076C-12.477,2.947 -11.245,1.494 -9.204,0.826C-7.112,0.139 -5.061,0.293 -3.197,1.579C-2.509,2.054 -1.852,2.577 -1.216,3.12C-0.932,3.364 -0.775,3.365 -0.496,3.117C0.701,2.053 1.948,1.059 3.543,0.642C5.996,0 9.441,0.861 10.695,3.521C11.713,5.681 11.648,7.834 10.551,9.978C10.208,10.651 9.789,10.879 9.047,10.835C7.873,10.767 6.692,10.803 5.515,10.825C5.153,10.831 4.959,10.702 4.809,10.382C4.431,9.582 4.023,8.796 3.629,8.004C3.4,7.545 3.063,7.261 2.518,7.334C1.979,7.408 1.79,7.822 1.656,8.266C1.166,9.898 0.685,11.534 0.199,13.166C0.172,13.256 0.133,13.343 0.099,13.43C0.066,13.431 0.033,13.431 0,13.431" style="fill:rgb(35,31,32);"/>
    </g>
    <g transform="matrix(2.01531,0,0,2.01531,19.8196,46.4576)">
        <path d="M0,-12.902C0.845,-9.976 1.662,-7.15 2.475,-4.324C2.625,-3.803 2.963,-3.477 3.387,-3.469C3.845,-3.461 4.252,-3.781 4.406,-4.287C4.653,-5.103 4.887,-5.923 5.133,-6.739C5.507,-7.978 5.886,-9.216 6.306,-10.595C6.554,-10.129 6.75,-9.788 6.919,-9.434C7.147,-8.957 7.5,-8.757 8.037,-8.769C9.244,-8.795 10.453,-8.777 11.745,-8.777C11.628,-8.63 11.563,-8.528 11.479,-8.447C8.779,-5.843 6.076,-3.243 3.373,-0.641C2.706,0 2.394,-0.004 1.747,-0.627C-0.968,-3.24 -3.686,-5.85 -6.402,-8.464C-6.477,-8.536 -6.535,-8.625 -6.658,-8.777L-3.306,-8.777C-2.822,-8.777 -2.338,-8.769 -1.855,-8.78C-1.355,-8.791 -1.006,-9.089 -0.891,-9.567C-0.653,-10.55 -0.414,-11.534 -0.169,-12.516C-0.143,-12.62 -0.083,-12.715 0,-12.902" style="fill:rgb(35,31,32);"/>
    </g>
</svg>
