<?xml version="1.0" encoding="UTF-8" standalone="no"?>
<!DOCTYPE svg PUBLIC "-//W3C//DTD SVG 1.1//EN" "http://www.w3.org/Graphics/SVG/1.1/DTD/svg11.dtd">
<svg width="100%" height="100%" viewBox="0 0 513 513" version="1.1" xmlns="http://www.w3.org/2000/svg" xmlns:xlink="http://www.w3.org/1999/xlink" xml:space="preserve" xmlns:serif="http://www.serif.com/" style="fill-rule:evenodd;clip-rule:evenodd;stroke-linejoin:round;stroke-miterlimit:2;">
    <g>
        <g>
            <path d="M507.107,167.232L495.978,156.102C489.467,149.581 478.891,149.581 472.369,156.102C465.848,162.618 465.848,173.189 472.369,179.711L483.499,190.841C486.76,194.102 491.032,195.733 495.303,195.733C499.574,195.733 503.847,194.102 507.107,190.841C513.629,184.325 513.629,173.754 507.107,167.232Z" style="fill:rgb(149,65,16);fill-rule:nonzero;"/>
        </g>
    </g>
    <g>
        <g>
            <path d="M440.326,156.102C433.805,149.58 423.229,149.58 416.718,156.102L405.588,167.232C399.067,173.753 399.067,184.324 405.588,190.841C408.849,194.102 413.121,195.733 417.392,195.733C421.663,195.733 425.936,194.102 429.196,190.841L440.326,179.711C446.847,173.189 446.847,162.619 440.326,156.102Z" style="fill:rgb(149,65,16);fill-rule:nonzero;"/>
        </g>
    </g>
    <g>
        <g>
            <path d="M507.11,89.319C503.849,86.058 499.577,84.427 495.305,84.427C491.033,84.427 486.761,86.058 483.501,89.319L472.371,100.449C465.85,106.97 465.85,117.541 472.371,124.058C478.892,130.579 489.468,130.579 495.98,124.058L507.11,112.928C513.631,106.407 513.631,95.836 507.11,89.319Z" style="fill:rgb(149,65,16);fill-rule:nonzero;"/>
        </g>
    </g>
    <g>
        <g>
            <path d="M441.658,104.515L418.049,80.906C398.522,61.368 366.733,61.379 347.217,80.906L339.348,88.775L315.734,65.161C309.213,58.64 298.647,58.64 292.125,65.161L247.55,109.736C225.851,100.554 202.306,95.726 178,95.726C130.375,95.726 85.657,114.22 52.076,147.802C-17.359,217.237 -17.359,330.221 52.076,399.655C85.658,433.237 130.375,451.731 178,451.731C225.625,451.731 270.348,433.237 303.93,399.655C337.512,366.073 356.006,321.356 356.006,273.731C356.006,249.425 351.178,225.88 341.996,204.18L386.571,159.605C393.092,153.089 393.092,142.513 386.571,135.996L362.957,112.382L370.826,104.513C377.332,98.007 387.923,97.997 394.44,104.513L418.049,128.122C421.31,131.383 425.582,133.014 429.853,133.014C434.124,133.014 438.397,131.383 441.657,128.122C448.179,121.607 448.179,111.03 441.658,104.515ZM256.762,352.319C235.724,373.362 207.784,384.949 178.088,384.949C148.392,384.949 120.452,373.362 99.414,352.319C92.893,345.803 92.893,335.227 99.414,328.71C105.935,322.189 116.501,322.189 123.023,328.71C137.756,343.443 157.317,351.557 178.089,351.557C198.861,351.557 218.42,343.443 233.155,328.71C239.676,322.189 250.242,322.189 256.764,328.71C263.283,335.226 263.283,345.802 256.762,352.319Z" style="fill:rgb(149,65,16);fill-rule:nonzero;"/>
        </g>
    </g>
</svg>
