<?xml version="1.0" encoding="UTF-8" standalone="no"?>
<!DOCTYPE svg PUBLIC "-//W3C//DTD SVG 1.1//EN" "http://www.w3.org/Graphics/SVG/1.1/DTD/svg11.dtd">
<svg width="100%" height="100%" viewBox="0 0 1024 1024" version="1.1" xmlns="http://www.w3.org/2000/svg" xmlns:xlink="http://www.w3.org/1999/xlink" xml:space="preserve" style="fill-rule:evenodd;clip-rule:evenodd;stroke-linejoin:round;stroke-miterlimit:2;">
    <g transform="matrix(6.12323e-17,-1,1,6.12323e-17,-61.1522,1026.1)">
        <path d="M841.449,171.558L714.178,185.576L162.659,725.558L282.949,843.688L871.384,259.138L841.449,171.558Z" style="fill:rgb(59,142,187);"/>
    </g>
    <path d="M841.449,171.558L714.178,185.576L162.659,725.558L282.949,843.688L871.384,259.138L841.449,171.558Z" style="fill:rgb(191,220,235);"/>
    <path d="M887.36,311.488C893.248,305.664 896.832,297.664 896.832,288.768L896.832,160.832C896.832,143.168 882.496,128.832 864.832,128.832L742.464,128.832C731.84,126.592 720.448,128.96 712.256,137.216L479.488,370.688L248.128,139.2C239.936,130.944 228.544,128.576 217.984,130.816L95.936,130.816C78.336,130.816 64,145.088 64,162.688L64,289.984C64,298.88 67.648,306.816 73.472,312.64C73.6,312.768 73.664,312.96 73.792,313.152L305.6,545.088L161.472,689.536L121.28,649.088C108.416,636.16 87.488,636.16 74.624,649.088C61.696,662.016 61.696,682.944 74.624,695.872L177.728,799.68L75.52,903.424C62.592,916.352 62.592,937.344 75.52,950.272C88.384,963.2 109.312,963.2 122.176,950.272L224.384,846.592L327.36,950.272C340.224,963.2 361.152,963.2 374.016,950.272C386.944,937.344 386.944,916.416 374.016,903.488L335.616,864.832L480.32,719.936L623.936,863.552L585.6,902.08C572.736,914.944 572.736,935.808 585.6,948.736C598.464,961.664 619.328,961.6 632.256,948.736L734.976,845.568L836.736,948.416C849.6,961.28 870.464,961.28 883.392,948.416C896.32,935.552 896.256,914.688 883.392,901.76L781.504,798.848L884.352,695.552C897.216,682.688 897.216,661.824 884.352,648.896C871.488,635.968 850.624,636.032 837.696,648.896L797.632,689.088L654.144,545.536L886.912,312.064C887.168,311.872 887.232,311.616 887.36,311.488ZM127.872,273.92L127.872,194.496L210.24,194.496L432.96,417.344L352.192,498.368L127.872,273.92ZM751.232,735.808L670.464,816.896L526.848,673.28L607.68,592.192L751.232,735.808ZM832.896,272.64L289.088,817.92L208.128,736.512L750.272,192.896L832.896,192.896L832.896,272.64Z" style="fill-rule:nonzero;"/>
</svg>
